<svg width="101" height="24" fill="none" xmlns="http://www.w3.org/2000/svg"><g clip-path="url(#a)"><path d="M23 12c0 6.628-5.149 12-11.5 12S0 18.628 0 12 5.148 0 11.5 0 23 5.372 23 12Z" fill="#4B5563"/><path d="M14.11 7.67c-.625 0-1.243.122-1.821.36l.082-.453s.553-2.43-1.714-2.577c-.18 0-.237.096-.26.223l-.444 2.449a4.786 4.786 0 0 0-1.755.357l.082-.452s.553-2.43-1.715-2.576c-.18 0-.237.097-.26.221l-1.213 6.693c-.057.304-.087.611-.092.92C4.966 15.68 7.16 18 9.89 18c2.73 0 4.982-2.317 5.02-5.165.009-.768-.175-1.287-.5-1.591-.438-.407-1.205-.326-1.573.176-.342.465-.29 1.175-.293 1.414a2.784 2.784 0 0 1-.562 1.646 2.729 2.729 0 0 1-.522-1.646c.019-1.489 1.194-2.7 2.622-2.7 1.427 0 2.573 1.21 2.555 2.7a2.791 2.791 0 0 1-.343 1.309c-.22.4-.534.739-.914.985-.106.063-.203.14-.289.23a1.456 1.456 0 0 0-.182.29 5.98 5.98 0 0 1-1.802 2.055c-.042.03-.118.089-.095.148.023.06.142.075.196.083.256.043.515.065.775.065 2.73 0 4.982-2.317 5.017-5.165.035-2.848-2.16-5.164-4.89-5.164Zm-6.744 5.165c.016-1.314.934-2.411 2.133-2.649l-.314 1.73a5.483 5.483 0 0 0-.091.92 5.245 5.245 0 0 0 .695 2.69c-1.366-.073-2.441-1.25-2.423-2.69Z" fill="#fff"/><path d="M35.769 14.26c-.157 1.757-1.408 2.995-3.405 2.995-1.466 0-2.602-.62-3.02-.907-.258-.173-.344-.36-.344-.677V7.798c0-.562.417-.993.963-.993.532 0 .963.431.963.993v1.9c.431-.187 1.12-.36 1.696-.36 1.899 0 2.98 1.153 3.147 2.934.045.662.045 1.327 0 1.989Zm-1.925-1.669c-.056-.89-.49-1.41-1.409-1.41-.632 0-1.265.23-1.51.39v3.395c.23.2.878.445 1.395.445.934 0 1.452-.533 1.524-1.469.03-.387.016-1.034.001-1.351h-.001ZM37.46 10.405c0-.576.345-1.022.95-1.022.545 0 .976.445.976 1.022v3.673c0 .864.56 1.339 1.38 1.339.496.008.983-.121 1.41-.375v-4.666c0-.547.4-.993.963-.993.531 0 .962.445.962.993v5.383c0 .331-.086.518-.345.677-.445.317-1.494.82-3.032.82-2.07 0-3.264-1.122-3.264-3.152v-3.7ZM49.015 9.338c.575 0 1.265.173 1.697.36v-1.9c0-.562.43-.993.962-.993.547 0 .963.431.963.993v7.888c0 .316-.086.503-.345.677-.402.287-1.552.89-3.019.89-1.997 0-3.247-1.238-3.406-2.994a15.39 15.39 0 0 1 0-1.987c.159-1.781 1.251-2.934 3.148-2.934Zm.302 6.074c.5 0 1.167-.245 1.395-.445v-3.395c-.245-.159-.878-.39-1.51-.39-.92 0-1.351.518-1.409 1.396-.028.465-.028.932 0 1.397.058.933.593 1.437 1.524 1.437ZM57.592 9.338c.575 0 1.264.173 1.696.36v-1.9c0-.562.431-.993.963-.993.547 0 .964.431.964.993v7.888c0 .316-.086.503-.346.677-.403.287-1.552.89-3.018.89-1.998 0-3.249-1.238-3.406-2.994a15.006 15.006 0 0 1 0-1.987c.157-1.781 1.25-2.934 3.147-2.934Zm.302 6.074c.503 0 1.167-.245 1.394-.445v-3.395c-.244-.159-.876-.39-1.508-.39-.921 0-1.352.518-1.41 1.396-.029.465-.029.932 0 1.397.058.933.59 1.437 1.524 1.437ZM62.655 10.793c-.317-.734.201-1.426.92-1.426.445 0 .805.246.992.75l1.58 4.087c.03.072.056.086.087.086.03 0 .056 0 .086-.085l1.495-4.089c.172-.474.532-.749.992-.749.747 0 1.235.72.92 1.44l-2.688 6.262c-.604 1.41-1.365 2.317-1.912 2.676-.216.145-.518.274-.79.274-.518 0-.964-.345-.964-.906 0-.332.159-.576.432-.78.431-.302.992-.849 1.322-1.77l-2.472-5.77ZM77.916 14.26c-.158 1.757-1.41 2.995-3.407 2.995-1.466 0-2.602-.62-3.018-.907-.259-.173-.345-.36-.345-.677V7.798c0-.562.417-.993.963-.993.531 0 .963.431.963.993v1.9c.431-.187 1.12-.36 1.696-.36 1.897 0 2.976 1.151 3.148 2.936a15.39 15.39 0 0 1 0 1.987Zm-1.927-1.669c-.055-.89-.488-1.41-1.408-1.41-.633 0-1.265.23-1.51.39v3.395c.23.2.877.445 1.395.445.935 0 1.452-.533 1.523-1.469.03-.387.015-1.034 0-1.351ZM82.909 17.254c-1.883 0-3.305-1.21-3.45-2.923a16.303 16.303 0 0 1 0-2.059c.145-1.726 1.567-2.936 3.45-2.936 1.897 0 3.291 1.21 3.435 2.936.044.68.044 1.364 0 2.044-.144 1.729-1.538 2.938-3.435 2.938Zm1.524-4.675c-.044-.82-.618-1.396-1.524-1.396s-1.466.575-1.539 1.396c-.027.479-.027.96 0 1.439.073.82.633 1.396 1.539 1.396.905 0 1.466-.576 1.524-1.396.028-.48.028-.962 0-1.442v.003ZM93.7 14.748c0 1.614-1.334 2.505-3.001 2.505-1.351 0-2.213-.39-2.746-.835-.344-.288-.444-.835-.172-1.195.287-.39.779-.475 1.25-.173a3.157 3.157 0 0 0 1.711.476c.748 0 1.092-.274 1.092-.662 0-.317-.23-.534-.833-.677-.518-.115-.5-.1-1.064-.245-1.178-.302-2.098-.964-2.098-2.202 0-1.555 1.25-2.404 2.932-2.404.905 0 1.839.23 2.342.648.417.345.39.935.086 1.28-.287.316-.778.36-1.25.115-.374-.187-.877-.317-1.25-.317-.72 0-1.02.274-1.02.619 0 .303.215.504.86.648l1.022.23c1.435.348 2.14 1.053 2.14 2.19ZM101 14.748c0 1.614-1.337 2.505-3.004 2.505-1.352 0-2.214-.39-2.746-.835-.345-.288-.444-.835-.172-1.195.287-.39.778-.475 1.25-.173a3.155 3.155 0 0 0 1.71.476c.748 0 1.093-.274 1.093-.662 0-.317-.23-.534-.833-.677-.518-.115-.5-.1-1.064-.245-1.178-.302-2.098-.964-2.098-2.202 0-1.555 1.25-2.404 2.931-2.404.906 0 1.84.23 2.343.648.418.345.389.935.086 1.28-.287.316-.778.36-1.25.115-.373-.187-.877-.317-1.25-.317-.719 0-1.02.274-1.02.619 0 .303.215.504.862.648l1.02.23c1.439.348 2.142 1.053 2.142 2.19Z" fill="#4B5563"/></g><defs><clipPath id="a"><path fill="#fff" d="M0 0h101v24H0z"/></clipPath></defs></svg>