<svg width="120" height="24" fill="none" xmlns="http://www.w3.org/2000/svg"><g clip-path="url(#a)" fill="#4B5563"><path d="M12.451 18.947c4.481 0 7.945-3.393 7.945-7.579 0-3.921-3.254-6.315-5.41-6.315-3 0-5.406 2.11-5.748 5.244-.064.58-.523 1.067-1.105 1.063a365.79 365.79 0 0 0-3.265-.012.671.671 0 0 1-.682-.695c.135-2.718 1.041-5.259 2.77-7.21C8.877 1.272 11.675 0 14.986 0c5.566 0 10.819 5.068 10.819 11.368C25.805 18.345 20.038 24 12.57 24 7.244 24 1.88 20.511.007 15.634a.105.105 0 0 1-.005-.057 2.22 2.22 0 0 1 .123-.406c.071-.188.14-.373.13-.586l-.032-.68a.828.828 0 0 1 .478-.788l.271-.127c.309-.144.528-.428.589-.761.09-.498.527-.86 1.037-.86.795 0 1.487.53 1.747 1.283 1.25 3.629 3.238 6.295 8.106 6.295ZM111.51 8.381c-.993 0-1.298-.593-1.298-1.263 0-.708.248-1.263 1.298-1.263 1.049 0 1.297.555 1.297 1.263 0 .67-.267 1.263-1.297 1.263ZM93.396 16.596v-4.918L92 11.671V11.1c0-.624.505-1.128 1.127-1.125l.269.001V7.889l2.232-.631v2.717h2.023v.578c0 .621-.502 1.125-1.122 1.125h-.9v4.63c0 .714.402.964.921 1.05.612.101 1.12.545 1.12 1.166v.846c-2.114 0-4.274-.093-4.274-2.774Z"/><path fill-rule="evenodd" clip-rule="evenodd" d="M49.349 9.763c-2.233-.057-4.981 1.359-4.981 4.899 0 3.483 2.748 4.86 4.98 4.803 2.29.057 5.02-1.32 5.02-4.803 0-3.54-2.73-4.956-5.02-4.899Zm.016 7.964c-1.622 0-2.773-1.185-2.773-3.137 0-1.856 1.152-3.079 2.774-3.079s2.76 1.22 2.76 3.076c0 1.952-1.139 3.14-2.76 3.14Z"/><path d="M60.233 9.785c1.946 0 3.969.536 3.969 4.363v5.128h-1.244c-.62 0-1.122-.503-1.122-1.125v-4.194c0-1.818-.668-2.507-1.832-2.507-.65 0-1.489.497-1.89.9v5.801c0 .622-.502 1.125-1.122 1.125h-1.13v-9.261h1.26a.96.96 0 0 1 .935.746c.572-.631 1.317-.976 2.176-.976ZM66.754 10c.474 0 .897.299 1.056.747l2.044 5.74 2.043-5.74c.16-.448.582-.747 1.056-.747h1.614l-3.328 8.546a1.122 1.122 0 0 1-1.045.716h-1.428L65.14 10h1.614Z"/><path fill-rule="evenodd" clip-rule="evenodd" d="M83.39 18.81c-.706.287-2.139.67-3.627.67-2.615 0-4.617-1.512-4.617-4.918 0-3.062 1.941-4.699 4.308-4.699 2.92 0 4.166 1.966 4.036 4.642-.027.553-.507.956-1.059.956h-5.034c.114 1.493 1.202 2.277 2.633 2.277.562 0 1.153-.028 1.86-.161.752-.14 1.5.395 1.5 1.161v.072Zm-1.92-4.918c.152-1.464-.833-2.268-2.016-2.268-1.184 0-1.981.89-2.057 2.268h4.072Z"/><path d="M86.464 10.019c.426 0 .798.292.898.708.764-.574 1.718-.938 2.386-.938.057 0 .42 0 .992.077v.993c0 .533-.46.94-.992.94-.61 0-1.508.229-2.214.63v6.851h-2.27V10.02h1.2ZM112.655 18.129V9.992h-1.13c-.62 0-1.122.504-1.122 1.125v8.137h1.13c.619 0 1.122-.504 1.122-1.125ZM115.725 16.615v-4.917h-1.507v-.579c0-.62.502-1.124 1.122-1.124h.385V7.909l2.233-.632v2.718h2.023v.578c0 .62-.502 1.125-1.122 1.125h-.901v4.63c0 .713.403.964.922 1.05.611.101 1.12.545 1.12 1.166v.846c-2.114 0-4.275-.093-4.275-2.775ZM33.21 12.75C33.224 8.42 36.48 6 39.606 6c1.736 0 3.327.375 4.636 1.313l-.53.728a1.368 1.368 0 0 1-1.585.46 5.633 5.633 0 0 0-2.087-.38c-2.557 0-4.485 1.648-4.5 4.629.015 2.981 1.943 4.652 4.5 4.652.554 0 1.298-.066 2.087-.379.56-.221 1.231-.051 1.586.436l.53.729c-1.31.937-2.901 1.312-4.637 1.312-3.125 0-6.382-2.42-6.396-6.75ZM100.439 6.066c.619 0 1.122.504 1.122 1.125v5.158l4.592-5.786c.212-.288.547-.458.903-.458h2.04l-5.192 6.574 5.192 6.572h-2.04c-.356 0-.691-.17-.903-.458l-4.592-5.785v5.118c0 .62-.503 1.125-1.122 1.125h-1.188V6.066h1.188Z"/></g><defs><clipPath id="a"><path fill="#fff" d="M0 0h120v24H0z"/></clipPath></defs></svg>