<svg width="133" height="24" fill="none" xmlns="http://www.w3.org/2000/svg"><path fill-rule="evenodd" clip-rule="evenodd" d="M24.5 2.4c0-1.325-1.075-2.4-2.4-2.4H2.9A2.401 2.401 0 0 0 .5 2.4v19.2c0 1.325 1.075 2.4 2.4 2.4h19.2c1.325 0 2.4-1.075 2.4-2.4V2.4Z" fill="#4B5563"/><path fill-rule="evenodd" clip-rule="evenodd" d="M20.578 5.691 6.096 9.571a2.254 2.254 0 0 0-1.671 2.178v1.52L17.439 9.78a4.234 4.234 0 0 0 3.139-4.09ZM14.378 12.395l-8.282 2.219a2.254 2.254 0 0 0-1.671 2.177v1.52l6.814-1.826a4.234 4.234 0 0 0 3.139-4.09Z" fill="#fff"/><path d="M39.434 4.525c.282-.029.497.01.645.116.148.105.222.271.222.497 0 .437-.24.676-.719.718l-.613.043c-.803.056-1.402.3-1.797.73-.394.429-.627 1.074-.697 1.934l-.043.592h2.305c.225 0 .398.06.518.18.12.119.18.278.18.475 0 .211-.064.38-.19.507-.128.127-.31.19-.55.19h-2.368l-.656 8.225c-.014.267-.105.472-.275.613a.926.926 0 0 1-.613.211c-.24 0-.44-.07-.602-.211-.162-.141-.236-.346-.222-.613l.655-8.224h-1.416c-.226 0-.398-.06-.518-.18a.643.643 0 0 1-.18-.476c0-.211.063-.38.19-.507s.317-.19.571-.19h1.459l.021-.381c.099-1.367.5-2.393 1.205-3.076.705-.684 1.727-1.068 3.066-1.152l.422-.021ZM41.528 19.555a.846.846 0 0 1-.592-.211c-.155-.141-.225-.352-.211-.634L41.803 5.22c.014-.267.113-.468.296-.602.183-.134.395-.201.634-.201.24 0 .434.067.582.2.148.135.215.336.2.603L42.438 18.71c-.014.282-.109.493-.285.634a.968.968 0 0 1-.624.211ZM53.81 8.941c.254 0 .455.074.603.222.148.148.208.356.18.624l-.719 8.985a.753.753 0 0 1-.285.571.969.969 0 0 1-.624.212c-.24 0-.43-.067-.57-.201-.142-.134-.205-.321-.191-.56l.084-1.015a3.652 3.652 0 0 1-1.416 1.342c-.592.317-1.255.476-1.987.476-1.142 0-2.009-.3-2.6-.899-.593-.599-.889-1.476-.889-2.632 0-.254.007-.444.021-.57l.444-5.709c.029-.268.13-.476.307-.624a.94.94 0 0 1 .624-.222c.253 0 .454.074.602.222.148.148.208.356.18.624l-.444 5.603a3.415 3.415 0 0 0-.021.444c0 1.55.74 2.325 2.22 2.325.916 0 1.649-.282 2.198-.845.55-.564.86-1.347.93-2.347l.423-5.18c.028-.268.13-.476.307-.624a.94.94 0 0 1 .624-.222ZM58.314 14.568v.085c0 1.127.278 2.001.835 2.621.557.62 1.364.93 2.42.93 1.114 0 2.094-.31 2.94-.93a.734.734 0 0 1 .422-.148c.17 0 .307.064.413.19a.672.672 0 0 1 .158.445c0 .253-.113.486-.338.697-.38.339-.913.614-1.596.825a7.01 7.01 0 0 1-2.083.317c-1.494 0-2.681-.451-3.562-1.353-.881-.902-1.322-2.114-1.322-3.636 0-1.128.208-2.122.624-2.981.416-.86 1.008-1.53 1.776-2.009.768-.48 1.66-.719 2.675-.719 1.38 0 2.438.413 3.17 1.237.734.825 1.1 2.02 1.1 3.584 0 .267-.07.475-.211.623-.141.148-.332.222-.571.222h-6.85Zm3.425-4.334c-.944 0-1.698.279-2.262.835-.564.557-.923 1.357-1.078 2.4h6.004c.042-1.057-.173-1.86-.645-2.41-.472-.55-1.145-.825-2.02-.825ZM73.81 8.902c1.157 0 2.037.303 2.644.91.606.606.909 1.486.909 2.642 0 .254-.007.444-.022.57l-.444 5.688c-.028.282-.126.493-.295.634a.927.927 0 0 1-.614.212c-.267 0-.475-.07-.623-.212-.148-.14-.208-.352-.18-.634l.444-5.581c.014-.099.021-.247.021-.444 0-1.565-.754-2.347-2.262-2.347-.958 0-1.72.285-2.283.856-.564.571-.888 1.357-.973 2.357l-.423 5.159c-.014.282-.105.493-.275.634a.957.957 0 0 1-.634.212c-.253 0-.454-.07-.602-.212-.148-.14-.215-.352-.201-.634l.74-8.964c.014-.254.11-.451.285-.592a.968.968 0 0 1 .624-.211c.24 0 .43.07.57.211.142.141.205.331.191.57l-.084 1.016a3.69 3.69 0 0 1 1.437-1.353c.606-.325 1.29-.487 2.05-.487ZM82.542 15.73c-.014.099-.021.24-.021.423 0 .676.155 1.19.465 1.543.31.352.747.529 1.31.529.184 0 .36-.01.53-.032a3.35 3.35 0 0 1 .38-.032.43.43 0 0 1 .349.17c.091.112.137.267.137.465 0 .296-.123.503-.37.623-.246.12-.68.18-1.3.18-1.015 0-1.804-.289-2.368-.867-.564-.578-.846-1.395-.846-2.452 0-.198.007-.353.021-.465l.402-5.307h-1.395c-.226 0-.398-.06-.518-.18a.643.643 0 0 1-.18-.475c0-.226.067-.399.201-.518.134-.12.32-.18.56-.18h1.438l.19-2.41a.9.9 0 0 1 .286-.582.889.889 0 0 1 .623-.222c.268 0 .476.078.624.233.148.155.208.36.18.613l-.19 2.368h2.325c.211 0 .38.06.507.18s.19.278.19.475c0 .226-.063.399-.19.518-.127.12-.31.18-.55.18h-2.388l-.402 5.222ZM95.395 19.64c-1.55 0-2.9-.316-4.048-.95a6.47 6.47 0 0 1-2.643-2.686c-.613-1.155-.92-2.494-.92-4.016 0-1.523.307-2.858.92-4.007a6.485 6.485 0 0 1 2.643-2.674c1.148-.634 2.498-.952 4.048-.952.973 0 1.913.148 2.823.444.909.296 1.652.691 2.23 1.184l-1.205 2.749c-1.226-.86-2.48-1.29-3.763-1.29-1.212 0-2.139.38-2.78 1.142-.642.76-.962 1.896-.962 3.404s.32 2.646.962 3.414c.641.768 1.568 1.152 2.78 1.152 1.282 0 2.537-.43 3.763-1.29l1.205 2.749c-.578.493-1.321.888-2.23 1.184-.91.296-1.85.444-2.823.444ZM115.904 19.452h-4.271l-2.579-4.757c-.324-.55-.839-.825-1.544-.825h-1.183v5.582H102.5V4.547h7.104c1.804 0 3.16.391 4.069 1.173.909.782 1.364 1.914 1.364 3.394 0 1.127-.31 2.082-.93 2.864-.62.782-1.494 1.307-2.622 1.575.86.183 1.544.74 2.051 1.67l2.368 4.229Zm-6.914-8.5c.86 0 1.477-.133 1.85-.4.374-.269.561-.706.561-1.312 0-.62-.187-1.067-.561-1.342-.373-.275-.99-.412-1.85-.412h-2.706v3.467h2.706ZM129.498 4.547h3.002v14.905h-3.383v-7.823l-2.875 5.35h-2.495l-2.854-5.223-.021 7.696h-3.383V4.547h3.066l4.482 8.478 4.461-8.478Z" fill="#4B5563"/></svg>