<svg width="77" height="24" fill="none" xmlns="http://www.w3.org/2000/svg"><g clip-path="url(#a)" fill="#4B5563"><path d="M10.007 8.564v2.563h6.138c-.162 1.418-.651 2.51-1.412 3.218-.87.873-2.282 1.855-4.726 1.855-3.749 0-6.682-3.054-6.682-6.818s2.88-6.818 6.682-6.818c2.01 0 3.53.818 4.617 1.854l1.793-1.8C14.896 1.145 12.832 0 10.007 0 4.846 0 .5 4.2.5 9.382c0 5.182 4.346 9.382 9.507 9.382 2.77 0 4.889-.928 6.519-2.619 1.684-1.69 2.227-4.09 2.227-6 0-.6-.054-1.145-.109-1.581h-8.637ZM26.358 6.438c-3.313 0-6.084 2.563-6.084 6.054s2.716 6.055 6.084 6.055c3.369 0 6.085-2.51 6.085-6 0-3.546-2.716-6.11-6.084-6.11Zm0 9.763c-1.846 0-3.422-1.527-3.422-3.654 0-2.182 1.576-3.655 3.422-3.655 1.848 0 3.423 1.473 3.423 3.655 0 2.127-1.575 3.654-3.422 3.654ZM56.074 7.801h-.109c-.597-.709-1.738-1.364-3.205-1.364-3.042 0-5.65 2.619-5.65 6.055 0 3.382 2.608 6.055 5.65 6.055 1.467 0 2.608-.655 3.205-1.364h.109v.873c0 2.29-1.25 3.545-3.205 3.545-1.63 0-2.608-1.145-3.042-2.182l-2.282.982c.652 1.582 2.444 3.6 5.378 3.6 3.097 0 5.758-1.854 5.758-6.327V6.764h-2.498v1.037h-.11Zm-3.042 8.4c-1.847 0-3.205-1.582-3.205-3.654 0-2.128 1.412-3.655 3.205-3.655 1.792 0 3.205 1.582 3.205 3.71.054 2.072-1.358 3.6-3.205 3.6ZM39.885 6.438c-3.313 0-6.084 2.563-6.084 6.054s2.716 6.055 6.084 6.055c3.369 0 6.085-2.51 6.085-6 0-3.546-2.716-6.11-6.085-6.11Zm0 9.763c-1.847 0-3.422-1.527-3.422-3.654 0-2.182 1.575-3.655 3.422-3.655 1.847 0 3.423 1.473 3.423 3.655 0 2.127-1.576 3.654-3.423 3.654ZM60.692.273h2.607v18.328h-2.607V.273ZM71.34 16.201c-1.359 0-2.282-.6-2.934-1.854l8.094-3.328-.272-.709c-.488-1.363-2.064-3.873-5.16-3.873-3.097 0-5.704 2.455-5.704 6.055 0 3.382 2.553 6.055 5.975 6.055 2.77 0 4.346-1.691 5.052-2.673l-2.064-1.364c-.706 1.037-1.63 1.691-2.988 1.691Zm-.164-7.473c1.087 0 2.01.546 2.282 1.31l-5.433 2.29c-.054-2.509 1.793-3.6 3.151-3.6Z"/></g><defs><clipPath id="a"><path fill="#fff" transform="translate(.5)" d="M0 0h76v24H0z"/></clipPath></defs></svg>