<svg width="126" height="22" fill="none" xmlns="http://www.w3.org/2000/svg"><g clip-path="url(#a)" fill="#4B5563"><path d="M15.645.148a2.265 2.265 0 0 0-2.285 2.257V21.02c0 .221.199.417.422.417 2.285 0 4.147-1.84 4.147-4.096V2.405A2.265 2.265 0 0 0 15.645.148ZM27.837.148H24.61v21.436h9.436v-2.697h-6.208V.148ZM40.104 6.258c-1.688 0-2.98.466-3.8 1.373-.819.908-1.24 2.306-1.24 4.17v4.292c0 2.11.372 3.605 1.117 4.488.745.883 2.06 1.325 3.898 1.325 1.739 0 3.03-.368 3.85-1.104.819-.736 1.216-1.864 1.142-3.36v-.589h-3.08v.589c.025.711-.124 1.25-.422 1.57-.298.318-.794.49-1.49.49-.794 0-1.316-.196-1.54-.613-.248-.442-.397-1.374-.397-2.796v-.932h6.978v-3.385c0-1.888-.397-3.31-1.216-4.194-.795-.883-2.086-1.324-3.8-1.324Zm-1.465 3.09c.298-.49.77-.711 1.465-.711.745 0 1.242.22 1.515.638.298.441.422 1.3.422 2.55v1.006h-3.898v-1.006c.024-1.152.173-1.986.496-2.477ZM51.676 6.258c-1.54 0-2.756.417-3.6 1.226-.845.81-1.267 1.962-1.217 3.41v.146h3.054v-.147c0-.736.15-1.3.472-1.692.323-.392.745-.564 1.316-.564.546 0 .969.172 1.242.515.298.343.447.858.447 1.52v1.595h-.15c-2.458 0-4.196.392-5.19 1.177-.993.785-1.49 2.183-1.49 4.145v.049c0 1.373.324 2.428.92 3.164.62.736 1.514 1.128 2.706 1.128 1.54 0 2.633-.466 3.278-1.373v1.03h3.08V10.893c0-1.594-.398-2.771-1.168-3.507-.82-.76-2.036-1.128-3.7-1.128Zm1.739 8.339v1.202c.05 1.226-.15 2.182-.522 2.796-.372.613-.944.907-1.713.907-.547 0-.944-.147-1.192-.441-.249-.32-.373-.834-.373-1.595 0-.932.273-1.668.844-2.158.547-.49 1.391-.736 2.484-.736h.472v.025ZM61.709 7.877l-.1.122V6.552H58.53v15.035h3.08V13.32c0-1.52.248-2.575.72-3.163.471-.565 1.34-.859 2.557-.859h.15V6.258h-.15c-1.242.024-2.31.564-3.178 1.619ZM72.51 6.258c-1.216 0-2.284.441-3.203 1.3v-.981h-3.079v15.01h3.08v-9.909c0-1.055.173-1.84.52-2.33.348-.49.87-.711 1.59-.711.596 0 1.018.172 1.316.564.298.392.472.957.472 1.692v10.694h3.03V9.937c0-1.178-.323-2.085-.969-2.723-.646-.637-1.59-.956-2.756-.956ZM83.959.148h-5.364v21.436h7.002c1.937 0 3.353-.54 4.222-1.618.87-1.055 1.291-2.82 1.291-5.175V6.55c0-2.232-.57-3.875-1.688-4.88C88.279.662 86.467.147 83.959.147Zm3.898 6.45v8.242c0 1.545-.248 2.6-.72 3.188-.472.589-1.316.859-2.508.859h-2.806V2.847h2.508c1.341 0 2.26.27 2.781.809.497.54.745 1.52.745 2.943ZM98.361 6.258c-1.54 0-2.756.417-3.6 1.226-.845.81-1.267 1.962-1.217 3.41v.146h3.054v-.147c0-.736.15-1.3.472-1.692.323-.392.745-.564 1.316-.564.547 0 .969.172 1.242.515.298.343.447.858.447 1.52v1.595h-.15c-2.458 0-4.196.392-5.19 1.177-.992.785-1.49 2.183-1.49 4.145v.049c0 1.373.324 2.428.92 3.164.62.736 1.514 1.128 2.706 1.128 1.54 0 2.633-.466 3.278-1.373v1.03h3.08V10.893c0-1.594-.398-2.771-1.168-3.507-.819-.76-2.036-1.128-3.7-1.128Zm1.739 8.339v1.202c.049 1.226-.15 2.182-.522 2.796-.372.613-.944.907-1.713.907-.547 0-.944-.147-1.192-.441-.249-.32-.373-.834-.373-1.595 0-.932.273-1.668.845-2.158.546-.49 1.39-.736 2.483-.736h.472v.025ZM110.306 12.507c-.944-.662-1.54-1.153-1.813-1.447-.248-.294-.348-.662-.348-1.128 0-.442.124-.785.348-.981.223-.221.596-.32 1.068-.32.521 0 .894.148 1.117.442.224.295.323.81.298 1.496v.59h3.03v-.86c0-1.324-.323-2.33-1.018-2.992-.721-.686-1.863-1.03-3.452-1.03-1.416 0-2.508.344-3.278 1.03-.77.687-1.167 1.668-1.167 2.92 0 .857.248 1.642.72 2.255.472.614 1.415 1.423 2.806 2.38 1.043.71 1.738 1.3 2.061 1.692.323.392.497.834.497 1.324 0 .564-.149.981-.422 1.227-.273.27-.72.416-1.316.416-.621 0-1.068-.171-1.366-.515-.298-.343-.422-.907-.373-1.643v-.588h-3.029v.833c0 1.374.372 2.428 1.142 3.14.795.76 2.011 1.128 3.65 1.128 1.515 0 2.707-.392 3.527-1.153.819-.785 1.241-1.888 1.241-3.31 0-.86-.273-1.644-.819-2.306-.497-.638-1.54-1.52-3.104-2.6ZM124.858 7.237c-.646-.638-1.59-.982-2.782-.982-1.117 0-2.185.466-3.104 1.398V.148h-3.079v21.436h3.079v-9.908c0-1.055.174-1.84.522-2.33.347-.49.844-.712 1.589-.712.571 0 1.018.172 1.291.54.298.368.447.932.447 1.668v10.742h3.03v-11.6c-.025-1.178-.348-2.11-.993-2.747ZM9.014 5.566A2.265 2.265 0 0 0 6.73 7.823V20.87c0 .22.2.417.423.417 2.284 0 4.147-1.84 4.147-4.096v-9.37a2.265 2.265 0 0 0-2.285-2.256ZM2.384 11.945a2.265 2.265 0 0 0-2.285 2.257v6.916c0 .22.199.417.423.417 2.284 0 4.147-1.84 4.147-4.096v-3.237a2.265 2.265 0 0 0-2.285-2.257Z"/></g><defs><clipPath id="a"><path fill="#fff" d="M0 0h126v22H0z"/></clipPath></defs></svg>