<svg width="96" height="24" fill="none" xmlns="http://www.w3.org/2000/svg"><g clip-path="url(#a)" fill="#4B5563"><path d="M12.554 12.729c-1.602 0-2.875.631-3.775 1.871a3.51 3.51 0 0 0-3.182-1.871 4.082 4.082 0 0 0-3.292 1.48v-.218c0-.631-.527-1.153-1.164-1.153C.505 12.838 0 13.36 0 13.99v8.769c.022.63.57 1.131 1.207 1.088a1.141 1.141 0 0 0 1.098-1.088v-6.07c.526-.85 1.316-1.807 2.743-1.807 1.36 0 1.888.653 1.888 2.35v5.527c.021.63.57 1.131 1.207 1.088A1.141 1.141 0 0 0 9.24 22.76v-6.07c.527-.85 1.317-1.807 2.743-1.807 1.361 0 1.888.653 1.888 2.35v5.527c.022.63.57 1.131 1.207 1.088a1.141 1.141 0 0 0 1.098-1.088v-5.897c.044-2.002-1.098-4.134-3.622-4.134ZM23.616 12.73a9.11 9.11 0 0 0-3.643.762c-.417.152-.68.544-.68.98 0 .543.416.978.965 1h.022c.11 0 .22-.022.329-.043a7.976 7.976 0 0 1 2.678-.48c1.777 0 2.524.654 2.546 2.264H23.55c-3.095-.022-4.96 1.284-4.96 3.503 0 2.154 1.8 3.285 3.577 3.285a5.485 5.485 0 0 0 3.666-1.262v.022c.022.631.57 1.132 1.207 1.088a1.141 1.141 0 0 0 1.097-1.088v-5.788c0-2.11-1.404-4.242-4.521-4.242Zm-.746 9.204c-1.295 0-1.976-.478-1.976-1.414 0-.348 0-1.392 2.898-1.392h2.04v1.414c-.614.653-1.733 1.392-2.962 1.392ZM32.549 8.637h.131c.703 0 1.273.565 1.273 1.262v.087c0 .696-.57 1.262-1.273 1.262h-.131a1.269 1.269 0 0 1-1.273-1.262v-.087c0-.697.57-1.262 1.273-1.262ZM32.593 12.816c-.637 0-1.142.5-1.142 1.132V22.738c.022.631.57 1.132 1.207 1.088a1.141 1.141 0 0 0 1.098-1.088V13.97c0-.631-.505-1.154-1.163-1.154ZM38.453 8.313c-.637 0-1.142.5-1.142 1.131v13.295c.022.63.571 1.131 1.208 1.088a1.141 1.141 0 0 0 1.097-1.088V9.466c0-.631-.505-1.153-1.141-1.153h-.022ZM47.605 12.73c-1.646 0-3.007.61-3.929 1.763-.79 1-1.229 2.372-1.229 3.873 0 3.525 2.085 5.636 5.553 5.636 1.91 0 2.853-.436 3.731-.936.373-.174.615-.544.659-.957 0-.566-.461-1.023-1.01-1.023h-.022c-.154 0-.33.022-.46.109a5.493 5.493 0 0 1-2.679.609c-1.93 0-3.072-.892-3.358-2.59h6.717a1.121 1.121 0 0 0 1.163-1.066v-.087c0-3.655-2.656-5.33-5.136-5.33Zm0 2.002c.966 0 2.59.544 2.81 2.546h-5.62c.22-1.762 1.537-2.546 2.81-2.546ZM60.752 12.729h-.11c-1.097 0-2.107.522-3.029 1.523v-.261c0-.631-.527-1.153-1.163-1.153-.637 0-1.163.522-1.141 1.153v8.769c.022.63.57 1.131 1.207 1.088a1.141 1.141 0 0 0 1.097-1.088v-6.158c.746-1.066 1.8-1.654 2.985-1.654h.11a1.085 1.085 0 0 0 1.163-1.023v-.065c.022-.609-.483-1.131-1.097-1.153 0 .022-.022.022-.022.022ZM92.708 0H69.355c-1.821 0-3.292 1.458-3.292 3.264V24l4.543-4.46H92.73c1.822 0 3.292-1.458 3.292-3.264V3.264A3.307 3.307 0 0 0 92.708 0ZM73.064 14.622c0 .479-.395.87-.877.87a.877.877 0 0 1-.878-.87V5.374c0-.478.395-.87.878-.87.482 0 .877.392.877.87v9.248Zm4.083 0c0 .479-.395.87-.878.87a.877.877 0 0 1-.878-.87V8.508c0-.479.395-.87.878-.87s.878.391.878.87v6.114Zm.11-8.9a.933.933 0 0 1-.944.936h-.088a.933.933 0 0 1-.944-.935v-.066c0-.522.417-.935.944-.935h.088c.526 0 .944.413.944.935v.066Zm6.189 9.553a2.89 2.89 0 0 1-1.295.283c-1.514 0-2.327-.719-2.327-2.09V9.27h-.79c-.263 0-.483-.196-.483-.457v-.021a.56.56 0 0 1 .22-.414l1.953-1.893a.683.683 0 0 1 .395-.196c.264 0 .505.218.505.479v.936h1.405a.783.783 0 1 1 0 1.566h-1.405v4.09c0 .588.307.632.724.632.176 0 .352-.022.505-.065.11-.044.242-.044.351-.066.396 0 .725.327.747.74-.044.283-.242.566-.505.675Zm5.377-1.35a3.877 3.877 0 0 0 1.844-.413.7.7 0 0 1 .35-.087c.44 0 .791.327.791.762v.022a.85.85 0 0 1-.483.718c-.614.348-1.273.652-2.634.652-2.458 0-3.95-1.501-3.95-4.003 0-2.938 1.975-4.004 3.643-4.004 2.502 0 3.643 1.98 3.643 3.808.022.457-.35.848-.812.87H86.54c.242 1.088 1.032 1.676 2.283 1.676Z"/><path d="M88.428 9.118a1.822 1.822 0 0 0-1.866 1.653h3.754a1.858 1.858 0 0 0-1.888-1.653Z"/></g><defs><clipPath id="a"><path fill="#fff" d="M0 0h96v24H0z"/></clipPath></defs></svg>