<svg width="117" height="24" fill="none" xmlns="http://www.w3.org/2000/svg"><path fill-rule="evenodd" clip-rule="evenodd" d="M17.3 11.345c.179-.02.35-.021.507 0 .09-.204.106-.557.024-.941-.121-.572-.285-.917-.625-.863-.34.054-.352.467-.23 1.038.068.322.19.596.325.766ZM14.386 11.794c.243.105.392.174.45.113.038-.037.027-.11-.031-.203-.12-.192-.367-.387-.628-.497a1.737 1.737 0 0 0-1.666.197c-.162.117-.316.279-.294.377.007.032.031.056.088.064.134.015.602-.218 1.142-.25.38-.023.696.094.939.199M13.897 12.07c-.316.05-.49.152-.603.248-.095.082-.154.173-.154.236 0 .03.014.048.024.057.015.013.032.02.053.02.07 0 .231-.063.231-.063a2.05 2.05 0 0 1 1.019-.104c.159.017.234.027.269-.027.01-.015.022-.049-.01-.1-.073-.117-.393-.317-.828-.266M16.317 13.072c.215.104.451.063.529-.09.076-.155-.035-.364-.25-.468-.215-.103-.451-.063-.528.091-.078.154.034.363.25.467ZM17.698 11.89c-.175-.002-.32.186-.324.421-.004.236.135.429.309.432.174.003.32-.186.323-.421.004-.235-.134-.428-.308-.431ZM5.978 16.13c-.043-.054-.115-.038-.184-.022a.668.668 0 0 1-.162.023.355.355 0 0 1-.299-.149c-.079-.12-.074-.299.013-.504l.041-.091c.14-.31.374-.826.111-1.318-.198-.37-.52-.601-.909-.65a1.18 1.18 0 0 0-1 .355c-.386.419-.447.988-.372 1.19.027.073.07.094.101.098.066.009.163-.038.223-.2l.018-.051c.027-.085.077-.244.16-.37a.71.71 0 0 1 .972-.199c.27.173.374.499.259.81-.06.16-.157.468-.136.72.044.512.364.717.65.739.28.01.475-.144.525-.257.029-.066.004-.107-.012-.124" fill="#4B5563"/><path fill-rule="evenodd" clip-rule="evenodd" d="M8.633 6.74c.911-1.035 2.033-1.935 3.038-2.44.035-.018.072.019.053.052-.08.142-.234.447-.282.677a.041.041 0 0 0 .063.043c.625-.42 1.712-.868 2.666-.926.041-.002.061.05.029.074-.146.11-.304.26-.42.414a.04.04 0 0 0 .032.064c.67.004 1.614.235 2.23.574.04.023.011.102-.036.092-.93-.21-2.455-.369-4.038.01-1.413.34-2.492.863-3.28 1.426-.04.028-.087-.023-.055-.06Zm4.538 10.03.001.001v-.001Zm3.758.436a.071.071 0 0 0 .042-.072.068.068 0 0 0-.075-.06s-1.944.283-3.781-.378c.2-.64.732-.409 1.536-.345 1.45.085 2.749-.123 3.709-.394.832-.235 1.925-.698 2.773-1.357.286.619.387 1.3.387 1.3s.222-.04.407.072c.175.106.303.326.216.895-.178 1.063-.638 1.926-1.41 2.72a5.81 5.81 0 0 1-1.695 1.245c-.346.179-.716.334-1.106.459-2.912.935-5.892-.093-6.853-2.3a3.48 3.48 0 0 1-.193-.522c-.41-1.454-.062-3.2 1.025-4.298.067-.07.135-.153.135-.257 0-.086-.056-.178-.104-.243-.38-.542-1.697-1.466-1.433-3.254.19-1.284 1.332-2.188 2.397-2.135l.27.015c.462.027.864.085 1.244.101.636.027 1.208-.064 1.886-.618.228-.188.411-.35.721-.402.033-.005.114-.034.276-.026a.922.922 0 0 1 .464.146c.543.355.62 1.215.648 1.845.016.359.06 1.228.076 1.478.034.57.187.65.495.75.174.057.335.099.573.165.718.198 1.144.4 1.413.658.16.162.235.333.258.497.085.608-.48 1.359-1.975 2.041-1.634.746-3.617.935-4.987.785l-.48-.053c-1.096-.146-1.721 1.247-1.064 2.2.424.616 1.579 1.016 2.734 1.016 2.649 0 4.684-1.112 5.442-2.072l.06-.085c.037-.055.007-.085-.04-.054-.618.416-3.367 2.069-6.306 1.571 0 0-.357-.058-.683-.182-.26-.1-.802-.345-.868-.892 2.372.722 3.866.04 3.866.04Zm-13.03-5.543c-.825.158-1.552.617-1.996 1.252-.266-.217-.761-.64-.849-.804-.71-1.325.775-3.902 1.812-5.357C5.429 3.158 9.443.436 11.302.93c.302.084 1.302 1.225 1.302 1.225s-1.857 1.013-3.58 2.426C6.703 6.338 4.95 8.89 3.899 11.663Zm1.387 6.081c-.125.021-.253.03-.381.026-1.242-.032-2.582-1.131-2.715-2.434-.148-1.44.6-2.549 1.926-2.811.159-.032.35-.05.556-.04.743.04 1.837.601 2.087 2.192.221 1.408-.13 2.842-1.473 3.067Zm16.815-2.55c-.011-.037-.08-.286-.176-.586-.095-.3-.193-.511-.193-.511.382-.562.388-1.065.337-1.35-.054-.352-.203-.653-.504-.963-.301-.311-.917-.63-1.783-.869l-.454-.123c-.002-.019-.024-1.053-.043-1.497-.015-.321-.043-.822-.2-1.315-.19-.668-.517-1.253-.927-1.627 1.13-1.152 1.837-2.422 1.835-3.511-.003-2.095-2.62-2.729-5.844-1.416l-.684.285A795.15 795.15 0 0 0 12.212.504C8.535-2.65-2.96 9.913.715 12.964l.804.669a3.82 3.82 0 0 0-.224 1.792c.086.84.527 1.644 1.24 2.266.678.59 1.57.965 2.434.964 1.43 3.24 4.698 5.228 8.53 5.34 4.11.12 7.56-1.776 9.005-5.182.095-.24.496-1.316.496-2.267 0-.956-.55-1.352-.9-1.352M49.375 14.869c-.87.201-1.32-.068-1.32-.647 0-.794.816-1.112 1.983-1.112.513 0 .997.045.997.045 0 .34-.735 1.5-1.66 1.714Zm.885-7.947c-2.785 0-4.784 1.03-4.784 1.03v3.026s2.207-1.276 3.998-1.276c1.43 0 1.605.775 1.54 1.418 0 0-.412-.11-1.67-.11-2.964 0-4.46 1.355-4.46 3.526 0 2.06 1.681 2.92 3.098 2.92 2.067 0 2.976-1.396 3.255-2.059.194-.46.23-.77.403-.77.199 0 .132.223.122.68-.016.802.022 1.407.148 1.918h2.74v-4.957c0-3.094-1.088-5.346-4.39-5.346ZM68.3 12.19c0-.905.838-1.73 2.375-1.73 1.674 0 3.021.811 3.323.995V7.952s-1.064-1.03-3.68-1.03c-2.756 0-5.052 1.621-5.052 5.112 0 3.49 2.084 5.425 5.045 5.425 2.314 0 3.693-1.278 3.693-1.278v-3.327c-.436.245-1.652 1.094-3.313 1.094-1.758 0-2.39-.814-2.39-1.757ZM31.667 7.151c0 .003.174.756-.056 1.74-.117.5-.332.927-.072.927.18 0 .18-.15.413-.687.341-.784 1.061-2.212 2.742-2.212 1.6 0 2.352.977 2.602 1.89.19.696.023 1.009.255 1.009.165 0 .222-.36.424-.816.364-.817 1.155-2.083 2.755-2.083 2.414 0 3.336 1.753 3.336 4.382v5.923h-3.587v-5.46c0-.911-.146-1.794-.972-1.794-.765 0-1.121 1.363-1.121 2.242v5.015h-3.653v-5.463c0-1.165-.163-1.794-.978-1.794-.705 0-1.116 1.254-1.116 2.243v5.012H29V7.15h2.665Zm24.179.014c.001.001.62.36 1.822.36 1.204 0 1.815-.36 1.815-.36v10.062h-3.637V7.165Zm30.03 0c.002.001.621.36 1.823.36 1.204 0 1.815-.36 1.815-.36v10.062h-3.638V7.165ZM64.297 4.102v13.125h-3.638V4.102h3.638Zm14.024 0s.151.378.151 1.5c0 1.657-.358 3.005-.528 3.519-.09.272-.25.692-.02.7.133.003.212-.197.374-.545.162-.349.963-2.354 3.069-2.354 2.9 0 3.327 2.387 3.327 4.973v5.332h-3.638v-5.551c0-1.139-.238-1.704-.997-1.704-.916 0-1.24 1.427-1.24 2.243v5.012h-3.638V4.1h3.14Zm15.087 3.05c0 .002.175.755-.055 1.74-.118.5-.333.926-.073.926.18 0 .18-.15.413-.687.341-.784 1.061-2.212 2.743-2.212 1.671 0 2.334.981 2.6 1.89.18.61.025 1.009.256 1.009.165 0 .222-.36.424-.816.363-.817 1.155-2.083 2.755-2.083 2.414 0 3.336 1.753 3.336 4.382v5.923h-3.587v-5.46c0-.911-.146-1.794-.972-1.794-.765 0-1.122 1.363-1.122 2.242v5.015h-3.652v-5.463c0-1.165-.163-1.794-.978-1.794-.705 0-1.116 1.254-1.116 2.243v5.012h-3.638V7.15h2.665ZM57.652 4c-1.229 0-2.226.654-2.226 1.461s.997 1.461 2.226 1.461c1.23 0 2.227-.654 2.227-1.461S58.883 4 57.652 4Zm30.031 0c-1.23 0-2.226.654-2.226 1.461s.997 1.461 2.227 1.461 2.227-.654 2.227-1.461S88.912 4 87.683 4ZM112.004 15.059c-.834 0-1.448-1.064-1.448-2.545 0-1.44.63-2.544 1.419-2.544 1.012 0 1.443.933 1.443 2.544 0 1.676-.398 2.545-1.414 2.545Zm.998-8.141c-1.869 0-2.727 1.409-3.099 2.212-.246.53-.233.686-.413.686-.26 0-.044-.426.073-.927.231-.986.055-1.739.055-1.739h-2.664v12.852h3.637v-4.074c.43.733 1.227 1.517 2.455 1.517 2.631 0 3.954-2.236 3.954-5.258 0-3.425-1.584-5.269-3.997-5.269" fill="#4B5563"/></svg>