<svg width="96" height="24" fill="none" xmlns="http://www.w3.org/2000/svg"><path d="m30.891 18.898 1.187-2.751c1.282.955 2.985 1.452 4.67 1.452 1.243 0 2.028-.478 2.028-1.204-.02-2.025-7.445-.44-7.502-5.522-.02-2.58 2.277-4.567 5.53-4.567 1.933 0 3.866.478 5.244 1.567l-1.11 2.809c-1.263-.803-2.832-1.376-4.325-1.376-1.014 0-1.684.478-1.684 1.09.02 1.986 7.502.897 7.579 5.75 0 2.638-2.24 4.491-5.455 4.491-2.353 0-4.516-.554-6.162-1.739Zm45.529-3.745a3.445 3.445 0 0 1-2.986 1.739 3.42 3.42 0 1 1 0-6.84c1.282 0 2.392.706 2.986 1.738l3.272-1.815a7.197 7.197 0 0 0-6.258-3.669c-3.961 0-7.176 3.21-7.176 7.166 0 3.955 3.215 7.165 7.176 7.165a7.135 7.135 0 0 0 6.258-3.669l-3.272-1.815ZM44.153.363h4.096V20.37h-4.096V.363Zm37.147 0V20.37h4.095v-6l4.861 6H95.5l-6.181-7.128 5.722-6.65h-5.014l-4.632 5.523V.363H81.3ZM60.42 15.191c-.593.975-1.818 1.7-3.195 1.7a3.42 3.42 0 1 1 0-6.84c1.377 0 2.602.764 3.196 1.758v3.382Zm0-8.598v1.624c-.67-1.128-2.334-1.911-4.076-1.911-3.598 0-6.43 3.172-6.43 7.146 0 3.975 2.832 7.185 6.43 7.185 1.742 0 3.407-.783 4.077-1.91v1.623h4.095V6.594h-4.095ZM5.571 15.17a2.522 2.522 0 0 1-2.526 2.523 2.522 2.522 0 1 1 0-5.045h2.526v2.523Zm1.263 0a2.522 2.522 0 0 1 2.526-2.522 2.522 2.522 0 0 1 2.527 2.523v6.306a2.522 2.522 0 0 1-2.527 2.522 2.522 2.522 0 0 1-2.526-2.522V15.17ZM9.36 5.045A2.522 2.522 0 1 1 9.36 0a2.522 2.522 0 0 1 2.527 2.522v2.523H9.36Zm0 1.28a2.522 2.522 0 1 1 0 5.044H3.027a2.522 2.522 0 1 1 0-5.044h6.335ZM19.485 8.847a2.522 2.522 0 0 1 2.526-2.522 2.522 2.522 0 1 1 0 5.044h-2.526V8.847Zm-1.263 0a2.522 2.522 0 0 1-2.526 2.522 2.522 2.522 0 0 1-2.527-2.522V2.522A2.522 2.522 0 0 1 15.696 0a2.522 2.522 0 0 1 2.526 2.522v6.325ZM15.696 18.954a2.522 2.522 0 1 1 0 5.045 2.522 2.522 0 0 1-2.527-2.522v-2.523h2.527Zm0-1.261a2.522 2.522 0 1 1 0-5.045h6.334a2.522 2.522 0 1 1 0 5.045h-6.334Z" fill="#4B5563"/></svg>