<svg width="102" height="24" fill="none" xmlns="http://www.w3.org/2000/svg"><path d="M99.637 14.62a2.44 2.44 0 0 1-.326.85 1.823 1.823 0 0 1-.608.59c-.25.15-.56.226-.933.226-.362 0-.67-.076-.926-.227a1.797 1.797 0 0 1-.615-.59 2.59 2.59 0 0 1-.335-.848 4.7 4.7 0 0 1-.104-.986c0-.346.033-.68.096-1.002.064-.324.174-.61.328-.858.154-.248.356-.45.606-.606.25-.156.561-.235.934-.235.362 0 .667.08.917.236.25.155.455.36.615.613.16.254.275.542.343.865.07.325.105.655.104.987 0 .334-.032.663-.096.986Zm2.139-2.627a4.185 4.185 0 0 0-.686-1.43 3.475 3.475 0 0 0-1.165-.986c-.469-.249-1.028-.372-1.677-.372-.51 0-.979.102-1.404.307-.426.205-.777.534-1.054.986h-.03V9.431h-2.156v11.285h2.266v-3.96h.032c.277.41.631.718 1.062.928.43.21.902.316 1.413.316.606 0 1.135-.12 1.588-.356.452-.237.83-.555 1.133-.954.304-.4.529-.857.678-1.374.15-.518.224-1.057.224-1.617 0-.593-.074-1.16-.224-1.706m-11.172 2.628a2.47 2.47 0 0 1-.328.848c-.154.243-.357.44-.608.59-.249.151-.56.227-.933.227-.362 0-.67-.076-.925-.227a1.791 1.791 0 0 1-.615-.59 2.568 2.568 0 0 1-.335-.848 4.673 4.673 0 0 1-.103-.986c0-.346.03-.68.095-1.002a2.56 2.56 0 0 1 .328-.858 1.86 1.86 0 0 1 .606-.606c.25-.156.56-.235.934-.235.36 0 .668.08.917.235.249.155.46.364.615.614.16.254.273.542.343.865.07.325.104.655.103.987 0 .331-.031.661-.094.986Zm1.451-4.058a3.463 3.463 0 0 0-1.165-.986c-.468-.249-1.026-.372-1.675-.372-.512 0-.98.102-1.405.307-.427.205-.777.534-1.053.986h-.033V9.431H84.57v11.285h2.268v-3.96h.03c.277.41.632.718 1.063.928.43.21.901.316 1.412.316.607 0 1.136-.12 1.588-.356.452-.237.83-.555 1.134-.954.303-.4.528-.857.678-1.374a5.856 5.856 0 0 0 .224-1.617c0-.593-.076-1.16-.223-1.706a4.215 4.215 0 0 0-.688-1.43Zm-14.908 2.764 1.485-4.236h.031l1.437 4.236h-2.953Zm.24-7.081-4.31 11.543H75.6l.893-2.57h4.263l.861 2.57h2.603L79.957 6.246h-2.57Zm-4.502 7.882a2.07 2.07 0 0 0-.59-.664 3.203 3.203 0 0 0-.838-.428c-.318-.108-.64-.2-.967-.274a36.405 36.405 0 0 0-.94-.21 7.395 7.395 0 0 1-.823-.219 1.702 1.702 0 0 1-.582-.316.63.63 0 0 1-.223-.5c0-.173.041-.31.127-.413a.855.855 0 0 1 .311-.235c.123-.053.258-.088.407-.105a3.94 3.94 0 0 1 .415-.023c.404 0 .756.078 1.054.234.297.156.463.455.494.897h2.155c-.043-.517-.173-.945-.39-1.286a2.599 2.599 0 0 0-.823-.815 3.41 3.41 0 0 0-1.126-.437 6.442 6.442 0 0 0-1.3-.129c-.447 0-.884.04-1.308.12-.427.082-.81.222-1.15.421-.34.2-.614.471-.822.817-.208.344-.312.787-.312 1.325 0 .367.075.677.225.93.147.254.345.463.589.63.245.168.525.303.838.404.318.104.64.194.966.268.81.173 1.44.344 1.892.517.452.172.678.431.678.776a.854.854 0 0 1-.143.509 1.09 1.09 0 0 1-.36.323c-.144.081-.303.141-.478.178a2.382 2.382 0 0 1-.503.057c-.224 0-.44-.027-.646-.08a1.664 1.664 0 0 1-.551-.252 1.328 1.328 0 0 1-.392-.436c-.1-.178-.152-.39-.152-.639h-2.154c.021.56.146 1.027.376 1.399.227.372.52.67.877.897.356.226.764.388 1.222.486.461.097.932.145 1.403.145.464 0 .927-.046 1.382-.137a3.473 3.473 0 0 0 1.205-.478c.352-.226.635-.525.854-.897.217-.372.326-.833.326-1.383 0-.388-.074-.713-.223-.977Zm-9.37-7.203H61.25v2.506h-1.372v1.536h1.372v4.93c0 .422.07.76.208 1.02.138.258.327.458.566.598.24.14.516.234.83.282.313.049.648.073.998.073.224 0 .452-.006.687-.015.233-.012.446-.032.638-.066v-1.778a3.943 3.943 0 0 1-.703.065c-.382 0-.638-.065-.766-.194-.127-.13-.191-.388-.191-.777v-4.139h1.66V9.431h-1.66V6.925Zm-6.496 7.63c0 .13-.013.303-.04.518a1.742 1.742 0 0 1-.215.639c-.117.21-.299.391-.543.541-.244.152-.59.227-1.038.227-.18 0-.356-.016-.526-.049a1.263 1.263 0 0 1-.447-.17.866.866 0 0 1-.303-.331 1.094 1.094 0 0 1-.112-.517c0-.215.038-.394.112-.533.072-.137.173-.256.295-.348.122-.092.266-.164.431-.219.165-.053.333-.097.503-.129.18-.031.362-.06.542-.08.174-.021.347-.048.52-.081a3.6 3.6 0 0 0 .462-.122c.144-.049.263-.115.36-.202v.856Zm2.267 1.375v-4.348c0-.508-.111-.914-.336-1.221a2.298 2.298 0 0 0-.86-.72 3.83 3.83 0 0 0-1.167-.347 9.134 9.134 0 0 0-1.26-.089 6.83 6.83 0 0 0-1.365.137c-.453.092-.86.246-1.221.46a2.722 2.722 0 0 0-.894.858c-.235.355-.367.803-.4 1.342h2.267c.043-.453.192-.777.448-.97.255-.195.606-.291 1.053-.291.202 0 .39.014.567.04.175.027.33.08.463.162.133.08.24.193.319.34.08.145.12.342.12.59.01.237-.06.416-.208.54-.15.125-.351.22-.607.284a5.78 5.78 0 0 1-.878.145c-.33.033-.665.077-1.005.13-.341.054-.68.127-1.013.218-.335.091-.634.23-.895.412-.26.184-.473.429-.639.736-.164.307-.247.699-.247 1.172 0 .431.072.803.216 1.115.143.314.343.571.598.776.256.205.554.356.894.454.34.096.708.145 1.102.145.508 0 1.014-.076 1.5-.226.49-.152.916-.415 1.277-.793a3.36 3.36 0 0 0 .16.808h2.299c-.107-.171-.182-.43-.224-.776a8.706 8.706 0 0 1-.064-1.083Zm-9.338-5.78a2.218 2.218 0 0 0-.917-.695c-.39-.166-.887-.25-1.493-.25-.426 0-.862.11-1.31.332-.446.22-.813.573-1.1 1.059h-.048v-4.35h-2.267V17.79h2.267v-4.38c0-.852.138-1.464.415-1.836.276-.371.723-.558 1.34-.558.543 0 .921.17 1.134.51.213.34.32.854.32 1.544v4.72h2.266v-5.14c0-.518-.046-.989-.136-1.416a2.715 2.715 0 0 0-.471-1.083ZM37.977 14.2h-.032l-1.947-7.954H33.65l-1.98 7.857h-.031l-1.804-7.857h-2.505l3.016 11.543h2.538l1.9-7.857h.031l1.932 7.857h2.49l3.065-11.543h-2.458l-1.868 7.955Zm-20.778.182c-.294-.149-1.737-.867-2.006-.966-.269-.1-.464-.15-.66.148s-.758.967-.93 1.165c-.17.199-.342.224-.635.075-.293-.15-1.24-.463-2.36-1.475-.873-.788-1.462-1.761-1.633-2.059-.17-.297-.018-.458.129-.606.132-.133.293-.347.44-.52.147-.174.196-.298.294-.497.098-.198.048-.372-.025-.52-.073-.149-.66-1.612-.905-2.206-.238-.58-.48-.502-.66-.51a11.2 11.2 0 0 0-.562-.011c-.196 0-.514.075-.783.372S5.876 7.788 5.876 9.25c0 1.462 1.052 2.875 1.198 3.074.147.198 2.07 3.2 5.014 4.487.7.306 1.247.488 1.673.625.703.227 1.342.195 1.848.118.564-.085 1.736-.719 1.98-1.413.245-.694.245-1.289.172-1.413-.073-.124-.269-.198-.563-.347Zm-5.355 7.403h-.004a9.655 9.655 0 0 1-4.969-1.378l-.356-.214-3.695.981.986-3.647-.232-.374a9.954 9.954 0 0 1-1.492-5.26c.002-5.45 4.381-9.884 9.766-9.884a9.636 9.636 0 0 1 6.901 2.899 9.888 9.888 0 0 1 2.857 6.993c-.002 5.45-4.382 9.884-9.762 9.884Zm0-21.785C5.37 0 .1 5.335.099 11.892c-.001 2.096.54 4.142 1.567 5.945L0 24l6.226-1.654a11.621 11.621 0 0 0 5.613 1.448h.005c6.473 0 11.742-5.335 11.745-11.893a11.896 11.896 0 0 0-3.437-8.413A11.598 11.598 0 0 0 11.844 0Z" fill="#4B5563"/></svg>