<svg width="80" height="18" fill="none" xmlns="http://www.w3.org/2000/svg"><g clip-path="url(#a)"><path d="M17.066 17.723H3.02c-.931 0-1.794-.485-2.243-1.315-.483-.97-.31-2.112.449-2.839l9.767-9.796H3.986C2.053 3.773.5 2.181.5.277h12.942c.932 0 1.795.485 2.244 1.315.483.97.31 2.112-.449 2.839L5.47 14.227h8.11c1.933 0 3.486 1.592 3.486 3.496ZM72.701 0a6.726 6.726 0 0 0-5.073 2.285C66.385.9 64.556 0 62.554 0c-3.727 0-6.799 3.185-6.799 6.923v10.8a3.481 3.481 0 0 0 3.486-3.496V6.888c0-1.8 1.38-3.323 3.175-3.392a3.329 3.329 0 0 1 3.451 3.323v7.408a3.481 3.481 0 0 0 3.486 3.496V6.888c0-1.8 1.38-3.323 3.175-3.392A3.329 3.329 0 0 1 75.98 6.82v7.408a3.481 3.481 0 0 0 3.486 3.496v-10.8C79.5 3.185 76.428 0 72.7 0ZM34.668 9c0 4.95-4.038 9-8.974 9-4.97 0-8.973-4.05-8.973-9s4.038-9 8.973-9c4.936 0 8.974 4.05 8.974 9Zm-3.486 0a5.488 5.488 0 1 0-10.975 0 5.487 5.487 0 1 0 10.975 0ZM54.03 9c0 4.95-4.038 9-8.974 9-4.97 0-8.973-4.05-8.973-9s4.038-9 8.973-9c4.936 0 8.974 4.05 8.974 9Zm-3.486 0a5.487 5.487 0 1 0-10.975 0 5.487 5.487 0 1 0 10.975 0Z" fill="#4B5563"/></g><defs><clipPath id="a"><path fill="#fff" transform="translate(.5)" d="M0 0h79v18H0z"/></clipPath></defs></svg>