<svg xmlns="http://www.w3.org/2000/svg" width="19.566" height="18.223" viewBox="0 0 19.566 18.223">
  <g id="Group_2" data-name="Group 2" transform="translate(-33.181 -51.249)">
    <g id="_35-Checked" data-name="35-Checked" transform="translate(35.426 51.249)">
      <path id="Path_1" data-name="Path 1" d="M90.759,66.927l-.189-.322c-1.416-2.413-5.184-7.539-5.222-7.59l-.111-.15,1.417-1.4L90.711,60.3a46.654,46.654,0,0,1,6.459-6.871,23.478,23.478,0,0,1,2.84-2.146l.051-.031h2.5l-.423.377C96.8,56.382,91,66.5,90.943,66.6Z" transform="translate(-85.238 -51.249)" fill="#009045"/>
    </g>
    <g id="_13-Cancel" data-name="13-Cancel" transform="translate(33.181 53.985)">
      <ellipse id="Ellipse_1" data-name="Ellipse 1" cx="0.345" cy="0.345" rx="0.345" ry="0.345" transform="translate(0 0)" fill="#828282"/>
      <ellipse id="Ellipse_2" data-name="Ellipse 2" cx="0.345" cy="0.345" rx="0.345" ry="0.345" transform="translate(1.345 0)" fill="#828282"/>
      <ellipse id="Ellipse_3" data-name="Ellipse 3" cx="0.345" cy="0.345" rx="0.345" ry="0.345" transform="translate(2.69 0)" fill="#828282"/>
      <ellipse id="Ellipse_4" data-name="Ellipse 4" cx="0.345" cy="0.345" rx="0.345" ry="0.345" transform="translate(4.035 0)" fill="#828282"/>
      <ellipse id="Ellipse_5" data-name="Ellipse 5" cx="0.345" cy="0.345" rx="0.345" ry="0.345" transform="translate(5.381 0)" fill="#828282"/>
      <ellipse id="Ellipse_6" data-name="Ellipse 6" cx="0.345" cy="0.345" rx="0.345" ry="0.345" transform="translate(6.726 0)" fill="#828282"/>
      <ellipse id="Ellipse_7" data-name="Ellipse 7" cx="0.345" cy="0.345" rx="0.345" ry="0.345" transform="translate(8.071 0)" fill="#828282"/>
      <ellipse id="Ellipse_8" data-name="Ellipse 8" cx="0.345" cy="0.345" rx="0.345" ry="0.345" transform="translate(9.416 0)" fill="#828282"/>
      <ellipse id="Ellipse_9" data-name="Ellipse 9" cx="0.345" cy="0.345" rx="0.345" ry="0.345" transform="translate(10.761 0)" fill="#828282"/>
      <ellipse id="Ellipse_10" data-name="Ellipse 10" cx="0.345" cy="0.345" rx="0.345" ry="0.345" transform="translate(0 14.797)" fill="#828282"/>
      <ellipse id="Ellipse_11" data-name="Ellipse 11" cx="0.345" cy="0.345" rx="0.345" ry="0.345" transform="translate(1.345 14.797)" fill="#828282"/>
      <ellipse id="Ellipse_12" data-name="Ellipse 12" cx="0.345" cy="0.345" rx="0.345" ry="0.345" transform="translate(2.69 14.797)" fill="#828282"/>
      <ellipse id="Ellipse_13" data-name="Ellipse 13" cx="0.345" cy="0.345" rx="0.345" ry="0.345" transform="translate(4.035 14.797)" fill="#828282"/>
      <ellipse id="Ellipse_14" data-name="Ellipse 14" cx="0.345" cy="0.345" rx="0.345" ry="0.345" transform="translate(5.381 14.797)" fill="#828282"/>
      <ellipse id="Ellipse_15" data-name="Ellipse 15" cx="0.345" cy="0.345" rx="0.345" ry="0.345" transform="translate(6.726 14.797)" fill="#828282"/>
      <ellipse id="Ellipse_16" data-name="Ellipse 16" cx="0.345" cy="0.345" rx="0.345" ry="0.345" transform="translate(8.071 14.797)" fill="#828282"/>
      <ellipse id="Ellipse_17" data-name="Ellipse 17" cx="0.345" cy="0.345" rx="0.345" ry="0.345" transform="translate(9.416 14.797)" fill="#828282"/>
      <ellipse id="Ellipse_18" data-name="Ellipse 18" cx="0.345" cy="0.345" rx="0.345" ry="0.345" transform="translate(10.761 14.797)" fill="#828282"/>
      <ellipse id="Ellipse_19" data-name="Ellipse 19" cx="0.345" cy="0.345" rx="0.345" ry="0.345" transform="translate(12.106 14.797)" fill="#828282"/>
      <ellipse id="Ellipse_20" data-name="Ellipse 20" cx="0.345" cy="0.345" rx="0.345" ry="0.345" transform="translate(13.451 14.797)" fill="#828282"/>
      <ellipse id="Ellipse_21" data-name="Ellipse 21" cx="0.345" cy="0.345" rx="0.345" ry="0.345" transform="translate(14.796 14.797)" fill="#828282"/>
      <ellipse id="Ellipse_22" data-name="Ellipse 22" cx="0.345" cy="0.345" rx="0.345" ry="0.345" transform="translate(0 13.451)" fill="#828282"/>
      <ellipse id="Ellipse_23" data-name="Ellipse 23" cx="0.345" cy="0.345" rx="0.345" ry="0.345" transform="translate(0 12.106)" fill="#828282"/>
      <ellipse id="Ellipse_24" data-name="Ellipse 24" cx="0.345" cy="0.345" rx="0.345" ry="0.345" transform="translate(0 10.761)" fill="#828282"/>
      <ellipse id="Ellipse_25" data-name="Ellipse 25" cx="0.345" cy="0.345" rx="0.345" ry="0.345" transform="translate(0 9.416)" fill="#828282"/>
      <ellipse id="Ellipse_26" data-name="Ellipse 26" cx="0.345" cy="0.345" rx="0.345" ry="0.345" transform="translate(0 8.071)" fill="#828282"/>
      <ellipse id="Ellipse_27" data-name="Ellipse 27" cx="0.345" cy="0.345" rx="0.345" ry="0.345" transform="translate(0 6.726)" fill="#828282"/>
      <ellipse id="Ellipse_28" data-name="Ellipse 28" cx="0.345" cy="0.345" rx="0.345" ry="0.345" transform="translate(0 5.381)" fill="#828282"/>
      <ellipse id="Ellipse_29" data-name="Ellipse 29" cx="0.345" cy="0.345" rx="0.345" ry="0.345" transform="translate(0 4.035)" fill="#828282"/>
      <ellipse id="Ellipse_30" data-name="Ellipse 30" cx="0.345" cy="0.345" rx="0.345" ry="0.345" transform="translate(0 2.69)" fill="#828282"/>
      <ellipse id="Ellipse_31" data-name="Ellipse 31" cx="0.345" cy="0.345" rx="0.345" ry="0.345" transform="translate(0 1.345)" fill="#828282"/>
      <ellipse id="Ellipse_32" data-name="Ellipse 32" cx="0.345" cy="0.345" rx="0.345" ry="0.345" transform="translate(14.797 13.451)" fill="#828282"/>
      <ellipse id="Ellipse_33" data-name="Ellipse 33" cx="0.345" cy="0.345" rx="0.345" ry="0.345" transform="translate(14.797 12.106)" fill="#828282"/>
      <ellipse id="Ellipse_34" data-name="Ellipse 34" cx="0.345" cy="0.345" rx="0.345" ry="0.345" transform="translate(14.797 10.761)" fill="#828282"/>
      <ellipse id="Ellipse_35" data-name="Ellipse 35" cx="0.345" cy="0.345" rx="0.345" ry="0.345" transform="translate(14.797 9.416)" fill="#828282"/>
      <ellipse id="Ellipse_36" data-name="Ellipse 36" cx="0.345" cy="0.345" rx="0.345" ry="0.345" transform="translate(14.797 8.071)" fill="#828282"/>
      <ellipse id="Ellipse_37" data-name="Ellipse 37" cx="0.345" cy="0.345" rx="0.345" ry="0.345" transform="translate(14.797 6.726)" fill="#828282"/>
      <ellipse id="Ellipse_38" data-name="Ellipse 38" cx="0.345" cy="0.345" rx="0.345" ry="0.345" transform="translate(14.797 5.381)" fill="#828282"/>
      <ellipse id="Ellipse_39" data-name="Ellipse 39" cx="0.345" cy="0.345" rx="0.345" ry="0.345" transform="translate(14.797 4.035)" fill="#828282"/>
    </g>
  </g>
</svg>
