<svg width="250" height="253" viewBox="0 0 250 253" fill="none" xmlns="http://www.w3.org/2000/svg">
<path d="M43.3802 94.0321H6.10352e-05V105.817H28.3351C30.9429 159.98 68.3718 193.915 86.7603 204.112C105.416 197.693 116.266 211.133 119.358 218.656C129.99 223.872 152.04 223.504 161.735 222.668C173.019 202.357 192.327 207.623 198.345 212.136C223.822 199.9 238.549 182.631 242.728 175.527L234.203 165.496C187.462 222.668 126.63 210.548 102.056 197.342C50.1004 173.27 41.2906 118.439 43.3802 94.0321Z" fill="#EE5A2F"/>
<circle cx="148.195" cy="101.805" r="101.805" fill="#EE5A2F"/>
<path fill-rule="evenodd" clip-rule="evenodd" d="M95.7871 247.242C107.005 247.242 116.098 238.148 116.098 226.931C116.098 215.713 107.005 206.62 95.7871 206.62C84.5697 206.62 75.4762 215.713 75.4762 226.931C75.4762 238.148 84.5697 247.242 95.7871 247.242ZM95.7872 232.698C98.9723 232.698 101.554 230.116 101.554 226.931C101.554 223.746 98.9723 221.164 95.7872 221.164C92.602 221.164 90.0199 223.746 90.0199 226.931C90.0199 230.116 92.602 232.698 95.7872 232.698Z" fill="#EE5A2F"/>
<path fill-rule="evenodd" clip-rule="evenodd" d="M184.805 252.758C196.022 252.758 205.116 243.665 205.116 232.447C205.116 221.23 196.022 212.136 184.805 212.136C173.587 212.136 164.494 221.23 164.494 232.447C164.494 243.665 173.587 252.758 184.805 252.758ZM184.805 238.215C187.99 238.215 190.572 235.633 190.572 232.447C190.572 229.262 187.99 226.68 184.805 226.68C181.619 226.68 179.037 229.262 179.037 232.447C179.037 235.633 181.619 238.215 184.805 238.215Z" fill="#EE5A2F"/>
<path d="M109.906 66.9009L79.2375 142.41H98.978L123.195 85.5224L136.076 105.167L146.298 88.5919L130.147 64.8545C121.151 52.372 112.359 59.9434 109.906 66.9009Z" fill="white"/>
<path d="M132.191 122.97L120.946 108.237L112.768 128.495L121.764 138.318C127.898 146.503 137.098 146.094 140.983 139.341L187.189 66.9009C180.81 53.8044 171.037 58.7156 167.562 64.8545L132.191 122.97Z" fill="white"/>
<path d="M217.653 142.41L190.256 73.2445L177.375 93.2984L197.207 142.41H217.653Z" fill="white"/>
<rect x="3.25995" y="110.331" width="23.5707" height="4.51354" fill="#EE5A2F"/>
<rect x="8.27472" y="119.358" width="18.5557" height="4.51354" fill="#EE5A2F"/>
</svg>
