<svg width="536" height="534" fill="none" xmlns="http://www.w3.org/2000/svg"><rect x="12" y="11" width="512" height="512" rx="256" fill="#fff"/><path fill-rule="evenodd" clip-rule="evenodd" d="M263.819 533.809c147.733 0 269.474-119.374 271.915-266.629C538.176 119.925 420.395.55 272.662.55S3.188 119.926.747 267.18c-2.442 147.255 115.339 266.629 263.072 266.629Zm7.784-399.944c-21.478 0-51.405 12.244-66.843 27.347l-41.93 41.02h205.604l69.882-68.367H271.603Zm59.772 239.283c-15.438 15.103-45.365 27.346-66.844 27.346H97.818l69.883-68.366h205.603l-41.929 41.02Zm69.09-136.733H127.963l-13.084 12.819c-30.933 27.346-22.247 48.711 20.437 48.711h273.239l13.089-12.819c30.633-27.185 21.505-48.711-21.179-48.711Z" fill="#4338CA"/></svg>