<svg width="552" height="144" fill="none" xmlns="http://www.w3.org/2000/svg"><g filter="url(#a)"><g clip-path="url(#b)"><rect x="4.061" y="4" width="136" height="136" rx="36.615" fill="#D2F059"/><g filter="url(#c)"><path fill-rule="evenodd" clip-rule="evenodd" d="M72.05 99.42c15.144 0 27.418-12.276 27.418-27.419S87.194 44.582 72.05 44.582 44.632 56.858 44.632 72.001 56.906 99.42 72.05 99.42Zm0 20.967c23.13 0 42.471-16.231 47.252-37.925h12.9V61.538h-12.901c-4.781-21.693-24.12-37.923-47.25-37.923s-42.47 16.23-47.252 37.924H11.897V82.46h12.902c4.78 21.695 24.12 37.926 47.251 37.926Z" fill="url(#d)"/></g></g></g><path fill-rule="evenodd" clip-rule="evenodd" d="M200.52 95.289c11.828 0 21.416-9.588 21.416-21.416 0-11.828-9.588-21.416-21.416-21.416-11.827 0-21.416 9.588-21.416 21.416 0 11.828 9.589 21.416 21.416 21.416Zm0 16.377c20.873 0 37.794-16.92 37.794-37.793 0-20.873-16.921-37.793-37.794-37.793-20.872 0-37.793 16.92-37.793 37.793 0 20.872 16.921 37.793 37.793 37.793ZM247.14 84.466l.002.234v-4.767 4.102c0 15.24 12.338 27.599 27.571 27.631h.121a27.515 27.515 0 0 0 14.965-4.438l-7.662-12.602a12.839 12.839 0 0 1-7.364 2.307c-7.122 0-12.897-5.775-12.897-12.898V64.067h23.798V49.333h-23.798V48.2h-.002V26.667h-14.737v22.666h-7.93v14.734h7.93l.003 20.4ZM297.027 84.466v.234-4.767h.002v4.102c0 15.242 12.341 27.602 27.576 27.631H324.713a27.497 27.497 0 0 0 14.971-4.438l-7.66-12.602a12.841 12.841 0 0 1-7.364 2.307c-7.124 0-12.899-5.775-12.899-12.898V64.067h23.798V49.333h-23.798V26.667h-14.74v22.666h-7.928v14.734h7.928l.006 20.4ZM376.408 95.289c11.829 0 21.416-9.588 21.416-21.416 0-11.828-9.587-21.416-21.416-21.416-11.828 0-21.415 9.588-21.415 21.416 0 11.828 9.587 21.416 21.415 21.416Zm0 16.377c20.872 0 37.793-16.92 37.793-37.793 0-20.873-16.921-37.793-37.793-37.793S338.616 53 338.616 73.873c0 20.872 16.92 37.793 37.792 37.793Z" fill="#172A39"/><path d="M419.466 111.585v-84.83H434.8v47c3.624-.764 7.068-2.254 10.331-4.47 3.263-2.293 6.09-5.235 8.482-8.827 2.392-3.592 3.479-6.374 4.421-11.036h16.313c-1.161 4.89-2.464 8.093-5.074 12.297-2.537 4.203-5.51 7.871-8.918 11.005-3.408 3.133-6.96 5.464-10.656 6.992 2.827.841 5.655 2.293 8.482 4.357 2.827 1.987 5.472 4.432 7.937 7.336a45.45 45.45 0 0 1 6.308 9.4 35.937 35.937 0 0 1 3.481 10.776h-16.313c-.724-3.516-1.921-6.687-3.589-9.515-1.668-2.904-3.624-5.426-5.873-7.566a28.167 28.167 0 0 0-7.285-5.388c-2.61-1.375-5.292-2.216-8.047-2.522v24.991h-15.334ZM480.322 26.667h15.865V27.8c0 8.763-7.103 15.866-15.865 15.866v-17ZM496.189 49.333h-15.867v62.333h15.867V49.333Z" fill="#172A39"/><path fill-rule="evenodd" clip-rule="evenodd" d="M508.514 84.466v.234-4.767 4.102c0 15.24 12.34 27.599 27.571 27.631h.121a27.505 27.505 0 0 0 14.965-4.438l-7.662-12.602a12.839 12.839 0 0 1-7.364 2.307c-7.122 0-12.897-5.775-12.897-12.898V64.067h23.798V49.333h-23.798V48.2h-.002V26.667h-14.737v22.666h-7.929v14.734h7.929l.005 20.4Z" fill="#172A39"/><defs><filter id="a" x=".138" y=".077" width="143.846" height="143.846" filterUnits="userSpaceOnUse" color-interpolation-filters="sRGB"><feFlood flood-opacity="0" result="BackgroundImageFix"/><feColorMatrix in="SourceAlpha" values="0 0 0 0 0 0 0 0 0 0 0 0 0 0 0 0 0 0 127 0" result="hardAlpha"/><feMorphology radius="3.923" operator="dilate" in="SourceAlpha" result="effect1_dropShadow_94_4"/><feOffset/><feComposite in2="hardAlpha" operator="out"/><feColorMatrix values="0 0 0 0 0.777287 0 0 0 0 0.9125 0 0 0 0 0.231927 0 0 0 1 0"/><feBlend in2="BackgroundImageFix" result="effect1_dropShadow_94_4"/><feBlend in="SourceGraphic" in2="effect1_dropShadow_94_4" result="shape"/></filter><filter id="c" x="-10.435" y="16.171" width="164.97" height="141.437" filterUnits="userSpaceOnUse" color-interpolation-filters="sRGB"><feFlood flood-opacity="0" result="BackgroundImageFix"/><feColorMatrix in="SourceAlpha" values="0 0 0 0 0 0 0 0 0 0 0 0 0 0 0 0 0 0 127 0" result="hardAlpha"/><feOffset dy="14.888"/><feGaussianBlur stdDeviation="11.166"/><feComposite in2="hardAlpha" operator="out"/><feColorMatrix values="0 0 0 0 0 0 0 0 0 0 0 0 0 0 0 0 0 0 0.06 0"/><feBlend in2="BackgroundImageFix" result="effect1_dropShadow_94_4"/><feColorMatrix in="SourceAlpha" values="0 0 0 0 0 0 0 0 0 0 0 0 0 0 0 0 0 0 127 0" result="hardAlpha"/><feOffset dx="-3.35" dy="11.166"/><feGaussianBlur stdDeviation="6.514"/><feComposite in2="hardAlpha" operator="out"/><feColorMatrix values="0 0 0 0 0 0 0 0 0 0 0 0 0 0 0 0 0 0 0.04 0"/><feBlend in2="effect1_dropShadow_94_4" result="effect2_dropShadow_94_4"/><feColorMatrix in="SourceAlpha" values="0 0 0 0 0 0 0 0 0 0 0 0 0 0 0 0 0 0 127 0" result="hardAlpha"/><feOffset dy="3.722"/><feGaussianBlur stdDeviation="3.722"/><feComposite in2="hardAlpha" operator="out"/><feColorMatrix values="0 0 0 0 0 0 0 0 0 0 0 0 0 0 0 0 0 0 0.03 0"/><feBlend in2="effect2_dropShadow_94_4" result="effect3_dropShadow_94_4"/><feColorMatrix in="SourceAlpha" values="0 0 0 0 0 0 0 0 0 0 0 0 0 0 0 0 0 0 127 0" result="hardAlpha"/><feOffset dy="3.722"/><feGaussianBlur stdDeviation="1.861"/><feComposite in2="hardAlpha" operator="out"/><feColorMatrix values="0 0 0 0 0 0 0 0 0 0 0 0 0 0 0 0 0 0 0.08 0"/><feBlend in2="effect3_dropShadow_94_4" result="effect4_dropShadow_94_4"/><feBlend in="SourceGraphic" in2="effect4_dropShadow_94_4" result="shape"/></filter><linearGradient id="d" x1="72.049" y1="120.387" x2="72.049" y2="23.615" gradientUnits="userSpaceOnUse"><stop stop-color="#072F50" stop-opacity=".95"/><stop offset="1" stop-color="#172A39" stop-opacity=".75"/></linearGradient><clipPath id="b"><rect x="4.061" y="4" width="136" height="136" rx="36.615" fill="#fff"/></clipPath></defs></svg>