<svg width="256" height="256" fill="none" xmlns="http://www.w3.org/2000/svg"><g clip-path="url(#a)"><path fill-rule="evenodd" clip-rule="evenodd" d="M5.3 201.594V4h98.443v200.072h-.062c-1.291 26.033-22.806 46.743-49.16 46.743-26.352 0-47.868-20.71-49.16-46.743h-.06v-2.478Z" fill="#fff"/><path fill-rule="evenodd" clip-rule="evenodd" d="M5.361 204.072c1.292 26.033 22.808 46.743 49.16 46.743 26.353 0 47.869-20.71 49.16-46.743h.062V4H5.3v200.072h.061Zm6.313-1.394.054 1.079c1.123 22.656 19.855 40.684 42.794 40.684 22.938 0 41.67-18.028 42.793-40.684l.054-1.079V10.374H11.674v192.304Z" fill="#183650"/><path fill-rule="evenodd" clip-rule="evenodd" d="M85.321 200.177c.005.235.008.471.008.708 0 17.015-13.793 30.808-30.807 30.808-17.015 0-30.808-13.793-30.808-30.808 0-.237.003-.473.008-.708h-.008V23.122h61.615v177.055h-.008Z" fill="#E83D62"/><path fill-rule="evenodd" clip-rule="evenodd" d="M25.065 164.673 173.857 34.657l64.775 74.129L89.84 238.802l-1.867 1.631-.04-.046c-20.453 16.157-50.205 13.582-67.546-6.262-17.34-19.844-15.902-49.673 2.851-67.775l-.04-.046 1.867-1.631Z" fill="#fff"/><path fill-rule="evenodd" clip-rule="evenodd" d="M23.238 166.35c-18.753 18.102-20.19 47.931-2.85 67.775 17.34 19.844 47.092 22.419 67.545 6.262l.04.046 150.659-131.647-64.775-74.13L23.198 166.305l.04.046Zm5.204 3.836-.777.75c-16.321 15.754-17.571 41.722-2.478 58.995 15.094 17.273 40.995 19.516 58.795 5.454l.847-.669L229.638 108.18l-56.387-64.53L28.442 170.187Z" fill="#183650"/><path fill-rule="evenodd" clip-rule="evenodd" d="M78.785 223.998c-.174.159-.35.316-.528.472-12.813 11.196-32.275 9.885-43.47-2.927-11.196-12.813-9.885-32.275 2.927-43.47.178-.156.358-.31.539-.46l-.005-.006L171.573 61.105l40.542 46.397L78.79 224.004l-.005-.006Z" fill="#50BF9F"/><path fill-rule="evenodd" clip-rule="evenodd" d="M57.898 156.02h188.886v92.945H55.528v-.058c-24.885-1.219-44.682-21.533-44.682-46.415 0-24.881 19.797-45.195 44.683-46.415v-.057h2.37Z" fill="#fff"/><path fill-rule="evenodd" clip-rule="evenodd" d="M51.267 154.204c-25.945 1.295-46.584 22.868-46.584 49.291s20.64 47.996 46.584 49.291v.061h199.395v-98.705H51.267v.062Zm1.39 6.329-1.075.054c-22.58 1.127-40.547 19.908-40.547 42.908s17.967 41.781 40.546 42.908l1.076.053h191.652v-85.923H52.657Z" fill="#183650"/><path fill-rule="evenodd" clip-rule="evenodd" d="M57.703 237.179c-.235.006-.472.001-.708.001-17.015.015-33.203-16.149-33.218-33.164-.015-17.015 16.15-33.203 33.164-33.218.237 0 .473-.005.708 0l177.055-.155.054 66.382-177.055.154Z" fill="#F1F1F1"/><path d="M62.923 202.193c0 6.49-5.26 11.751-11.75 11.751s-11.75-5.261-11.75-11.751c0-6.489 5.26-11.75 11.75-11.75s11.75 5.261 11.75 11.75Z" fill="#183650"/><path d="M116.744 201.819c0 10.816-8.768 19.585-19.584 19.585-10.816 0-19.584-8.769-19.584-19.585s8.768-19.584 19.584-19.584c10.816 0 19.584 8.768 19.584 19.584ZM169.187 201.819c0 10.816-8.771 19.585-19.59 19.585-10.82 0-19.59-8.769-19.59-19.585s8.77-19.584 19.59-19.584c10.819 0 19.59 8.768 19.59 19.584ZM219.234 201.819c0 10.816-8.77 19.585-19.59 19.585-10.819 0-19.59-8.769-19.59-19.585s8.771-19.584 19.59-19.584c10.82 0 19.59 8.768 19.59 19.584Z" fill="#F26051"/><path d="M96.618 208.736c-2.733 0-4.886-.842-6.459-2.526l1.55-2.145c1.366 1.462 3.042 2.193 5.028 2.193 1.064 0 1.859-.215 2.383-.644.54-.429.81-.937.81-1.525 0-.604-.317-1.081-.953-1.43-.635-.366-1.406-.652-2.312-.858a37.243 37.243 0 0 1-2.74-.739 5.262 5.262 0 0 1-2.312-1.454c-.636-.683-.953-1.565-.953-2.645 0-1.335.532-2.439 1.596-3.313 1.08-.889 2.479-1.334 4.195-1.334 2.447 0 4.433.738 5.958 2.216l-1.597 2.073c-1.207-1.207-2.74-1.811-4.6-1.811-.826 0-1.485.183-1.978.548-.476.35-.715.827-.715 1.43 0 .397.167.731.501 1.001.35.27.794.493 1.335.668.54.158 1.136.317 1.787.476.667.159 1.327.358 1.978.596.667.222 1.271.5 1.811.834a3.79 3.79 0 0 1 1.311 1.382c.35.588.524 1.287.524 2.098 0 1.43-.516 2.605-1.549 3.527-1.032.921-2.566 1.382-4.6 1.382ZM157.747 208.45h-2.788v-11.797l-4.886 11.797h-1.191l-4.862-11.797v11.797h-2.788v-15.896h3.932l4.314 10.463 4.337-10.463h3.932v15.896ZM205.841 208.45h-9.795v-15.896h2.788v13.442h7.007v2.454Z" fill="#fff"/></g><defs><clipPath id="a"><path fill="#fff" d="M0 0h256v256H0z"/></clipPath></defs></svg>