<svg width="40" height="40" fill="none" xmlns="http://www.w3.org/2000/svg"><rect width="40" height="40" rx="2" fill="#F35E33"/><path fill-rule="evenodd" clip-rule="evenodd" d="M28.3 9.608A.846.846 0 0 1 29.11 9h3.044a.845.845 0 1 1 0 1.691h-2.41l-3.611 12.34c.324.11.625.282.882.532.532.516.743 1.233.743 2.009 0 .774-.209 1.506-.705 2.054-.465.513-1.102.775-1.809.815a2.536 2.536 0 1 1-4.782.005h-2.994a2.536 2.536 0 1 1-2.392-1.691h9.976c.401 0 .62-.124.748-.265.138-.152.267-.434.267-.918 0-.483-.127-.697-.23-.796-.106-.103-.326-.22-.785-.22H13.211c-.671 0-1.263-.439-1.457-1.082L9.08 14.61a1.86 1.86 0 0 1 1.781-2.397h16.676l.762-2.605Zm-1.258 4.296h-2.913l-.272 1.86h2.64l.545-1.86Zm-1.04 3.55H23.61l-.273 1.86h2.121l.545-1.86Zm-1.039 3.552H23.09l-.272 1.86h1.601l.544-1.86Zm-3.854 1.86.272-1.86h-1.909v1.86h1.637Zm-3.328 0v-1.86h-1.804l.443 1.86h1.361Zm-3.1 0-.442-1.86h-1.463l.56 1.86h1.346Zm-2.415-3.551h1.57l-.443-1.86h-1.688l.56 1.86Zm-1.071-3.551h1.796l-.443-1.86H10.86a.17.17 0 0 0-.162.218l.496 1.642Zm3.091-1.86.443 1.86h3.052v-1.86h-3.495Zm5.186 0v1.86h2.676l.272-1.86h-2.948Zm2.429 3.55h-2.429v1.86h2.156l.273-1.86Zm-4.12 1.86v-1.86h-2.65l.444 1.86h2.206Zm-2.705 9.132a.845.845 0 1 0 0 1.691.845.845 0 0 0 0-1.69Zm7.778 0a.846.846 0 1 0 0 1.691.846.846 0 0 0 0-1.69Z" fill="#fff"/></svg>