<svg width="319" height="54" viewBox="0 0 319 54" fill="none" xmlns="http://www.w3.org/2000/svg">
<g clip-path="url(#clip0_1221_32544)">
<mask id="mask0_1221_32544" style="mask-type:luminance" maskUnits="userSpaceOnUse" x="0" y="0" width="319" height="54">
<path d="M318.533 0H0V54H318.533V0Z" fill="white"/>
</mask>
<g mask="url(#mask0_1221_32544)">
<path d="M9.25927 20.0891H0V22.6069H6.04798C6.60457 34.1785 14.5937 41.4285 18.5185 43.6071C22.5006 42.2357 24.8162 45.1071 25.4764 46.7143C27.7458 47.8285 32.4521 47.75 34.5216 47.5714C36.9301 43.2321 41.0513 44.3571 42.3358 45.3215C47.7735 42.7071 50.9171 39.0178 51.8091 37.5L49.9894 35.3571C40.0129 47.5714 27.0285 44.9822 21.7834 42.1607C10.6937 37.0178 8.81328 25.3034 9.25927 20.0891Z" fill="#EE5A2F"/>
<path d="M31.6315 43.5003C43.6326 43.5003 53.3613 33.7625 53.3613 21.7502C53.3613 9.73789 43.6326 0 31.6315 0C19.6304 0 9.90161 9.73789 9.90161 21.7502C9.90161 33.7625 19.6304 43.5003 31.6315 43.5003Z" fill="#EE5A2F"/>
<path fill-rule="evenodd" clip-rule="evenodd" d="M20.4453 52.8207C22.8397 52.8207 24.7806 50.878 24.7806 48.4815C24.7806 46.0849 22.8397 44.1421 20.4453 44.1421C18.051 44.1421 16.1101 46.0849 16.1101 48.4815C16.1101 50.878 18.051 52.8207 20.4453 52.8207ZM20.4454 49.7135C21.1252 49.7135 21.6764 49.1619 21.6764 48.4815C21.6764 47.8009 21.1252 47.2493 20.4454 47.2493C19.7655 47.2493 19.2143 47.8009 19.2143 48.4815C19.2143 49.1619 19.7655 49.7135 20.4454 49.7135Z" fill="#EE5A2F"/>
<path fill-rule="evenodd" clip-rule="evenodd" d="M39.4456 54C41.8399 54 43.7809 52.0572 43.7809 49.6607C43.7809 47.2641 41.8399 45.3213 39.4456 45.3213C37.0513 45.3213 35.1104 47.2641 35.1104 49.6607C35.1104 52.0572 37.0513 54 39.4456 54ZM39.4455 50.8928C40.1254 50.8928 40.6766 50.3412 40.6766 49.6607C40.6766 48.9801 40.1254 48.4285 39.4455 48.4285C38.7657 48.4285 38.2145 48.9801 38.2145 49.6607C38.2145 50.3412 38.7657 50.8928 39.4455 50.8928Z" fill="#EE5A2F"/>
<path d="M23.4588 14.2924L16.9128 30.4244H21.1264L26.2954 18.2707L29.0447 22.4677L31.2267 18.9265L27.7791 13.8551C25.859 11.1883 23.9826 12.8059 23.4588 14.2924Z" fill="white"/>
<path d="M28.2156 26.2716L25.8154 23.1239L24.0698 27.452L25.99 29.5505C27.2992 31.2992 29.2629 31.2117 30.092 29.7691L39.9546 14.2927C38.5931 11.4947 36.507 12.544 35.7653 13.8555L28.2156 26.2716Z" fill="white"/>
<path d="M46.4569 30.4249L40.6093 15.6479L37.8599 19.9324L42.093 30.4249H46.4569Z" fill="white"/>
<path d="M5.72686 23.5718H0.695801V24.5361H5.72686V23.5718Z" fill="#EE5A2F"/>
<path d="M5.72697 25.499H1.76636V26.4633H5.72697V25.499Z" fill="#EE5A2F"/>
<path d="M64.9194 44.1629V11.9529H70.9277L80.5767 29.6753L90.0898 11.9529H95.9617V44.1629H92.0017V16.1443L81.3964 35.7346H79.5758L68.8795 16.1443V44.1629H64.9194ZM113.46 44.4364C110.941 44.4364 108.832 43.9201 107.133 42.8873C105.434 41.8243 104.159 40.3665 103.31 38.5137C102.491 36.6609 102.081 34.55 102.081 32.181C102.081 29.7816 102.506 27.6707 103.355 25.8484C104.205 23.9956 105.479 22.5377 107.179 21.4747C108.878 20.4117 111.002 19.8801 113.551 19.8801C116.07 19.8801 118.163 20.4117 119.832 21.4747C121.531 22.5377 122.79 23.9956 123.61 25.8484C124.459 27.6707 124.885 29.7816 124.885 32.181C124.885 34.55 124.459 36.6609 123.61 38.5137C122.76 40.3665 121.486 41.8243 119.787 42.8873C118.118 43.9201 116.01 44.4364 113.46 44.4364ZM113.46 41.0195C115.22 41.0195 116.646 40.6245 117.739 39.8349C118.861 39.0452 119.68 37.9821 120.196 36.6458C120.743 35.3094 121.016 33.8212 121.016 32.181C121.016 30.5409 120.743 29.0526 120.196 27.7162C119.68 26.3799 118.861 25.3168 117.739 24.5271C116.646 23.7374 115.22 23.3426 113.46 23.3426C111.73 23.3426 110.304 23.7374 109.182 24.5271C108.089 25.3168 107.27 26.3799 106.724 27.7162C106.207 29.0526 105.95 30.5409 105.95 32.181C105.95 33.8212 106.207 35.3094 106.724 36.6458C107.27 37.9821 108.089 39.0452 109.182 39.8349C110.304 40.6245 111.73 41.0195 113.46 41.0195ZM139.665 44.4364C137.267 44.4364 135.296 43.9048 133.747 42.8418C132.2 41.7483 131.047 40.2905 130.289 38.4681C129.53 36.6154 129.151 34.5348 129.151 32.2266C129.151 29.9183 129.53 27.8378 130.289 25.985C131.047 24.1019 132.216 22.6136 133.793 21.5202C135.371 20.4268 137.389 19.8801 139.847 19.8801C140.787 19.8801 141.728 20.0017 142.669 20.2445C143.64 20.4572 144.551 20.8065 145.4 21.2925C146.25 21.748 146.977 22.3706 147.585 23.1603V11.9529H151.454V44.1629H147.766L147.585 40.5638C147.039 41.475 146.34 42.2191 145.491 42.7963C144.671 43.3429 143.762 43.7529 142.76 44.0263C141.758 44.2996 140.727 44.4364 139.665 44.4364ZM140.211 41.0195C141.82 41.0195 143.17 40.6094 144.262 39.7894C145.355 38.9692 146.189 37.8759 146.765 36.5091C147.342 35.1423 147.631 33.654 147.631 32.0444C147.631 30.3738 147.342 28.8856 146.765 27.5795C146.22 26.2735 145.4 25.2409 144.308 24.4816C143.215 23.7223 141.835 23.3426 140.165 23.3426C138.436 23.3426 137.04 23.7374 135.978 24.5271C134.946 25.3168 134.188 26.395 133.702 27.7618C133.247 29.0982 133.02 30.6016 133.02 32.2721C133.02 33.487 133.142 34.626 133.384 35.689C133.657 36.7217 134.066 37.6481 134.613 38.4681C135.189 39.2577 135.932 39.8805 136.842 40.336C137.753 40.7917 138.876 41.0195 140.211 41.0195ZM167.909 44.4364C165.36 44.4364 163.251 43.9201 161.581 42.8873C159.912 41.8243 158.668 40.3665 157.849 38.5137C157.031 36.6609 156.621 34.55 156.621 32.181C156.621 29.7816 157.046 27.6707 157.896 25.8484C158.775 23.9956 160.049 22.5377 161.718 21.4747C163.387 20.4117 165.436 19.8801 167.863 19.8801C169.745 19.8801 171.353 20.2445 172.688 20.9735C174.054 21.672 175.176 22.6136 176.056 23.7981C176.936 24.9827 177.573 26.2887 177.968 27.7162C178.362 29.1134 178.529 30.5257 178.468 31.9532C178.438 32.2266 178.408 32.4999 178.378 32.7732C178.378 33.0467 178.362 33.32 178.331 33.5933H160.535C160.656 34.9905 161.006 36.2509 161.581 37.3747C162.158 38.4985 162.977 39.3945 164.04 40.0627C165.101 40.7005 166.422 41.0195 167.999 41.0195C168.788 41.0195 169.577 40.9283 170.366 40.746C171.186 40.5335 171.914 40.1842 172.552 39.6982C173.219 39.2122 173.689 38.5592 173.962 37.7392H177.922C177.558 39.2882 176.875 40.5638 175.875 41.5661C174.873 42.538 173.674 43.267 172.278 43.7529C170.882 44.2086 169.425 44.4364 167.909 44.4364ZM160.626 30.2219H174.509C174.478 28.8552 174.175 27.6555 173.599 26.6228C173.022 25.5901 172.233 24.7853 171.231 24.2082C170.26 23.6311 169.092 23.3426 167.726 23.3426C166.24 23.3426 164.981 23.6615 163.949 24.2993C162.947 24.9371 162.173 25.7724 161.627 26.805C161.081 27.8378 160.747 28.9768 160.626 30.2219ZM183.623 44.1629V20.1535H187.355L187.538 23.8893C188.143 22.9478 188.842 22.1885 189.631 21.6113C190.45 21.0342 191.345 20.609 192.317 20.3357C193.318 20.032 194.395 19.8801 195.548 19.8801C195.76 19.8801 195.957 19.8801 196.139 19.8801C196.352 19.8801 196.564 19.8801 196.777 19.8801V23.5248H195.366C193.484 23.5248 191.952 23.9349 190.768 24.7549C189.616 25.5446 188.782 26.6228 188.265 27.9896C187.75 29.326 187.491 30.8142 187.491 32.4544V44.1629H183.623ZM200.602 44.1629V20.1535H204.335L204.517 23.7981C205.063 22.9174 205.761 22.1885 206.611 21.6113C207.46 21.0342 208.385 20.609 209.387 20.3357C210.419 20.032 211.42 19.8801 212.391 19.8801C214.728 19.8801 216.549 20.3661 217.853 21.338C219.189 22.3099 220.129 23.6311 220.675 25.3016C221.252 26.9417 221.54 28.8096 221.54 30.9054V44.1629H217.671V31.9532C217.671 30.8294 217.595 29.7513 217.443 28.7185C217.322 27.6858 217.049 26.7595 216.624 25.9394C216.23 25.1194 215.654 24.4816 214.895 24.0259C214.136 23.54 213.119 23.2971 211.845 23.2971C210.266 23.2971 208.917 23.7374 207.795 24.6182C206.701 25.499 205.867 26.6835 205.29 28.1718C204.745 29.6601 204.472 31.3306 204.472 33.1833V44.1629H200.602Z" fill="#1F2937"/>
<path d="M254.265 21.5248H250.285C250.05 20.3799 249.638 19.374 249.049 18.5073C248.471 17.6406 247.765 16.913 246.93 16.3245C246.107 15.7253 245.192 15.2759 244.186 14.9763C243.18 14.6767 242.132 14.5269 241.04 14.5269C239.05 14.5269 237.247 15.0298 235.631 16.0356C234.026 17.0414 232.748 18.5234 231.795 20.4815C230.854 22.4396 230.382 24.8418 230.382 27.6881C230.382 30.5343 230.854 32.9364 231.795 34.8946C232.748 36.8527 234.026 38.3346 235.631 39.3405C237.247 40.3463 239.05 40.8492 241.04 40.8492C242.132 40.8492 243.18 40.6994 244.186 40.3998C245.192 40.1002 246.107 39.6561 246.93 39.0676C247.765 38.4684 248.471 37.7354 249.049 36.8687C249.638 35.9913 250.05 34.9855 250.285 33.8513H254.265C253.966 35.5312 253.42 37.0345 252.628 38.3614C251.836 39.6883 250.853 40.8171 249.675 41.748C248.498 42.6682 247.176 43.3691 245.711 43.8505C244.256 44.3321 242.699 44.5728 241.04 44.5728C238.237 44.5728 235.744 43.888 233.56 42.5184C231.378 41.1488 229.66 39.2013 228.409 36.6761C227.156 34.151 226.531 31.1549 226.531 27.6881C226.531 24.2212 227.156 21.2252 228.409 18.6999C229.66 16.1747 231.378 14.2272 233.56 12.8577C235.744 11.4881 238.237 10.8032 241.04 10.8032C242.699 10.8032 244.256 11.0441 245.711 11.5255C247.176 12.007 248.498 12.7132 249.675 13.6441C250.853 14.5644 251.836 15.6879 252.628 17.0146C253.42 18.3308 253.966 19.8342 254.265 21.5248ZM267.891 44.7012C266.328 44.7012 264.911 44.407 263.637 43.8184C262.364 43.2193 261.352 42.3579 260.603 41.2343C259.854 40.1002 259.48 38.7305 259.48 37.1256C259.48 35.7132 259.759 34.5682 260.315 33.6908C260.871 32.8027 261.615 32.1072 262.546 31.6043C263.477 31.1013 264.504 30.7268 265.628 30.4807C266.762 30.224 267.902 30.0207 269.047 29.8709C270.545 29.6783 271.758 29.5338 272.689 29.4375C273.631 29.3306 274.316 29.154 274.744 28.9079C275.183 28.6617 275.402 28.2338 275.402 27.6238V27.4954C275.402 25.9118 274.969 24.6813 274.102 23.8039C273.246 22.9265 271.946 22.4878 270.201 22.4878C268.393 22.4878 266.976 22.8837 265.948 23.6755C264.921 24.4673 264.199 25.3126 263.782 26.2114L260.187 24.9274C260.828 23.4294 261.685 22.2631 262.754 21.4285C263.835 20.5832 265.012 19.9946 266.285 19.663C267.569 19.3205 268.832 19.1493 270.073 19.1493C270.865 19.1493 271.775 19.2456 272.802 19.4383C273.84 19.6201 274.84 20 275.804 20.5778C276.777 21.1557 277.585 22.0276 278.227 23.194C278.868 24.3603 279.19 25.9225 279.19 27.8806V44.1234H275.402V40.785H275.21C274.952 41.32 274.524 41.8924 273.926 42.5023C273.326 43.1123 272.529 43.6312 271.534 44.0592C270.539 44.4873 269.324 44.7012 267.891 44.7012ZM268.469 41.2986C269.967 41.2986 271.229 41.0044 272.257 40.4158C273.294 39.8273 274.075 39.0676 274.599 38.1367C275.134 37.2058 275.402 36.2267 275.402 35.1995V31.7327C275.242 31.9253 274.889 32.1018 274.342 32.2624C273.807 32.4122 273.188 32.5459 272.481 32.6636C271.785 32.7706 271.106 32.8669 270.442 32.9525C269.79 33.0274 269.26 33.0916 268.854 33.1451C267.869 33.2735 266.949 33.4821 266.093 33.7711C265.248 34.0493 264.562 34.4719 264.038 35.039C263.525 35.5954 263.268 36.3551 263.268 37.3181C263.268 38.6342 263.755 39.6294 264.728 40.3035C265.713 40.9669 266.96 41.2986 268.469 41.2986ZM286.555 44.1234V19.4703H290.215V23.194H290.471C290.921 21.9742 291.735 20.9845 292.911 20.2247C294.088 19.465 295.415 19.0852 296.891 19.0852C297.17 19.0852 297.518 19.0905 297.935 19.1012C298.353 19.1119 298.668 19.1279 298.882 19.1493V23.0014C298.753 22.9693 298.459 22.9212 297.999 22.8569C297.55 22.782 297.073 22.7446 296.571 22.7446C295.372 22.7446 294.302 22.9961 293.361 23.4989C292.43 23.9911 291.691 24.676 291.146 25.5534C290.611 26.4201 290.343 27.4098 290.343 28.5226V44.1234H286.555ZM316.091 19.4703V22.6804H303.315V19.4703H316.091ZM307.038 13.5639H310.826V37.0613C310.826 38.1313 310.981 38.9339 311.291 39.4689C311.613 39.9931 312.018 40.3463 312.511 40.5282C313.014 40.6994 313.543 40.785 314.1 40.785C314.517 40.785 314.859 40.7635 315.127 40.7208C315.395 40.6673 315.608 40.6245 315.77 40.5924L316.539 43.995C316.283 44.0913 315.925 44.1877 315.464 44.2839C315.005 44.3909 314.421 44.4444 313.714 44.4444C312.645 44.4444 311.597 44.2144 310.569 43.7543C309.553 43.2942 308.707 42.5933 308.034 41.6517C307.37 40.7101 307.038 39.5223 307.038 38.0885V13.5639Z" fill="#1F2937"/>
<path d="M254.265 21.5256V21.7408H254.522L254.477 21.4881L254.265 21.5256ZM250.285 21.5256L250.074 21.569L250.109 21.7408H250.285V21.5256ZM249.049 18.5082L248.87 18.6276L248.871 18.6291L249.049 18.5082ZM246.93 16.3253L246.804 16.4995L246.806 16.5013L246.93 16.3253ZM235.631 16.0364L235.518 15.8538L235.517 15.8541L235.631 16.0364ZM231.795 20.4823L231.602 20.3883L231.601 20.3891L231.795 20.4823ZM231.795 34.8954L231.601 34.9887L231.602 34.9896L231.795 34.8954ZM235.631 39.3413L235.517 39.5237L235.518 39.524L235.631 39.3413ZM250.285 33.8521V33.6369H250.11L250.074 33.8084L250.285 33.8521ZM254.265 33.8521L254.477 33.89L254.522 33.6369H254.265V33.8521ZM249.675 41.7488L249.808 41.9184L249.809 41.9177L249.675 41.7488ZM249.675 13.6449L249.542 13.8138L249.543 13.8145L249.675 13.6449ZM252.628 17.0155L252.443 17.1258L252.444 17.1265L252.628 17.0155ZM254.265 21.5256V21.3104H250.285V21.5256V21.7408H254.265V21.5256ZM250.285 21.5256L250.495 21.4822C250.255 20.3128 249.833 19.28 249.227 18.3873L249.049 18.5082L248.871 18.6291C249.442 19.4698 249.844 20.4486 250.074 21.569L250.285 21.5256ZM249.049 18.5082L249.229 18.3888C248.636 17.5005 247.911 16.7535 247.055 16.1495L246.93 16.3253L246.806 16.5013C247.619 17.0742 248.306 17.7825 248.87 18.6276L249.049 18.5082ZM246.93 16.3253L247.057 16.1513C246.212 15.5373 245.276 15.0772 244.247 14.7709L244.186 14.9772L244.124 15.1834C245.107 15.4763 246 15.915 246.804 16.4995L246.93 16.3253ZM244.186 14.9772L244.247 14.7709C243.221 14.465 242.151 14.3126 241.04 14.3126V14.5278V14.743C242.111 14.743 243.139 14.89 244.124 15.1834L244.186 14.9772ZM241.04 14.5278V14.3126C239.012 14.3126 237.168 14.8256 235.518 15.8538L235.631 16.0364L235.745 16.2191C237.324 15.2355 239.088 14.743 241.04 14.743V14.5278ZM235.631 16.0364L235.517 15.8541C233.872 16.8844 232.569 18.3994 231.602 20.3883L231.795 20.4823L231.989 20.5765C232.926 18.6491 234.179 17.2001 235.746 16.2188L235.631 16.0364ZM231.795 20.4823L231.601 20.3891C230.642 22.3838 230.167 24.82 230.167 27.6889H230.382H230.598C230.598 24.8654 231.065 22.4979 231.989 20.5765L231.795 20.4823ZM230.382 27.6889H230.167C230.167 30.5577 230.642 32.9939 231.601 34.9887L231.795 34.8954L231.989 34.8021C231.065 32.8807 230.598 30.5124 230.598 27.6889H230.382ZM231.795 34.8954L231.602 34.9896C232.569 36.9783 233.872 38.4934 235.517 39.5237L235.631 39.3413L235.746 39.1589C234.179 38.1776 232.926 36.7295 231.989 34.8021L231.795 34.8954ZM235.631 39.3413L235.518 39.524C237.168 40.5521 239.012 41.0653 241.04 41.0653V40.85V40.6348C239.088 40.6348 237.324 40.1422 235.745 39.1586L235.631 39.3413ZM241.04 40.85V41.0653C242.151 41.0653 243.221 40.9127 244.247 40.6068L244.186 40.4006L244.124 40.1943C243.139 40.4878 242.111 40.6348 241.04 40.6348V40.85ZM244.186 40.4006L244.247 40.6068C245.275 40.3008 246.211 39.8464 247.056 39.2436L246.93 39.0684L246.805 38.8933C246.001 39.4675 245.108 39.9013 244.124 40.1943L244.186 40.4006ZM246.93 39.0684L247.056 39.2436C247.911 38.6291 248.636 37.8769 249.229 36.989L249.049 36.8696L248.87 36.7497C248.306 37.5951 247.618 38.3094 246.805 38.8933L246.93 39.0684ZM249.049 36.8696L249.227 36.9894C249.833 36.0869 250.255 35.0547 250.495 33.8959L250.285 33.8521L250.074 33.8084C249.844 34.918 249.442 35.8975 248.87 36.7497L249.049 36.8696ZM250.285 33.8521V34.0673H254.265V33.8521V33.6369H250.285V33.8521ZM254.265 33.8521L254.054 33.8143C253.758 35.4713 253.221 36.9497 252.443 38.2519L252.628 38.3622L252.813 38.4725C253.619 37.1211 254.173 35.5928 254.477 33.89L254.265 33.8521ZM252.628 38.3622L252.443 38.2519C251.665 39.557 250.697 40.6658 249.542 41.58L249.675 41.7488L249.809 41.9177C251.006 40.97 252.008 39.8211 252.813 38.4725L252.628 38.3622ZM249.675 41.7488L249.543 41.5793C248.386 42.4836 247.086 43.173 245.643 43.6469L245.711 43.8513L245.777 44.0559C247.267 43.5668 248.61 42.8544 249.808 41.9184L249.675 41.7488ZM245.711 43.8513L245.643 43.6469C244.212 44.1206 242.677 44.3584 241.04 44.3584V44.5736V44.7889C242.719 44.7889 244.3 44.545 245.778 44.0557L245.711 43.8513ZM241.04 44.5736V44.3584C238.274 44.3584 235.82 43.6831 233.675 42.3369L233.56 42.5192L233.446 42.7015C235.666 44.0946 238.199 44.7889 241.04 44.7889V44.5736ZM233.56 42.5192L233.675 42.3369C231.528 40.9904 229.837 39.0744 228.601 36.5814L228.409 36.6769L228.216 36.7726C229.484 39.3299 231.226 41.3089 233.446 42.7015L233.56 42.5192ZM228.409 36.6769L228.601 36.5814C227.367 34.092 226.746 31.13 226.746 27.6889H226.531H226.316C226.316 31.1814 226.946 34.2116 228.216 36.7726L228.409 36.6769ZM226.531 27.6889H226.746C226.746 24.2477 227.367 21.2858 228.601 18.7963L228.409 18.7008L228.216 18.6052C226.946 21.1662 226.316 24.1963 226.316 27.6889H226.531ZM228.409 18.7008L228.601 18.7963C229.837 16.3033 231.528 14.3873 233.675 13.0408L233.56 12.8585L233.446 12.6762C231.226 14.0689 229.484 16.0478 228.216 18.6052L228.409 18.7008ZM233.56 12.8585L233.675 13.0408C235.82 11.6946 238.274 11.0193 241.04 11.0193V10.8041V10.5889C238.199 10.5889 235.666 11.2832 233.446 12.6762L233.56 12.8585ZM241.04 10.8041V11.0193C242.677 11.0193 244.212 11.257 245.643 11.7307L245.711 11.5264L245.778 11.322C244.3 10.8327 242.719 10.5889 241.04 10.5889V10.8041ZM245.711 11.5264L245.643 11.7307C247.086 12.2045 248.385 12.8991 249.542 13.8138L249.675 13.6449L249.809 13.4762C248.611 12.5291 247.268 11.8112 245.778 11.322L245.711 11.5264ZM249.675 13.6449L249.543 13.8145C250.697 14.7178 251.665 15.821 252.443 17.1258L252.628 17.0155L252.813 16.9053C252.008 15.5563 251.006 14.4125 249.808 13.4754L249.675 13.6449ZM252.628 17.0155L252.444 17.1265C253.221 18.4175 253.758 19.8955 254.053 21.5632L254.265 21.5256L254.477 21.4881C254.173 19.7745 253.619 18.2458 252.812 16.9045L252.628 17.0155ZM263.637 43.8193L263.545 44.0141L263.546 44.0147L263.637 43.8193ZM265.628 30.4816L265.674 30.6918L265.675 30.6915L265.628 30.4816ZM272.689 29.4384L272.712 29.6524L272.714 29.6522L272.689 29.4384ZM274.743 28.9087L274.638 28.721L274.637 28.7221L274.743 28.9087ZM263.782 26.2122L263.709 26.415L263.894 26.481L263.977 26.3029L263.782 26.2122ZM260.187 24.9282L259.989 24.8434L259.898 25.0539L260.114 25.131L260.187 24.9282ZM266.285 19.6638L266.34 19.872L266.341 19.8717L266.285 19.6638ZM272.802 19.4391L272.762 19.6507L272.764 19.6511L272.802 19.4391ZM275.803 20.5786L275.693 20.7632L275.694 20.7637L275.803 20.5786ZM279.19 44.1243V44.3395H279.405V44.1243H279.19ZM275.402 44.1243H275.187V44.3395H275.402V44.1243ZM275.402 40.7858H275.617V40.5706H275.402V40.7858ZM275.209 40.7858V40.5706H275.074L275.016 40.6927L275.209 40.7858ZM272.257 40.4167L272.15 40.2294L272.149 40.23L272.257 40.4167ZM274.599 38.1375L274.413 38.0303L274.412 38.0319L274.599 38.1375ZM275.402 31.7335H275.617V31.1391L275.236 31.5958L275.402 31.7335ZM274.342 32.2632L274.4 32.4705L274.403 32.4697L274.342 32.2632ZM272.48 32.6645L272.514 32.8771L272.516 32.8767L272.48 32.6645ZM270.442 32.9533L270.467 33.1671L270.47 33.1668L270.442 32.9533ZM266.093 33.7719L266.16 33.9764L266.161 33.9758L266.093 33.7719ZM264.728 40.3043L264.606 40.4812L264.609 40.4828L264.728 40.3043ZM267.891 44.702V44.4868C266.356 44.4868 264.969 44.198 263.727 43.624L263.637 43.8193L263.546 44.0147C264.852 44.6177 266.3 44.9173 267.891 44.9173V44.702ZM263.637 43.8193L263.728 43.6246C262.49 43.0413 261.509 42.2053 260.783 41.1158L260.603 41.2352L260.425 41.3539C261.196 42.5114 262.238 43.3988 263.545 44.0141L263.637 43.8193ZM260.603 41.2352L260.783 41.1158C260.062 40.0228 259.695 38.697 259.695 37.1264H259.48H259.264C259.264 38.7658 259.648 40.1784 260.425 41.3539L260.603 41.2352ZM259.48 37.1264H259.695C259.695 35.7406 259.968 34.6395 260.497 33.8069L260.315 33.6916L260.133 33.5764C259.549 34.4985 259.264 35.6873 259.264 37.1264H259.48ZM260.315 33.6916L260.497 33.8069C261.034 32.9506 261.749 32.2799 262.648 31.7944L262.546 31.6051L262.443 31.4157C261.48 31.9362 260.709 32.6574 260.132 33.5774L260.315 33.6916ZM262.546 31.6051L262.648 31.7944C263.559 31.3019 264.568 30.9341 265.674 30.6918L265.628 30.4816L265.581 30.2714C264.44 30.5214 263.394 30.9025 262.443 31.4157L262.546 31.6051ZM265.628 30.4816L265.675 30.6915C266.803 30.4361 267.936 30.234 269.074 30.0851L269.046 29.8717L269.019 29.6582C267.867 29.8089 266.721 30.0134 265.58 30.2717L265.628 30.4816ZM269.046 29.8717L269.074 30.0851C270.571 29.8927 271.783 29.7485 272.712 29.6524L272.689 29.4384L272.668 29.2242C271.734 29.3209 270.518 29.4655 269.019 29.6582L269.046 29.8717ZM272.689 29.4384L272.714 29.6522C273.663 29.5444 274.384 29.364 274.851 29.0953L274.743 28.9087L274.637 28.7221C274.248 28.9455 273.6 29.1183 272.665 29.2245L272.689 29.4384ZM274.743 28.9087L274.849 29.0964C275.371 28.8036 275.617 28.2928 275.617 27.6247H275.402H275.187C275.187 28.1763 274.994 28.5216 274.638 28.721L274.743 28.9087ZM275.402 27.6247H275.617V27.4963H275.402H275.187V27.6247H275.402ZM275.402 27.4963H275.617C275.617 25.8728 275.172 24.5817 274.255 23.6534L274.102 23.8047L273.948 23.9551C274.765 24.7816 275.187 25.9525 275.187 27.4963H275.402ZM274.102 23.8047L274.256 23.6544C273.345 22.7205 271.979 22.2734 270.201 22.2734V22.4886V22.7039C271.912 22.7039 273.147 23.1341 273.948 23.9551L274.102 23.8047ZM270.201 22.4886V22.2734C268.364 22.2734 266.894 22.6756 265.817 23.5059L265.948 23.6764L266.08 23.8468C267.057 23.0935 268.422 22.7039 270.201 22.7039V22.4886ZM265.948 23.6764L265.817 23.5059C264.771 24.3125 264.022 25.1833 263.586 26.1216L263.782 26.2122L263.977 26.3029C264.376 25.4436 265.071 24.6238 266.08 23.8468L265.948 23.6764ZM263.782 26.2122L263.854 26.0096L260.259 24.7256L260.187 24.9282L260.114 25.131L263.709 26.415L263.782 26.2122ZM260.187 24.9282L260.384 25.013C261.014 23.5417 261.85 22.4072 262.887 21.599L262.754 21.4293L262.622 21.2596C261.518 22.1206 260.642 23.3188 259.989 24.8434L260.187 24.9282ZM262.754 21.4293L262.887 21.599C263.946 20.7711 265.096 20.1961 266.34 19.872L266.285 19.6638L266.231 19.4555C264.928 19.795 263.725 20.3969 262.622 21.2596L262.754 21.4293ZM266.285 19.6638L266.341 19.8717C267.608 19.5338 268.852 19.3654 270.073 19.3654V19.1502V18.9349C268.812 18.9349 267.531 19.109 266.23 19.4558L266.285 19.6638ZM270.073 19.1502V19.3654C270.848 19.3654 271.744 19.4598 272.762 19.6507L272.802 19.4391L272.841 19.2275C271.805 19.0332 270.881 18.9349 270.073 18.9349V19.1502ZM272.802 19.4391L272.764 19.6511C273.775 19.8281 274.751 20.1981 275.693 20.7632L275.803 20.5786L275.914 20.3941C274.93 19.8036 273.904 19.4138 272.839 19.2271L272.802 19.4391ZM275.803 20.5786L275.694 20.7637C276.629 21.3188 277.411 22.16 278.039 23.2986L278.227 23.1948L278.415 23.0911C277.758 21.8971 276.925 20.9942 275.913 20.3935L275.803 20.5786ZM278.227 23.1948L278.039 23.2986C278.656 24.4217 278.975 25.9438 278.975 27.8814H279.19H279.405C279.405 25.903 279.081 24.3006 278.415 23.0911L278.227 23.1948ZM279.19 27.8814H278.975V44.1243H279.19H279.405V27.8814H279.19ZM279.19 44.1243V43.909H275.402V44.1243V44.3395H279.19V44.1243ZM275.402 44.1243H275.617V40.7858H275.402H275.187V44.1243H275.402ZM275.402 40.7858V40.5706H275.209V40.7858V41.001H275.402V40.7858ZM275.209 40.7858L275.016 40.6927C274.773 41.1992 274.361 41.7526 273.772 42.3523L273.926 42.5032L274.078 42.6541C274.688 42.034 275.133 41.4424 275.403 40.879L275.209 40.7858ZM273.926 42.5032L273.772 42.3523C273.197 42.9378 272.424 43.4425 271.448 43.8623L271.533 44.06L271.618 44.2578C272.633 43.8215 273.455 43.2884 274.078 42.6541L273.926 42.5032ZM271.533 44.06L271.448 43.8623C270.487 44.2757 269.304 44.4868 267.891 44.4868V44.702V44.9173C269.345 44.9173 270.59 44.7004 271.618 44.2578L271.533 44.06ZM268.469 41.2994V41.5146C269.993 41.5146 271.296 41.2149 272.363 40.6034L272.257 40.4167L272.149 40.23C271.162 40.7955 269.939 41.0842 268.469 41.0842V41.2994ZM272.257 40.4167L272.362 40.6039C273.431 39.9984 274.241 39.2121 274.787 38.2431L274.599 38.1375L274.412 38.0319C273.908 38.9248 273.158 39.6579 272.15 40.2294L272.257 40.4167ZM274.599 38.1375L274.785 38.2447C275.339 37.2828 275.617 36.2669 275.617 35.2004H275.402H275.187C275.187 36.1881 274.93 37.1305 274.413 38.0303L274.599 38.1375ZM275.402 35.2004H275.617V31.7335H275.402H275.187V35.2004H275.402ZM275.402 31.7335L275.236 31.5958C275.183 31.6599 275.084 31.7361 274.92 31.8179C274.759 31.8986 274.548 31.9787 274.282 32.0567L274.342 32.2632L274.403 32.4697C274.683 32.3873 274.921 32.2987 275.113 32.2029C275.302 32.1081 275.46 31.9998 275.567 31.8713L275.402 31.7335ZM274.342 32.2632L274.285 32.0559C273.759 32.2031 273.147 32.3354 272.445 32.4522L272.48 32.6645L272.516 32.8767C273.228 32.7581 273.857 32.6228 274.4 32.4705L274.342 32.2632ZM272.48 32.6645L272.448 32.4517C271.754 32.5585 271.076 32.6545 270.415 32.7399L270.442 32.9533L270.47 33.1668C271.135 33.0809 271.816 32.9844 272.514 32.8771L272.48 32.6645ZM270.442 32.9533L270.417 32.7395C269.764 32.8145 269.234 32.8788 268.826 32.9325L268.854 33.1459L268.881 33.3593C269.285 33.3061 269.815 33.242 270.467 33.1671L270.442 32.9533ZM268.854 33.1459L268.826 32.9325C267.828 33.0625 266.894 33.2741 266.024 33.568L266.093 33.7719L266.161 33.9758C267.003 33.6919 267.909 33.4861 268.881 33.3593L268.854 33.1459ZM266.093 33.7719L266.026 33.5675C265.151 33.8553 264.433 34.296 263.88 34.8938L264.038 35.0398L264.196 35.186C264.692 34.6495 265.345 34.245 266.16 33.9764L266.093 33.7719ZM264.038 35.0398L263.88 34.8938C263.32 35.4999 263.052 36.3171 263.052 37.3189H263.268H263.483C263.483 36.3948 263.728 35.6927 264.196 35.186L264.038 35.0398ZM263.268 37.3189H263.052C263.052 38.6965 263.567 39.762 264.606 40.4812L264.728 40.3043L264.851 40.1273C263.942 39.4984 263.483 38.5737 263.483 37.3189H263.268ZM264.728 40.3043L264.609 40.4828C265.636 41.1759 266.929 41.5146 268.469 41.5146V41.2994V41.0842C266.991 41.0842 265.789 40.7595 264.849 40.1258L264.728 40.3043ZM286.555 44.1243H286.34V44.3395H286.555V44.1243ZM286.555 19.4712V19.256H286.34V19.4712H286.555ZM290.215 19.4712H290.43V19.256H290.215V19.4712ZM290.215 23.1948H290V23.41H290.215V23.1948ZM290.471 23.1948V23.41H290.622L290.673 23.2693L290.471 23.1948ZM298.882 19.1502H299.097V18.9554L298.904 18.936L298.882 19.1502ZM298.882 23.0023L298.829 23.211L299.097 23.2779V23.0023H298.882ZM297.999 22.8577L297.964 23.0702L297.97 23.0709L297.999 22.8577ZM290.343 44.1243V44.3395H290.558V44.1243H290.343ZM286.555 44.1243H286.77V19.4712H286.555H286.34V44.1243H286.555ZM286.555 19.4712V19.6864H290.215V19.4712V19.256H286.555V19.4712ZM290.215 19.4712H290V23.1948H290.215H290.43V19.4712H290.215ZM290.215 23.1948V23.41H290.471V23.1948V22.9796H290.215V23.1948ZM290.471 23.1948L290.673 23.2693C291.106 22.0967 291.887 21.1428 293.028 20.4063L292.911 20.2255L292.794 20.0448C291.582 20.8276 290.737 21.8534 290.27 23.1204L290.471 23.1948ZM292.911 20.2255L293.028 20.4063C294.169 19.6704 295.454 19.3013 296.891 19.3013V19.086V18.8708C295.376 18.8708 294.008 19.2613 292.794 20.0448L292.911 20.2255ZM296.891 19.086V19.3013C297.168 19.3013 297.513 19.3065 297.93 19.3172L297.935 19.1021L297.94 18.8868C297.522 18.8762 297.172 18.8708 296.891 18.8708V19.086ZM297.935 19.1021L297.93 19.3172C298.345 19.3278 298.655 19.3438 298.861 19.3643L298.882 19.1502L298.904 18.936C298.681 18.9139 298.359 18.8976 297.94 18.8868L297.935 19.1021ZM298.882 19.1502H298.667V23.0023H298.882H299.097V19.1502H298.882ZM298.882 23.0023L298.934 22.7934C298.793 22.758 298.486 22.7084 298.029 22.6446L297.999 22.8577L297.97 23.0709C298.432 23.1356 298.714 23.1823 298.829 23.211L298.882 23.0023ZM297.999 22.8577L298.034 22.6454C297.572 22.5685 297.084 22.5302 296.571 22.5302V22.7454V22.9606C297.062 22.9606 297.527 22.9974 297.964 23.0702L297.999 22.8577ZM296.571 22.7454V22.5302C295.342 22.5302 294.235 22.7884 293.259 23.3099L293.36 23.4998L293.462 23.69C294.369 23.2058 295.403 22.9606 296.571 22.9606V22.7454ZM293.36 23.4998L293.26 23.3095C292.296 23.8192 291.529 24.5302 290.963 25.4406L291.146 25.5542L291.329 25.6678C291.854 24.8235 292.563 24.1648 293.462 23.69L293.36 23.4998ZM291.146 25.5542L290.963 25.4406C290.404 26.3443 290.128 27.3746 290.128 28.5234H290.343H290.558C290.558 27.4468 290.817 26.4974 291.329 25.6678L291.146 25.5542ZM290.343 28.5234H290.128V44.1243H290.343H290.558V28.5234H290.343ZM290.343 44.1243V43.909H286.555V44.1243V44.3395H290.343V44.1243ZM316.09 19.4712H316.306V19.256H316.09V19.4712ZM316.09 22.6813V22.8965H316.306V22.6813H316.09ZM303.315 22.6813H303.099V22.8965H303.315V22.6813ZM303.315 19.4712V19.256H303.099V19.4712H303.315ZM307.038 13.5648V13.3495H306.823V13.5648H307.038ZM310.826 13.5648H311.041V13.3495H310.826V13.5648ZM311.291 39.4697L311.105 39.5777L311.108 39.582L311.291 39.4697ZM312.511 40.529L312.436 40.731L312.441 40.7327L312.511 40.529ZM315.127 40.7217L315.162 40.9343L315.169 40.9327L315.127 40.7217ZM315.77 40.5933L315.98 40.5457L315.933 40.341L315.727 40.3821L315.77 40.5933ZM316.539 43.9959L316.616 44.1973L316.791 44.1315L316.749 43.9483L316.539 43.9959ZM315.464 44.2847L315.42 44.074L315.416 44.0751L315.464 44.2847ZM308.033 41.6525L307.857 41.7765L307.858 41.7778L308.033 41.6525ZM316.09 19.4712H315.875V22.6813H316.09H316.306V19.4712H316.09ZM316.09 22.6813V22.466H303.315V22.6813V22.8965H316.09V22.6813ZM303.315 22.6813H303.53V19.4712H303.315H303.099V22.6813H303.315ZM303.315 19.4712V19.6864H316.09V19.4712V19.256H303.315V19.4712ZM307.038 13.5648V13.78H310.826V13.5648V13.3495H307.038V13.5648ZM310.826 13.5648H310.611V37.0622H310.826H311.041V13.5648H310.826ZM310.826 37.0622H310.611C310.611 38.1459 310.767 38.9939 311.105 39.5777L311.291 39.4697L311.477 39.3618C311.195 38.8755 311.041 38.1184 311.041 37.0622H310.826ZM311.291 39.4697L311.108 39.582C311.449 40.1402 311.891 40.5296 312.436 40.731L312.511 40.529L312.585 40.3271C312.146 40.1648 311.775 39.8477 311.475 39.3573L311.291 39.4697ZM312.511 40.529L312.441 40.7327C312.967 40.9119 313.521 41.001 314.1 41.001V40.7858V40.5706C313.566 40.5706 313.06 40.4886 312.58 40.3253L312.511 40.529ZM314.1 40.7858V41.001C314.524 41.001 314.879 40.9795 315.162 40.9343L315.127 40.7217L315.093 40.5091C314.841 40.5494 314.512 40.5706 314.1 40.5706V40.7858ZM315.127 40.7217L315.169 40.9327C315.437 40.8792 315.651 40.8364 315.812 40.8043L315.77 40.5933L315.727 40.3821C315.566 40.4143 315.352 40.457 315.085 40.5106L315.127 40.7217ZM315.77 40.5933L315.559 40.6407L316.329 44.0433L316.539 43.9959L316.749 43.9483L315.98 40.5457L315.77 40.5933ZM316.539 43.9959L316.464 43.7943C316.222 43.885 315.876 43.9785 315.42 44.074L315.464 44.2847L315.508 44.4954C315.973 44.3982 316.343 44.2992 316.616 44.1973L316.539 43.9959ZM315.464 44.2847L315.416 44.0751C314.977 44.1771 314.412 44.23 313.714 44.23V44.4453V44.6605C314.43 44.6605 315.031 44.6065 315.513 44.4943L315.464 44.2847ZM313.714 44.4453V44.23C312.677 44.23 311.658 44.0071 310.657 43.5586L310.569 43.7551L310.481 43.9512C311.534 44.4231 312.612 44.6605 313.714 44.6605V44.4453ZM310.569 43.7551L310.658 43.5591C309.677 43.1152 308.861 42.4393 308.208 41.5272L308.033 41.6525L307.858 41.7778C308.553 42.749 309.428 43.4748 310.481 43.9512L310.569 43.7551ZM308.033 41.6525L308.209 41.5285C307.577 40.6313 307.253 39.4898 307.253 38.0893H307.038H306.823C306.823 39.5566 307.163 40.7905 307.857 41.7765L308.033 41.6525ZM307.038 38.0893H307.253V13.5648H307.038H306.823V38.0893H307.038Z" fill="#1F2937"/>
</g>
</g>
<defs>
<clipPath id="clip0_1221_32544">
<rect width="318.533" height="54" fill="white"/>
</clipPath>
</defs>
</svg>
