<svg aria-labelledby="loading-aria" preserveAspectRatio="none" xmlns="http://www.w3.org/2000/svg"><rect width="100%" height="100%" clip-path="url(#a)" style="fill:url(#b)"/><defs><linearGradient id="b"><stop offset=".6" stop-color="#ddd"><animate attributeName="offset" values="-2; -2; 1" keyTimes="0; 0.25; 1" dur="2s" repeatCount="indefinite"/></stop><stop offset="1.6" stop-color="#b0b0b0"><animate attributeName="offset" values="-1; -1; 2" keyTimes="0; 0.25; 1" dur="2s" repeatCount="indefinite"/></stop><stop offset="2.6" stop-color="#ddd"><animate attributeName="offset" values="0; 0; 3" keyTimes="0; 0.25; 1" dur="2s" repeatCount="indefinite"/></stop></linearGradient><clipPath xmlns="http://www.w3.org/2000/svg" id="a"><rect rx="0" ry="0" width="NaN" height="NaN"/><rect x="45" y="13" rx="3" ry="3" width="100%" height="15"/><rect x="10" y="70" rx="3" ry="3" width="80%" height="10"/><rect x="10" y="90" rx="3" ry="3" width="70%" height="10"/><rect x="10" y="50" rx="3" ry="3" width="90%" height="10"/><rect x="10" y="9" rx="50" ry="50" width="25" height="25"/><rect x="10" y="195" rx="3" ry="3" width="80%" height="10"/><rect x="10" y="215" rx="3" ry="3" width="70%" height="10"/><rect x="11" y="175" rx="3" ry="3" width="90%" height="10"/><rect x="10" y="120" rx="50" ry="50" width="25" height="25"/><rect x="45" y="250" rx="3" ry="3" width="100%" height="15"/><rect x="12" y="310" rx="3" ry="3" width="100%" height="30"/><rect x="10" y="245" rx="5" ry="5" width="25" height="25"/><rect x="45" y="125" rx="3" ry="3" width="100%" height="15"/><rect x="10" y="160" rx="3" ry="3" width="100%" height="1"/><rect x="10" y="290" rx="3" ry="3" width="100%" height="1"/></clipPath></defs></svg>