<svg width="30" height="30" viewBox="0 0 32 32" aria-hidden="true" fill="#a7aaad" xmlns="http://www.w3.org/2000/svg"><path stroke="#a7aaad" d="M16.338 21.101a1.358 1.358 0 1 0 0 2.717 1.358 1.358 0 0 0 0-2.716zm-4.078 0a1.36 1.36 0 1 0 0 2.718 1.36 1.36 0 1 0 0-2.717zM23.819 8.182a3.044 3.044 0 0 1-.906 1.855 3.045 3.045 0 0 1-2.134.867h-.681a.339.339 0 0 0-.339.339v1.021h2.72a2.719 2.719 0 0 1-2.72 2.719v1.36a4.079 4.079 0 0 1-3.4 4.021 3.715 3.715 0 0 1-.68.061H12.26c-.23 0-.458-.02-.68-.061a4.078 4.078 0 0 1-3.398-4.021c0-2.02 1.47-3.699 3.398-4.025.223-.036.45-.055.68-.055h3.748v2.719H12.26c-.749 0-1.36.611-1.36 1.36s.61 1.36 1.36 1.36h3.419c.749 0 1.36-.611 1.36-1.36v-5.1c0-.861.355-1.636.927-2.194a3.056 3.056 0 0 1 2.132-.866h3.721z"/></svg>