<svg width="20" height="21" viewBox="0 0 20 21" fill="none" xmlns="http://www.w3.org/2000/svg">
<path d="M12.3046 1.82678C11.5863 2.52792 11.1394 3.50335 11.1394 4.5862V10.9999C11.1394 11.9422 10.3714 12.7102 9.42914 12.7102H5.12914C4.18686 12.7102 3.41943 11.9422 3.41943 10.9999C3.41943 10.0577 4.18686 9.28908 5.12914 9.28908H9.84343V5.86906H5.12914C4.84 5.86906 4.55371 5.89249 4.27371 5.9382C1.84857 6.34736 0 8.45936 0 10.9999C0 13.2337 1.428 15.1331 3.41943 15.8354C3.69429 15.9325 3.98 16.0131 4.27371 16.0565C4.55371 16.1079 4.84 16.1336 5.12914 16.1336H9.42914C9.72229 16.1336 10.0063 16.1079 10.284 16.0565C10.5771 16.0131 10.8634 15.9325 11.14 15.8354C13.1314 15.1331 14.56 13.2337 14.56 10.9999V9.28908C16.4509 9.28908 17.9811 7.75822 17.9811 5.86963H14.56V4.58563C14.56 4.34849 14.752 4.15992 14.9857 4.15992H15.8429C16.8857 4.15992 17.8337 3.74678 18.5269 3.06963C19.148 2.46449 19.568 1.6502 19.6663 0.737061H14.9863C13.9463 0.737632 12.9983 1.15363 12.3046 1.82678Z" fill="#F06434"/>
<path d="M5.12915 16.9851C4.18572 16.9851 3.41943 17.7485 3.41943 18.6925C3.41943 19.6354 4.18572 20.4023 5.12915 20.4023C6.07429 20.4023 6.84057 19.6354 6.84057 18.6914C6.84057 17.7485 6.07371 16.9851 5.12915 16.9851Z" fill="#F06434"/>
<path d="M10.2587 16.9851C9.31413 16.9851 8.55127 17.7485 8.55127 18.6925C8.55127 19.6354 9.31413 20.4023 10.2587 20.4023C11.2061 20.4023 11.969 19.6354 11.969 18.6914C11.9684 17.7485 11.2061 16.9851 10.2587 16.9851Z" fill="#F06434"/>
</svg>
