<svg width="20" height="21" viewBox="0 0 20 21" fill="none" xmlns="http://www.w3.org/2000/svg">
<path d="M3.47045 8.0105H0V8.94304H2.26683C2.47545 13.2289 5.46982 15.9142 6.94089 16.7211C8.43341 16.2131 9.30132 17.2766 9.54877 17.8719C10.3993 18.2846 12.1633 18.2555 12.939 18.1894C13.8417 16.5822 15.3864 16.9989 15.8678 17.356C17.9059 16.3877 19.0841 15.0213 19.4185 14.4591L18.7364 13.6654C14.9972 18.1894 10.1305 17.2304 8.16458 16.1853C4.00807 14.2805 3.30329 9.94175 3.47045 8.0105Z" fill="#F06434"/>
<path d="M11.8555 16.6812C16.3536 16.6812 20 13.0745 20 8.62541C20 4.17629 16.3536 0.56958 11.8555 0.56958C7.35735 0.56958 3.71094 4.17629 3.71094 8.62541C3.71094 13.0745 7.35735 16.6812 11.8555 16.6812Z" fill="#F06434"/>
<path fill-rule="evenodd" clip-rule="evenodd" d="M7.66294 20.1336C8.56038 20.1336 9.28784 19.414 9.28784 18.5264C9.28784 17.6388 8.56038 16.9192 7.66294 16.9192C6.76555 16.9192 6.03809 17.6388 6.03809 18.5264C6.03809 19.414 6.76555 20.1336 7.66294 20.1336ZM7.66298 18.9827C7.91777 18.9827 8.12437 18.7784 8.12437 18.5264C8.12437 18.2743 7.91777 18.07 7.66298 18.07C7.40815 18.07 7.20156 18.2743 7.20156 18.5264C7.20156 18.7784 7.40815 18.9827 7.66298 18.9827Z" fill="#F06434"/>
<path fill-rule="evenodd" clip-rule="evenodd" d="M14.7836 20.5701C15.681 20.5701 16.4085 19.8505 16.4085 18.9629C16.4085 18.0753 15.681 17.3557 14.7836 17.3557C13.8862 17.3557 13.1587 18.0753 13.1587 18.9629C13.1587 19.8505 13.8862 20.5701 14.7836 20.5701ZM14.7835 19.4193C15.0384 19.4193 15.245 19.215 15.245 18.9629C15.245 18.7109 15.0384 18.5066 14.7835 18.5066C14.5288 18.5066 14.3222 18.7109 14.3222 18.9629C14.3222 19.215 14.5288 19.4193 14.7835 19.4193Z" fill="#F06434"/>
<path d="M8.79284 5.86338L6.33936 11.8384H7.91864L9.856 7.33687L10.8865 8.89135L11.7043 7.57976L10.4121 5.70144C9.69245 4.71369 8.98914 5.31283 8.79284 5.86338Z" fill="white"/>
<path d="M10.5749 10.2998L9.67525 9.13398L9.021 10.737L9.74068 11.5143C10.2314 12.162 10.9674 12.1295 11.2782 11.5952L14.9747 5.86308C14.4644 4.82679 13.6826 5.2154 13.4045 5.70118L10.5749 10.2998Z" fill="white"/>
<path d="M17.4122 11.8381L15.2204 6.36499L14.1899 7.95187L15.7766 11.8381H17.4122Z" fill="white"/>
<path d="M2.14642 9.30029H0.260742V9.65746H2.14642V9.30029Z" fill="#F06434"/>
<path d="M2.14756 10.0137H0.663086V10.3708H2.14756V10.0137Z" fill="#F06434"/>
</svg>
