<svg width="191" height="162" viewBox="0 0 191 162" fill="none" xmlns="http://www.w3.org/2000/svg">
<g clip-path="url(#clip0_880_16695)">
<mask id="mask0_880_16695" style="mask-type:luminance" maskUnits="userSpaceOnUse" x="0" y="0" width="191" height="162">
<path d="M191 0H0V162H191V0Z" fill="white"/>
</mask>
<g mask="url(#mask0_880_16695)">
<path d="M153.163 75.7822C174.061 75.7822 191.001 58.8177 191.001 37.891C191.001 16.9645 174.061 0 153.163 0C132.265 0 115.322 16.9645 115.322 37.891C115.322 58.8177 132.265 75.7822 153.163 75.7822Z" fill="#F9C1AE"/>
<path d="M156.528 28.2412H18.709V127.377H156.528V28.2412Z" fill="white"/>
<path d="M156.528 128H18.7092C18.367 128 18.0879 127.719 18.0879 127.377V28.2406C18.0879 27.8984 18.367 27.6182 18.7092 27.6182H156.528C156.87 27.6182 157.149 27.8984 157.149 28.2406V127.377C157.149 127.719 156.87 128 156.528 128ZM19.3305 126.754H155.906V28.8633H19.3305V126.754Z" fill="#1A3142"/>
<path d="M29.8668 38.9095C27.884 38.9095 26.2773 37.2985 26.2773 35.3141C26.2773 33.3298 27.884 31.7188 29.8668 31.7188C31.8496 31.7188 33.4562 33.3298 33.4562 35.3141C33.4562 37.2985 31.8496 38.9095 29.8668 38.9095ZM29.8668 32.9717C28.5757 32.9717 27.5272 34.0223 27.5272 35.3219C27.5272 36.6216 28.5757 37.6721 29.8668 37.6721C31.1579 37.6721 32.2063 36.6216 32.2063 35.3219C32.2063 34.0223 31.1579 32.9717 29.8668 32.9717Z" fill="#1A3142"/>
<path d="M40.3978 38.2952C42.0384 38.2952 43.366 36.9642 43.366 35.3225C43.366 33.6806 42.0384 32.3496 40.3978 32.3496C38.7596 32.3496 37.4297 33.6806 37.4297 35.3225C37.4297 36.9642 38.7596 38.2952 40.3978 38.2952Z" fill="#1A3142"/>
<path d="M47.9668 35.3225C47.9668 36.9644 49.2943 38.2952 50.9349 38.2952C52.5755 38.2952 53.9031 36.9644 53.9031 35.3225C53.9031 33.6804 52.5755 32.3496 50.9349 32.3496C49.2943 32.3496 47.9668 33.6804 47.9668 35.3225Z" fill="#F9C1AE"/>
<path d="M136.138 44.1485H24.2658C23.9236 44.1485 23.6445 43.8683 23.6445 43.5258C23.6445 43.1835 23.9236 42.9033 24.2658 42.9033H136.138C136.478 42.9033 136.759 43.1835 136.759 43.5258C136.759 43.8683 136.478 44.1485 136.138 44.1485Z" fill="#1A3142"/>
<path d="M40.3789 47.0361L29.5645 68.3591L133.251 121.078L144.063 99.7555L40.3789 47.0361Z" fill="#FF7C48"/>
<path d="M52.6735 66.7011C50.9407 70.1175 46.7761 71.4791 43.3638 69.7438C39.9515 68.0083 38.5924 63.8372 40.3253 60.4208C42.0581 57.0045 46.2251 55.6425 49.635 57.3781C53.0473 59.1134 54.4064 63.2848 52.6735 66.7011Z" fill="white"/>
<path d="M129.03 106.147C128.936 106.147 128.836 106.124 128.749 106.077L46.2159 64.1161C45.9126 63.9604 45.7888 63.5868 45.9441 63.2754C46.0994 62.9643 46.4732 62.8476 46.7838 63.0032L129.317 104.964C129.62 105.12 129.744 105.493 129.588 105.805C129.479 106.022 129.263 106.147 129.038 106.147H129.03Z" fill="white"/>
<path d="M63.5586 87.8819C62.8499 80.5977 62.5247 76.8233 59.8818 76.9323C57.8528 77.0179 57.7145 80.8312 57.7995 82.9791C57.8237 83.5704 57.1709 83.9518 56.6734 83.6249C51.6059 73.8117 51.0234 72.1543 48.6669 73.0647C47.1379 73.6561 46.6549 75.0413 47.7107 78.123C47.7107 78.123 47.1913 77.2748 46.9413 76.8622C45.2959 74.1776 41.852 76.3565 43.3519 78.8702C45.1308 81.8429 49.4993 87.5783 49.4993 87.5783L46.2278 95.1892L59.6803 99.1504C59.6803 99.1504 63.6896 89.2202 63.5586 87.8819Z" fill="white"/>
<path d="M59.682 99.7741C59.6262 99.7741 59.5655 99.7663 59.5024 99.7507L46.0499 95.7895C45.88 95.7428 45.7392 95.6185 45.6615 95.4551C45.5839 95.2916 45.5839 95.1048 45.6543 94.9413L48.7777 87.6652C47.8603 86.4512 44.3801 81.813 42.8099 79.1904C41.8537 77.5952 42.492 76.0776 43.6108 75.3926C44.4408 74.8869 45.5693 74.8402 46.5085 75.5016C46.477 74.2333 46.9211 73.066 48.4283 72.4822C51.11 71.4472 51.9497 73.0971 56.0052 81.0035L57.0633 83.0582C57.1094 83.0348 57.1628 83.0037 57.1628 83.0037C57.0002 78.7002 57.9248 76.3889 59.8446 76.3111C63.0627 76.1788 63.4267 80.202 64.1354 87.5095L64.1645 87.8206C64.298 89.2059 61.1964 97.0191 60.2401 99.3849C60.1479 99.6262 59.9149 99.7741 59.665 99.7741H59.682ZM47.0764 94.7934L59.3155 98.3966C61.1745 93.7506 62.9996 88.6924 62.9462 87.9374L62.9146 87.6263C62.2375 80.669 61.8565 77.5485 59.9853 77.5485C59.9611 77.5485 59.9368 77.5485 59.9149 77.5485C58.6626 77.6029 58.3204 80.3732 58.4224 82.9492C58.4466 83.4549 58.1821 83.9297 57.738 84.1788C57.2963 84.4276 56.7599 84.4198 56.3328 84.1399C56.2381 84.0776 56.1677 83.9998 56.1144 83.9064L54.9106 81.5717C50.945 73.8597 50.4572 73.0348 48.887 73.6417C48.2487 73.8908 47.0692 74.342 48.2875 77.9141C48.3894 78.2176 48.2487 78.5446 47.9623 78.6769C47.6735 78.809 47.3313 78.708 47.1687 78.4356L46.3993 77.1748C45.7708 76.1554 44.8679 76.0776 44.2539 76.4512C43.6569 76.8168 43.3074 77.603 43.8729 78.5446C45.6227 81.455 49.9427 87.1359 49.9815 87.1904C50.1223 87.3694 50.1465 87.6107 50.0592 87.8128L47.0692 94.7779L47.0764 94.7934Z" fill="#1A3142"/>
<path d="M50.6266 86.5995C50.3791 86.5995 50.1364 86.4438 50.0442 86.1947L47.1295 78.3426C47.013 78.0237 47.1755 77.6657 47.4959 77.5411C47.8211 77.4244 48.1706 77.5878 48.2968 77.9069L51.2091 85.7591C51.3256 86.078 51.163 86.436 50.8451 86.5606C50.7747 86.5839 50.697 86.5995 50.6266 86.5995Z" fill="#1A3142"/>
<path d="M42.9954 92.957C37.7629 103.883 33.7852 111.992 33.7852 111.992L42.527 141.681C48.5361 139.377 51.014 136.21 63.3938 99.0972L42.9954 92.957Z" fill="#F9C1AE"/>
<path d="M42.5252 142.303C42.433 142.303 42.3407 142.28 42.2534 142.241C42.0981 142.163 41.9816 142.023 41.9355 141.86L33.1936 112.171C33.1451 112.023 33.1621 111.86 33.2325 111.72C33.2713 111.642 37.266 103.478 42.4403 92.6847C42.5737 92.4045 42.8917 92.2722 43.1781 92.3578L63.5789 98.4978C63.7415 98.5445 63.875 98.6612 63.9526 98.8091C64.0303 98.957 64.0449 99.136 63.9915 99.2917C51.8131 135.774 49.2648 139.751 42.7509 142.257C42.6805 142.288 42.6029 142.295 42.5252 142.295V142.303ZM34.4508 112.054L42.9305 140.856C48.0586 138.731 50.7088 135.089 62.6008 99.5172L43.3188 93.712C38.727 103.299 35.1036 110.716 34.4435 112.054H34.4508Z" fill="#1A3142"/>
<path d="M82.7851 111.812C82.722 112.442 83.1807 113.003 83.8093 113.065C84.4403 113.127 84.9985 112.668 85.0616 112.038C85.1247 111.407 84.666 110.847 84.035 110.785C83.4064 110.723 82.8458 111.182 82.7851 111.812Z" fill="#FCFFFF"/>
<path d="M26.3928 99.2838C25.1502 99.2838 23.9464 99.0892 23.876 99.0814C23.5338 99.027 23.3081 98.7081 23.3639 98.3656C23.4173 98.0231 23.7352 97.7974 24.0774 97.8519C24.1017 97.8519 26.0433 98.1632 27.3732 97.9842C27.7082 97.9375 28.0261 98.1788 28.0722 98.5135C28.1183 98.856 27.878 99.1671 27.5431 99.2138C27.1791 99.2605 26.7908 99.2838 26.4025 99.2838H26.3928Z" fill="#1A3142"/>
<path d="M73.7674 19.4547C71.406 19.4547 69.4863 17.5326 69.4863 15.1746C69.4863 12.8166 71.406 10.8867 73.7674 10.8867C76.1313 10.8867 78.051 12.8088 78.051 15.1746C78.051 17.5404 76.1313 19.4547 73.7674 19.4547ZM73.7674 12.1319C72.0977 12.1319 70.7289 13.4936 70.7289 15.1746C70.7289 16.8557 72.0904 18.2096 73.7674 18.2096C75.4469 18.2096 76.7987 16.8479 76.7987 15.1746C76.7987 13.5013 75.4396 12.1319 73.7674 12.1319Z" fill="#1A3142"/>
<path d="M108.243 148.998C104.418 148.998 102.529 146.476 100.712 144.04C99.0007 141.752 97.3771 139.581 94.176 139.581C93.8338 139.581 93.5547 139.301 93.5547 138.958C93.5547 138.616 93.8338 138.336 94.176 138.336C98.0081 138.336 99.8866 140.857 101.707 143.293C103.415 145.581 105.039 147.752 108.243 147.752C111.444 147.752 113.067 145.589 114.778 143.293C116.596 140.857 118.484 138.336 122.309 138.336C126.131 138.336 128.02 140.857 129.84 143.293C131.51 145.527 133.087 147.643 136.133 147.745C136.475 147.752 136.747 148.048 136.732 148.39C136.725 148.733 136.444 148.997 136.087 148.989C132.442 148.865 130.616 146.414 128.838 144.04C127.127 141.752 125.503 139.581 122.302 139.581C119.098 139.581 117.475 141.745 115.764 144.04C113.946 146.476 112.058 148.998 108.235 148.998H108.243Z" fill="#FF7C48"/>
<path d="M96.9439 94.0069C96.0726 92.2013 93.5777 93.0108 93.0341 93.1118C93.0341 93.1118 96.4221 91.322 94.9999 89.3143C94.0753 88.0068 91.6435 88.7927 89.35 89.9601C91.3401 88.4972 92.2963 86.3413 90.9275 85.2207C89.5539 84.0923 87.1973 83.8824 77.5769 90.9562C75.9849 92.1313 72.6114 90.1702 72.6114 90.1702L67.1702 87.3143C67.1702 87.3143 66.6897 92.2013 69.1603 97.0185L66.7285 106.964L81.1518 112.365L83.4137 103.999C84.9742 103.252 94.682 100.357 95.3737 99.034C95.6989 98.4116 95.5994 97.6487 95.2426 97.0263C97.2303 95.6254 97.3249 94.7695 96.9512 93.9913L96.9439 94.0069Z" fill="white"/>
<path d="M81.144 113.005C81.0736 113.005 80.9959 112.99 80.9255 112.966L66.5023 107.565C66.2062 107.456 66.0436 107.137 66.114 106.834L68.4923 97.1062C66.0824 92.2501 66.5265 87.4641 66.5484 87.2619C66.5726 87.0595 66.6892 86.8727 66.876 86.7793C67.0629 86.6781 67.2789 86.6781 67.4585 86.7793L72.8997 89.6352C73.7078 90.1023 76.1858 91.2307 77.2123 90.4759C86.4978 83.6432 89.4199 83.2073 91.325 84.7638C91.9147 85.2462 92.2108 85.9 92.1963 86.6704C92.1793 87.2074 91.9997 87.7754 91.6818 88.3436C93.5311 87.791 94.8222 88.0011 95.5066 88.9739C95.9265 89.5654 96.0648 90.2268 95.9022 90.8882C95.7784 91.4019 95.4896 91.8687 95.1474 92.2579C96.0502 92.3279 96.9822 92.686 97.4943 93.7599C98.0622 94.9506 97.6205 96.0167 95.9944 97.2619C96.2517 97.9778 96.2274 98.7325 95.9022 99.3552C95.3974 100.328 92.5603 101.449 86.7793 103.456C85.5586 103.877 84.4859 104.25 83.918 104.484L81.7337 112.561C81.6876 112.733 81.5711 112.873 81.4158 112.951C81.3308 112.997 81.2289 113.021 81.1294 113.021L81.144 113.005ZM67.4585 106.592L80.7241 111.565L82.8064 103.861C82.855 103.682 82.9787 103.542 83.1413 103.464C83.6461 103.223 84.8596 102.803 86.3886 102.273C88.9611 101.379 94.3174 99.5265 94.8222 98.7715C95.0163 98.3903 94.9702 97.8532 94.6984 97.3709C94.5334 97.0907 94.6111 96.7404 94.8756 96.5536C96.8123 95.1841 96.5404 94.6081 96.3827 94.2968C95.8876 93.254 94.5189 93.4252 93.3928 93.6977L93.1597 93.7521C92.8491 93.8144 92.5603 93.6354 92.4511 93.3474C92.3516 93.0594 92.4754 92.7327 92.7472 92.5926C93.2204 92.3435 94.4873 91.4953 94.7057 90.6004C94.7761 90.2891 94.713 90.0011 94.5043 89.6975C93.9582 88.9349 92.1963 89.2385 89.6455 90.5382C89.3592 90.6861 89 90.5849 88.8301 90.3124C88.6602 90.04 88.7282 89.6742 88.9927 89.4876C90.1674 88.6236 90.9367 87.5108 90.9585 86.6392C90.9682 86.2656 90.8347 85.9701 90.5484 85.7288C89.4295 84.8183 87.0584 84.7872 77.9574 91.4798C76.0838 92.8573 72.6885 90.9505 72.3075 90.725L67.7618 88.3436C67.7618 89.9622 67.9875 93.3941 69.7131 96.7559C69.7811 96.8883 69.798 97.0439 69.7665 97.1918L67.4658 106.6L67.4585 106.592Z" fill="#1A3142"/>
<path d="M86.4054 97.5793C86.187 97.5793 85.9855 97.4703 85.869 97.2682C85.6967 96.9724 85.7986 96.591 86.0947 96.4198L92.7227 92.5833C93.0188 92.4121 93.3998 92.5133 93.5697 92.8091C93.742 93.1046 93.6401 93.486 93.344 93.6572L86.716 97.4937C86.6141 97.5482 86.5146 97.5793 86.4054 97.5793Z" fill="#1A3142"/>
<path d="M83.498 94.063C83.2893 94.063 83.0781 93.954 82.9616 93.7594C82.7917 93.4636 82.884 93.0825 83.1801 92.9034L89.2425 89.3236C89.5362 89.1524 89.9172 89.2458 90.0968 89.5416C90.2667 89.8374 90.1745 90.2185 89.8784 90.3975L83.8159 93.9696C83.7164 94.0318 83.6072 94.0552 83.498 94.0552V94.063Z" fill="#1A3142"/>
<path d="M88.0752 100.413C87.8276 100.413 87.5947 100.258 87.4927 100.016C87.369 99.6972 87.5316 99.3313 87.8495 99.2148L95.0089 96.4676C95.3269 96.3431 95.6836 96.5065 95.8074 96.8257C95.9336 97.1446 95.7686 97.5104 95.4507 97.6272L88.2936 100.374C88.2232 100.405 88.1456 100.413 88.0679 100.413H88.0752Z" fill="#1A3142"/>
<path d="M32.2985 82.311C32.4538 90.6535 27.0612 99.8987 19.1106 100.047C11.1526 100.194 4.57805 93.5561 4.42272 85.2139C4.2674 76.8713 10.592 69.9919 18.5499 69.844C26.5079 69.6962 32.1432 73.9687 32.2985 82.311Z" fill="#1A3142"/>
<path d="M13.5555 105.883L13.5312 99.0816C13.5312 99.0816 20.8363 98.716 22.4769 89.1128C22.4769 89.1128 24.4039 87.8053 23.0812 80.5525C22.989 80.0544 23.3555 79.5876 23.8603 79.5487C25.9038 79.4086 30.4883 78.8715 30.4494 76.8638L32.5099 83.8677L35.5703 84.3659C35.8591 84.4123 36.0605 84.6692 36.0387 84.965L35.6965 89.2684C36.3566 92.6926 37.3031 97.5098 27.4424 98.5993L27.9473 106.179L13.5458 105.883H13.5555Z" fill="white"/>
<path d="M27.954 106.803C27.6288 106.803 27.3569 106.554 27.3327 106.219L26.8279 98.6391C26.8036 98.3047 27.0439 98.0167 27.3788 97.9778C31.0629 97.573 33.5019 96.5847 34.6304 95.0518C35.8585 93.3863 35.4459 91.2696 35.0891 89.402C35.0794 89.3475 35.0722 89.2619 35.0722 89.2074L35.4144 84.9039L32.4074 84.4758C32.1744 84.4369 31.9802 84.2656 31.9099 84.0399L29.8494 77.0362C29.7499 76.7093 29.944 76.359 30.2692 76.2656C30.5969 76.1644 30.9464 76.359 31.0386 76.6859L32.9899 83.3163L35.6643 83.7522C36.2613 83.8531 36.6982 84.4057 36.6497 85.0126L36.3172 89.2307C36.7055 91.254 37.1545 93.721 35.6255 95.7988C34.3271 97.5574 31.8637 98.6547 28.0947 99.1529L28.5607 106.141C28.5825 106.483 28.3277 106.779 27.9855 106.803C27.9685 106.803 27.9539 106.803 27.9394 106.803H27.954Z" fill="#1A3142"/>
<path d="M13.5538 106.505C13.2116 106.505 12.9301 106.225 12.9301 105.882L12.9082 98.2245C12.9082 97.8823 13.1873 97.6021 13.5295 97.6021C13.9178 97.6098 14.1508 97.8745 14.1508 98.2245L14.1751 105.882C14.1751 106.225 13.8935 106.505 13.5538 106.505Z" fill="#1A3142"/>
<path d="M27.6758 82.7015C27.5908 82.7015 27.4961 82.6781 27.4112 82.6392C27.1006 82.4913 26.9671 82.1255 27.1151 81.8141C27.1394 81.7674 27.6685 80.6623 28.9111 80.2734C29.86 79.9776 30.923 80.1722 32.0807 80.8414C32.3767 81.0126 32.4787 81.394 32.3064 81.6898C32.1292 81.9853 31.7482 82.0865 31.4594 81.9153C30.6196 81.4252 29.8891 81.2695 29.2921 81.4563C28.5689 81.6742 28.2339 82.3434 28.2339 82.3434C28.1247 82.5614 27.9088 82.6937 27.6758 82.6937V82.7015Z" fill="#1A3142"/>
<path d="M29.3369 84.3344C29.2908 84.132 29.2592 83.9219 29.252 83.7273C29.252 83.6341 29.2519 83.5407 29.2908 83.4551C29.4218 83.1904 29.8805 83.1515 30.0043 83.4084C30.082 83.5719 30.1305 83.7506 30.1523 83.9219C30.1984 84.1943 30.3149 84.4512 30.1596 84.7236C30.1062 84.817 30.014 84.9024 29.8878 84.9257C29.6087 84.9802 29.4534 84.7392 29.3903 84.5446C29.3684 84.4745 29.3442 84.3967 29.3296 84.3266L29.3369 84.3344Z" fill="#1A3142"/>
<path d="M25.9888 88.902C25.0787 90.5516 22.8484 91.0732 21.0136 90.0537C19.1813 89.0343 18.4265 86.8709 19.3439 85.221C20.254 83.5713 22.4843 83.0498 24.3167 84.0692C26.1514 85.0886 26.9062 87.2521 25.9888 88.902Z" fill="white"/>
<path d="M22.9575 89.1982C22.7488 89.1982 22.5377 89.0892 22.4212 88.8946C22.244 88.5988 22.3435 88.2174 22.6396 88.0387L23.324 87.6339L21.613 86.0151C21.3655 85.7819 21.3485 85.3849 21.5912 85.1358C21.8242 84.8867 22.2197 84.8711 22.4673 85.1124L24.785 87.2992C24.9234 87.4315 25.001 87.6261 24.9792 87.8207C24.9549 88.0153 24.8457 88.1865 24.6758 88.2875L23.2852 89.1126C23.1832 89.1749 23.074 89.1982 22.9648 89.1982H22.9575Z" fill="#1A3142"/>
<path d="M35.9615 91.2998H33.0686C32.7264 91.2998 32.4473 91.0196 32.4473 90.6771C32.4473 90.3347 32.7264 90.0547 33.0686 90.0547H35.9615C36.3013 90.0547 36.5828 90.3347 36.5828 90.6771C36.5828 91.0196 36.3013 91.2998 35.9615 91.2998Z" fill="#1A3142"/>
<path d="M149.596 19.2597C149.596 19.2597 122.705 17.5322 113.752 18.0148C107.848 18.3259 98.2734 20.2171 91.961 27.2364C85.6606 34.2559 79.4574 41.4077 86.0101 46.2091C87.3376 47.1821 88.6506 47.5165 89.9417 47.4231C90.182 48.8785 91.0217 50.2326 92.6623 51.4311C99.2127 56.2327 105.515 45.5088 108.818 44.5283C109.612 44.2948 110.699 44.0379 111.903 43.7813C112.245 46.077 113.869 48.4815 118.3 50.1781C118.3 50.1781 109.962 55.5633 107.287 58.9485C104.615 62.3415 102.897 69.9212 108.003 72.2948C113.109 74.6683 124.431 65.3609 126.911 64.357C129.382 63.3531 149.775 63.2052 156.534 55.2986L149.603 19.2597H149.596Z" fill="white"/>
<path d="M109.945 73.3064C109.144 73.3064 108.399 73.1663 107.739 72.863C105.974 72.0457 104.792 70.5594 104.319 68.5829C103.501 65.1431 104.986 60.855 106.79 58.5593C108.974 55.789 114.67 51.8433 116.978 50.2949C113.876 48.8784 112.012 46.9408 111.413 44.5127C110.403 44.7384 109.588 44.9408 108.996 45.1196C108.127 45.3765 106.828 46.5905 105.46 47.8824C102.001 51.1275 97.2614 55.5633 92.2959 51.929C90.7888 50.8239 89.8253 49.5243 89.4443 48.0536C88.1143 48.0303 86.8402 47.5788 85.6437 46.7073C83.8332 45.3765 82.8139 43.7735 82.627 41.9368C82.1392 37.2441 87.112 31.7033 91.5023 26.8163C98.521 19.0031 109.377 17.6178 113.721 17.3843C122.613 16.9095 149.37 18.6139 149.642 18.6294C149.921 18.645 150.161 18.8552 150.217 19.1354L157.149 55.1741C157.187 55.3609 157.134 55.5555 157.01 55.6956C151.717 61.8825 138.529 63.431 131.44 64.2714C129.414 64.5127 127.664 64.715 127.144 64.9252C126.584 65.1509 125.395 65.9291 124.018 66.8395C119.963 69.5011 114.165 73.2986 109.952 73.2986L109.945 73.3064ZM111.903 43.1508C112.027 43.1508 112.153 43.1897 112.26 43.2598C112.401 43.361 112.493 43.5089 112.517 43.6801C112.891 46.2169 114.91 48.2093 118.517 49.5865C118.735 49.6722 118.89 49.8667 118.912 50.1003C118.936 50.3338 118.827 50.5595 118.633 50.6916C118.548 50.7461 110.35 56.0536 107.768 59.3299C106.144 61.3921 104.8 65.2366 105.53 68.2871C105.911 69.9056 106.836 71.0574 108.258 71.7268C111.794 73.3687 119.014 68.6296 123.334 65.7967C124.882 64.7773 126.009 64.0459 126.676 63.7735C127.353 63.501 128.923 63.3142 131.292 63.034C138.117 62.2325 150.754 60.7463 155.867 55.112L149.081 19.8435C145.422 19.6177 121.943 18.1936 113.791 18.6217C109.602 18.8474 99.1423 20.1704 92.427 27.6411C88.2162 32.3338 83.4352 37.6567 83.8648 41.7967C84.0201 43.2909 84.8428 44.5672 86.3815 45.6878C87.5076 46.5127 88.6677 46.8707 89.903 46.7851C90.2209 46.7617 90.5073 46.9875 90.5631 47.3064C90.7888 48.6761 91.597 49.859 93.041 50.9095C97.1765 53.9369 101.302 50.0691 104.622 46.9641C106.168 45.5088 107.506 44.2559 108.656 43.9134C109.401 43.6957 110.449 43.4388 111.787 43.1508C111.833 43.143 111.872 43.1352 111.918 43.1352L111.903 43.1508Z" fill="#1A3142"/>
<path d="M89.9415 48.0457C89.7085 48.0457 89.4828 47.9134 89.3809 47.6957C89.2329 47.3844 89.3663 47.0107 89.6697 46.8629C89.6988 46.8473 93.1353 45.1665 96.7491 41.0885C100.666 36.6761 110.993 37.2832 111.43 37.3143C111.762 37.3377 112.012 37.6101 112.012 37.9446C112.012 37.9835 111.966 41.8902 112.493 43.5944C112.595 43.9213 112.408 44.2716 112.082 44.3728C111.755 44.4737 111.405 44.2872 111.303 43.9602C110.847 42.4816 110.777 39.7502 110.769 38.5284C108.546 38.4661 100.695 38.5128 97.681 41.9136C93.8804 46.1937 90.3517 47.9134 90.2061 47.9835C90.1187 48.0224 90.0265 48.0457 89.9415 48.0457Z" fill="#1A3142"/>
<path d="M118.297 50.8015C118.142 50.8015 117.986 50.7392 117.863 50.6224C117.615 50.3814 117.615 49.9922 117.848 49.7431C117.894 49.6964 122.408 44.9804 120.506 41.7042C118.547 38.3423 111.482 38.5525 111.412 38.5525C111.062 38.568 110.783 38.2956 110.766 37.9534C110.752 37.6109 111.023 37.3229 111.366 37.3073C111.676 37.2995 119.246 37.0738 121.578 41.0739C123.957 45.1594 118.95 50.3814 118.734 50.6069C118.608 50.7314 118.445 50.7937 118.29 50.7937L118.297 50.8015Z" fill="#1A3142"/>
<path d="M116.031 44.9889C115.789 44.9889 115.556 44.8413 115.456 44.6C115.323 44.2808 115.478 43.915 115.798 43.7907L121.152 41.5881C121.47 41.4561 121.837 41.6115 121.96 41.9306C122.091 42.2498 121.936 42.6156 121.618 42.7399L116.264 44.9425C116.187 44.9734 116.109 44.9889 116.031 44.9889Z" fill="#1A3142"/>
<path d="M99.3523 39.7852L82.3516 54.0356L96.5807 71.0611L113.584 56.8105L99.3523 39.7852Z" fill="#1A3142"/>
<path d="M101.624 59.8046C99.2064 61.8279 95.6073 61.5087 93.588 59.0887C91.5664 56.6684 91.8843 53.0653 94.3016 51.042C96.7188 49.0184 100.318 49.3376 102.337 51.7579C104.359 54.1781 104.038 57.7813 101.624 59.8046Z" fill="#FF7C48"/>
<path d="M160.489 13.3398L146.881 16.1615L156.011 60.3067L169.616 57.4848L160.489 13.3398Z" fill="#1A3142"/>
<path d="M11.2715 105.409L11.2957 100.529L28.7891 100.047L35.6282 106.226L11.2715 105.409Z" fill="white"/>
<path d="M35.6266 106.848L11.248 106.039C10.9131 106.031 10.6413 105.751 10.6486 105.416L10.6801 100.537C10.6801 100.202 10.9519 99.9298 11.2869 99.9142L28.7802 99.4316C28.921 99.4316 29.0909 99.4861 29.2147 99.5951L36.0538 105.774C36.2479 105.945 36.311 106.225 36.2164 106.467C36.1241 106.7 35.8912 106.856 35.6412 106.856L35.6266 106.848ZM11.8936 104.809L33.9399 105.541L28.5545 100.669L11.9154 101.128L11.8936 104.801V104.809Z" fill="#1A3142"/>
<path d="M65.9988 102.483C61.623 113.775 58.2908 122.18 58.2908 122.18C45.0616 106.965 42.0789 104.771 28.5317 103.324C28.1604 103.285 19.1055 103.23 13.3633 103.666C2.64599 104.475 -3.30001 116.911 3.58521 148.95V161.386H49.7019C49.7019 161.386 49.2286 148.289 49.1898 147.658C55.6697 153.549 64.88 153.207 69.3018 151.106C75.1071 148.343 77.3374 144.997 86.8195 107.035L65.9988 102.491V102.483Z" fill="#F9C1AE"/>
<path d="M49.7021 162.001C49.3672 162.001 49.0953 161.736 49.0808 161.401C49.0808 161.269 48.5978 148.304 48.5663 147.682C48.5517 147.433 48.6925 147.199 48.9254 147.09C49.1511 146.981 49.423 147.02 49.6099 147.191C55.8811 152.888 64.7467 152.576 69.0375 150.538C74.4229 147.977 76.5925 145.347 86.0649 107.502L66.3946 103.207C62.1596 114.125 58.9123 122.327 58.8807 122.405C58.8031 122.608 58.6235 122.756 58.4051 122.787C58.1964 122.826 57.9779 122.748 57.8299 122.584C44.8288 107.635 42.0621 105.386 28.4785 103.938C28.0586 103.907 19.2149 103.837 13.4242 104.281C10.0119 104.538 7.26947 106.024 5.2721 108.701C0.34542 115.292 -0.0283099 129.16 4.19942 148.81C4.2067 148.857 4.21639 148.895 4.21639 148.942V161.378C4.21639 161.72 3.93488 162.001 3.59268 162.001C3.25291 162.001 2.97137 161.72 2.97137 161.378V149.004C-1.37285 128.74 -0.936005 114.935 4.26978 107.946C6.49285 104.973 9.53867 103.316 13.3247 103.036C18.9965 102.608 28.129 102.647 28.6023 102.701C42.312 104.164 45.5666 106.631 58.0944 120.997C59.0895 118.491 61.9411 111.254 65.4238 102.257C65.533 101.969 65.8364 101.806 66.1397 101.876L86.958 106.421C87.123 106.46 87.2614 106.561 87.356 106.701C87.441 106.841 87.4725 107.02 87.4337 107.184C78.107 144.499 75.8766 148.662 69.5739 151.666C65.2224 153.736 56.4781 154.164 49.872 149.036C50.0054 152.475 50.3161 160.927 50.3306 161.362C50.3476 161.705 50.0758 161.993 49.7336 162.008H49.7094L49.7021 162.001Z" fill="#1A3142"/>
<path d="M54.9555 131.176C54.8779 131.176 54.8002 131.16 54.7225 131.129C54.4022 131.005 54.2469 130.639 54.3706 130.32L57.7125 121.946C57.8387 121.627 58.2028 121.472 58.5207 121.596C58.841 121.721 58.9964 122.087 58.8702 122.405L55.5307 130.779C55.4288 131.02 55.2031 131.168 54.9555 131.168V131.176Z" fill="#1A3142"/>
<path d="M49.1879 148.272C49.0568 148.272 48.9258 148.233 48.8093 148.14L33.4055 136.218C33.1337 136.007 33.0876 135.618 33.2963 135.346C33.505 135.074 33.8958 135.027 34.1676 135.237L49.5689 147.159C49.8407 147.369 49.8893 147.759 49.6781 148.031C49.5544 148.186 49.3748 148.272 49.1879 148.272Z" fill="#1A3142"/>
<path d="M26.254 99.2995C25.3439 99.2995 24.6692 99.183 24.6304 99.1753C24.2954 99.113 24.0625 98.7938 24.1256 98.4591C24.179 98.1244 24.4969 97.8912 24.8391 97.9534C24.8464 97.9534 26.0744 98.1634 27.3728 97.9846C27.7077 97.9379 28.0257 98.1789 28.0718 98.5136C28.1203 98.8561 27.8776 99.1675 27.5451 99.2142C27.0937 99.2762 26.6496 99.2995 26.254 99.2995Z" fill="#1A3142"/>
<path d="M85.9473 40.9266C85.6973 40.9266 85.4643 40.7709 85.3648 40.5221C85.2386 40.2029 85.4036 39.8449 85.7216 39.7203C85.7531 39.7126 88.6824 38.5452 90.7429 34.5531C91.7064 32.6777 89.4833 29.9227 89.4591 29.8994C89.2431 29.6347 89.2819 29.238 89.544 29.0201C89.8085 28.8021 90.2066 28.841 90.4153 29.1057C90.5318 29.2458 93.1893 32.522 91.8448 35.1289C89.5537 39.5649 86.2968 40.8332 86.1657 40.8877C86.0953 40.911 86.0177 40.9266 85.9473 40.9266Z" fill="#1A3142"/>
<path d="M118.71 70.0626C118.377 70.0626 118.106 69.8058 118.089 69.4713C118.018 67.8759 116.186 65.1988 114.157 65.0353C112.417 64.8954 109.337 67.2301 108.306 68.1405C108.048 68.366 107.653 68.3429 107.427 68.0861C107.201 67.8292 107.223 67.4322 107.48 67.2067C107.9 66.8331 111.694 63.5958 114.256 63.7982C117.062 64.0236 119.239 67.3077 119.331 69.4168C119.348 69.7591 119.084 70.0549 118.741 70.0704H118.71V70.0626Z" fill="#1A3142"/>
</g>
</g>
<defs>
<clipPath id="clip0_880_16695">
<rect width="191" height="162" fill="white"/>
</clipPath>
</defs>
</svg>
