<svg width="280" height="280" viewBox="0 0 280 280" fill="none" xmlns="http://www.w3.org/2000/svg">
<path d="M211.68 72.4639V158.648C211.68 160.832 209.888 162.568 207.76 162.568H70.9522C68.7682 162.568 67.0322 160.832 67.0322 158.648V72.4639C67.0322 70.2799 68.7682 68.5439 70.9522 68.5439H207.704C209.888 68.5439 211.624 70.2799 211.68 72.4639Z" fill="white"/>
<path d="M207.704 162.848H70.952C68.6 162.848 66.752 160.944 66.752 158.648V72.4637C66.752 70.1117 68.656 68.2637 70.952 68.2637H207.704C210.056 68.2637 211.904 70.1677 211.904 72.4637V158.648C211.96 160.944 210.056 162.848 207.704 162.848ZM70.952 68.8237C68.936 68.8237 67.312 70.4477 67.312 72.4637V158.648C67.312 160.664 68.936 162.288 70.952 162.288H207.704C209.72 162.288 211.344 160.664 211.344 158.648V72.4637C211.344 70.4477 209.72 68.8237 207.704 68.8237H70.952Z" fill="#111827"/>
<path d="M205.688 74.4238H72.9121V156.688H205.688V74.4238Z" fill="white"/>
<path d="M205.744 156.968H72.9118C72.7438 156.968 72.6318 156.856 72.6318 156.688V74.4236C72.6318 74.2556 72.7438 74.1436 72.9118 74.1436H205.744C205.912 74.1436 206.024 74.2556 206.024 74.4236V156.688C206.024 156.856 205.912 156.968 205.744 156.968ZM73.2478 156.408H205.464V74.7036H73.2478V156.408Z" fill="#111827"/>
<path d="M70.0003 121.408C69.2723 121.408 68.6562 120.792 68.6562 120.064C68.6562 119.336 69.2723 118.72 70.0003 118.72C70.7283 118.72 71.3443 119.336 71.3443 120.064C71.3443 120.792 70.7283 121.408 70.0003 121.408ZM70.0003 119.336C69.6083 119.336 69.2722 119.672 69.2722 120.064C69.2722 120.456 69.6083 120.792 70.0003 120.792C70.3923 120.792 70.7283 120.456 70.7283 120.064C70.7843 119.672 70.4483 119.336 70.0003 119.336Z" fill="white"/>
<path d="M70.0003 118.216C69.2723 118.216 68.6562 117.6 68.6562 116.872V111.048C68.6562 110.32 69.2723 109.704 70.0003 109.704C70.7283 109.704 71.3443 110.32 71.3443 111.048V116.872C71.3443 117.6 70.7843 118.216 70.0003 118.216ZM70.0003 110.32C69.6083 110.32 69.2722 110.656 69.2722 111.048V116.872C69.2722 117.264 69.6083 117.6 70.0003 117.6C70.3923 117.6 70.7283 117.264 70.7283 116.872V111.048C70.7843 110.6 70.4483 110.264 70.0003 110.32Z" fill="white"/>
<path d="M70.0003 121.408C69.2723 121.408 68.6562 120.792 68.6562 120.064C68.6562 119.336 69.2723 118.72 70.0003 118.72C70.7283 118.72 71.3443 119.336 71.3443 120.064C71.3443 120.792 70.7283 121.408 70.0003 121.408ZM70.0003 119.336C69.6083 119.336 69.2722 119.672 69.2722 120.064C69.2722 120.456 69.6083 120.792 70.0003 120.792C70.3923 120.792 70.7283 120.456 70.7283 120.064C70.7843 119.672 70.4483 119.336 70.0003 119.336Z" fill="#111827"/>
<path d="M70.0003 118.216C69.2723 118.216 68.6562 117.6 68.6562 116.872V111.048C68.6562 110.32 69.2723 109.704 70.0003 109.704C70.7283 109.704 71.3443 110.32 71.3443 111.048V116.872C71.3443 117.6 70.7843 118.216 70.0003 118.216ZM70.0003 110.32C69.6083 110.32 69.2722 110.656 69.2722 111.048V116.872C69.2722 117.264 69.6083 117.6 70.0003 117.6C70.3923 117.6 70.7283 117.264 70.7283 116.872V111.048C70.7843 110.6 70.4483 110.264 70.0003 110.32Z" fill="#111827"/>
<path d="M70.0003 121.408C69.2723 121.408 68.6562 120.792 68.6562 120.064C68.6562 119.336 69.2723 118.72 70.0003 118.72C70.7283 118.72 71.3443 119.336 71.3443 120.064C71.3443 120.792 70.7283 121.408 70.0003 121.408ZM70.0003 119.336C69.6083 119.336 69.2722 119.672 69.2722 120.064C69.2722 120.456 69.6083 120.792 70.0003 120.792C70.3923 120.792 70.7283 120.456 70.7283 120.064C70.7843 119.672 70.4483 119.336 70.0003 119.336Z" stroke="#111827" stroke-linecap="round" stroke-linejoin="round"/>
<path d="M70.0003 118.216C69.2723 118.216 68.6562 117.6 68.6562 116.872V111.048C68.6562 110.32 69.2723 109.704 70.0003 109.704C70.7283 109.704 71.3443 110.32 71.3443 111.048V116.872C71.3443 117.6 70.7843 118.216 70.0003 118.216ZM70.0003 110.32C69.6083 110.32 69.2722 110.656 69.2722 111.048V116.872C69.2722 117.264 69.6083 117.6 70.0003 117.6C70.3923 117.6 70.7283 117.264 70.7283 116.872V111.048C70.7843 110.6 70.4483 110.264 70.0003 110.32Z" stroke="#111827" stroke-linecap="round" stroke-linejoin="round"/>
<path d="M230.944 188.216C235.312 188.328 238.056 190.344 241.864 198.856C245.672 207.368 252.392 224 252.392 224C252.392 224 206.024 235.032 205.744 234.528C205.464 233.968 202.384 199.024 202.384 199.024C202.048 196.56 203.448 194.208 205.8 193.312C209.832 191.688 221.032 187.768 230.944 188.216Z" fill="#F06434"/>
<path d="M230.944 188.216C230.944 188.216 216.048 188.552 205.8 193.312L201.768 173.152C201.768 173.152 196.672 167.048 194.824 162.568H207.76C208.656 162.568 209.552 162.232 210.28 161.672C201.544 149.744 197.456 134.848 200.088 133.448C202.328 132.216 207.256 135.576 211.68 140.056V120.176C217 124.768 226.072 143.584 226.072 149.8C226.072 156.464 223.608 162.736 224.952 169.736C226.24 176.736 230.944 188.216 230.944 188.216Z" fill="white"/>
<path d="M205.744 193.592C205.688 193.592 205.632 193.592 205.632 193.536C205.576 193.48 205.52 193.424 205.464 193.368L201.432 173.264C200.872 172.592 196.28 166.992 194.488 162.624C194.432 162.512 194.488 162.456 194.544 162.344C194.6 162.288 194.712 162.232 194.768 162.232H207.704C208.488 162.232 209.216 162.008 209.832 161.56C206.304 156.688 203.448 151.312 201.32 145.712C199.472 140.728 198.632 136.528 199.08 134.456C199.136 133.952 199.416 133.448 199.864 133.168C202.384 131.824 207.312 135.408 211.344 139.328V120.12C211.344 120.008 211.4 119.896 211.512 119.84C211.624 119.784 211.736 119.784 211.792 119.896C217.056 124.432 226.24 143.416 226.24 149.744C226.184 152.32 225.904 154.952 225.456 157.528C224.896 161.392 224.28 165.424 225.12 169.624C226.464 176.512 231.112 187.936 231.112 188.048C231.168 188.104 231.168 188.216 231.112 188.328C231.056 188.384 230.944 188.44 230.888 188.44C230.72 188.44 215.936 188.832 205.856 193.536C205.856 193.592 205.8 193.592 205.744 193.592ZM195.216 162.848C197.12 167.272 201.88 172.928 201.936 172.984C201.992 173.04 201.992 173.04 201.992 173.096L205.968 192.864C215.208 188.664 228.032 187.992 230.496 187.88C229.656 185.808 225.792 175.952 224.616 169.736C223.776 165.424 224.392 161.392 224.952 157.416C225.4 154.896 225.624 152.32 225.68 149.744C225.68 143.696 217.168 125.944 211.904 120.792V140C211.904 140.112 211.848 140.224 211.736 140.28C211.624 140.336 211.512 140.28 211.4 140.224C206.528 135.296 201.992 132.608 200.144 133.672C199.864 133.896 199.64 134.232 199.64 134.568C198.8 138.264 202.664 150.864 210.448 161.448C210.56 161.56 210.504 161.728 210.392 161.84C209.664 162.456 208.712 162.792 207.704 162.792L195.216 162.848Z" fill="#111827"/>
<path d="M217.28 145.992C217.224 145.992 217.112 145.936 217.056 145.88C214.088 142.688 211.456 140.28 211.456 140.28C211.344 140.168 211.344 140 211.456 139.888C211.568 139.776 211.736 139.776 211.848 139.888C211.848 139.888 214.48 142.352 217.504 145.544C217.616 145.656 217.616 145.824 217.504 145.936C217.448 145.936 217.336 145.992 217.28 145.992Z" fill="#111827"/>
<path d="M212.297 164.976C212.185 164.976 212.129 164.92 212.073 164.864L210.001 161.84C209.889 161.728 209.945 161.504 210.057 161.448C210.169 161.336 210.392 161.392 210.448 161.504L212.521 164.584C212.633 164.696 212.576 164.864 212.464 164.976C212.408 164.976 212.353 164.976 212.297 164.976Z" fill="#111827"/>
<path d="M47.712 188.216C43.344 188.328 40.6 190.344 36.792 198.856C32.984 207.368 26.208 224 26.208 224C26.208 224 72.576 235.032 72.856 234.528C73.136 233.968 76.272 199.024 76.272 199.024C76.608 196.56 75.208 194.208 72.856 193.312C68.824 191.688 57.624 187.768 47.712 188.216Z" fill="#F06434"/>
<path d="M47.7119 188.216C47.7119 188.216 62.6079 188.552 72.8559 193.312L76.8879 173.152C76.8879 173.152 81.9839 167.104 83.8319 162.568H70.8959C69.9999 162.568 69.1039 162.232 68.3759 161.672C77.1119 149.744 81.1999 134.848 78.5679 133.448C76.3279 132.216 71.3999 135.576 66.9759 140.056V120.176C61.6559 124.768 52.5839 143.584 52.5839 149.8C52.5839 156.464 55.0479 162.736 53.7039 169.736C52.3599 176.736 47.7119 188.216 47.7119 188.216Z" fill="white"/>
<path d="M72.856 193.592C72.8 193.592 72.8 193.592 72.744 193.536C62.608 188.832 47.824 188.44 47.656 188.44C47.544 188.44 47.488 188.384 47.432 188.328C47.376 188.272 47.376 188.16 47.376 188.048C47.432 187.936 52.08 176.568 53.424 169.624C54.208 165.424 53.648 161.392 53.088 157.528C52.64 154.952 52.416 152.376 52.304 149.744C52.304 143.416 61.488 124.432 66.752 119.896C66.864 119.84 66.976 119.784 67.088 119.84C67.2 119.896 67.256 120.008 67.256 120.12V139.328C71.232 135.352 76.216 131.824 78.736 133.168C79.184 133.448 79.464 133.952 79.52 134.456C79.968 136.528 79.184 140.728 77.28 145.712C75.152 151.368 72.296 156.688 68.768 161.56C69.384 162.008 70.112 162.232 70.896 162.232H83.832C83.944 162.232 84 162.288 84.056 162.344C84.112 162.4 84.112 162.512 84.112 162.624C82.32 166.992 77.728 172.592 77.168 173.264L73.136 193.368C73.136 193.48 73.08 193.536 72.968 193.536C72.968 193.592 72.912 193.592 72.856 193.592ZM48.104 187.936C50.568 188.048 63.392 188.72 72.632 192.92L76.608 173.152C76.608 173.096 76.664 173.04 76.664 173.04C76.72 172.984 81.48 167.272 83.384 162.904H70.84C69.832 162.904 68.88 162.568 68.152 161.952C68.04 161.84 68.04 161.672 68.096 161.56C75.824 150.976 79.744 138.32 78.904 134.68C78.848 134.344 78.68 134.008 78.4 133.784C76.496 132.776 71.96 135.408 67.144 140.336C67.032 140.448 66.864 140.448 66.752 140.336C66.696 140.28 66.64 140.224 66.64 140.112V120.904C61.376 126.056 52.864 143.808 52.864 149.856C52.92 152.432 53.2 155.008 53.592 157.528C54.152 161.448 54.768 165.536 53.928 169.848C52.808 176.008 48.944 185.864 48.104 187.936Z" fill="#111827"/>
<path d="M61.3757 145.992C61.2077 145.992 61.0957 145.88 61.0957 145.712C61.0957 145.656 61.0957 145.544 61.2077 145.488C64.1757 142.296 66.8077 139.888 66.8637 139.832C66.9757 139.72 67.1437 139.72 67.2557 139.832C67.3677 139.944 67.3677 140.112 67.2557 140.224C67.1997 140.224 64.6237 142.632 61.6557 145.824C61.4877 145.936 61.4317 145.992 61.3757 145.992Z" fill="#111827"/>
<path d="M66.3036 164.976C66.2476 164.976 66.1916 164.976 66.1356 164.92C66.0236 164.808 65.9676 164.64 66.0796 164.528L68.1516 161.448C68.2636 161.336 68.4316 161.28 68.5436 161.392C68.6556 161.504 68.7116 161.672 68.5996 161.784L66.4716 164.864C66.4716 164.976 66.3596 164.976 66.3036 164.976Z" fill="#111827"/>
<path d="M105.056 156.968C104.888 156.968 104.776 156.856 104.776 156.688V74.4236C104.776 74.2556 104.888 74.1436 105.056 74.1436C105.224 74.1436 105.336 74.2556 105.336 74.4236V156.688C105.392 156.856 105.224 156.968 105.056 156.968Z" fill="#111827"/>
<path d="M99.4003 79.3516H78.7363V85.4556H99.4003V79.3516Z" fill="#F06434"/>
<path d="M99.3444 85.6796H78.6804C78.5124 85.6796 78.4004 85.5676 78.4004 85.3996V79.2956C78.4004 79.1276 78.5124 79.0156 78.6804 79.0156H99.3444C99.5124 79.0156 99.6244 79.1276 99.6244 79.2956V85.3996C99.6244 85.5676 99.5124 85.6796 99.3444 85.6796ZM79.0164 85.1196H99.0644V79.6316H79.0164V85.1196Z" fill="#111827"/>
<path d="M80.752 83.1033L83.16 80.6953C83.328 80.5273 83.664 80.5273 83.832 80.6953C84 80.8633 84 81.1993 83.832 81.3673L81.424 83.7753L80.752 83.1033Z" fill="white"/>
<path d="M81.4247 84.0557C81.3687 84.0557 81.2567 84.0557 81.2007 83.9997L80.5287 83.3277C80.4727 83.2717 80.4727 83.2157 80.4727 83.1037C80.4727 83.0477 80.5287 82.9357 80.5287 82.8797L82.9367 80.4717C83.2167 80.1917 83.7207 80.1917 84.0567 80.4717C84.3927 80.7517 84.3367 81.2557 84.0567 81.5917L81.6487 83.9997C81.5927 83.9997 81.4807 84.0557 81.4247 84.0557ZM81.1447 83.1037L81.4247 83.3837L83.6087 81.1997C83.6647 81.1437 83.6647 80.9757 83.6087 80.9197C83.5527 80.8637 83.3847 80.8637 83.3287 80.9197L81.1447 83.1037Z" fill="#111827"/>
<path d="M81.4243 83.7755L80.7523 83.1035L80.3604 84.1115L81.4243 83.7755Z" fill="#111827"/>
<path d="M80.3608 84.4472C80.3048 84.4472 80.1928 84.3912 80.1368 84.3352C80.0808 84.2792 80.0248 84.1672 80.0808 84.0552L80.4728 82.9912C80.5288 82.8792 80.5848 82.8232 80.6968 82.8232C80.8088 82.8232 80.8648 82.8232 80.9768 82.8792L81.6488 83.5512C81.7608 83.6632 81.7608 83.8312 81.6488 83.9432C81.5928 83.9992 81.5928 83.9992 81.5368 83.9992L80.4728 84.3912C80.4168 84.4472 80.4168 84.4472 80.3608 84.4472ZM80.8648 83.6072V83.6632H80.9208L80.8648 83.6072Z" fill="#111827"/>
<path d="M99.3444 96.7114H78.6804C78.5124 96.7114 78.4004 96.5994 78.4004 96.4314V91.2234C78.4004 91.0554 78.5124 90.9434 78.6804 90.9434H99.3444C99.5124 90.9434 99.6244 91.0554 99.6244 91.2234V96.4314C99.6804 96.5434 99.5124 96.7114 99.3444 96.7114ZM79.0164 96.1514H99.0644V91.5034H79.0164V96.1514Z" fill="#111827"/>
<path d="M99.3444 105.112H78.6804C78.5124 105.112 78.4004 105 78.4004 104.832V99.6238C78.4004 99.4557 78.5124 99.3438 78.6804 99.3438H99.3444C99.5124 99.3438 99.6244 99.4557 99.6244 99.6238V104.832C99.6804 105 99.5124 105.112 99.3444 105.112ZM79.0164 104.552H99.0644V99.9038H79.0164V104.552Z" fill="#111827"/>
<path d="M99.3444 113.511H78.6804C78.5124 113.511 78.4004 113.399 78.4004 113.231V108.023C78.4004 107.855 78.5124 107.743 78.6804 107.743H99.3444C99.5124 107.743 99.6244 107.855 99.6244 108.023V113.231C99.6804 113.399 99.5124 113.511 99.3444 113.511ZM79.0164 112.951H99.0644V108.303H79.0164V112.951Z" fill="#111827"/>
<path d="M99.3444 121.912H78.6804C78.5124 121.912 78.4004 121.8 78.4004 121.632V116.424C78.4004 116.256 78.5124 116.144 78.6804 116.144H99.3444C99.5124 116.144 99.6244 116.256 99.6244 116.424V121.632C99.6244 121.8 99.5124 121.912 99.3444 121.912ZM79.0164 121.352H99.0644V116.704H79.0164V121.352Z" fill="#111827"/>
<path d="M134.177 91.5034H118.497C118.329 91.5034 118.217 91.3914 118.217 91.2234C118.217 91.0554 118.329 90.9434 118.497 90.9434H134.177C134.345 90.9434 134.457 91.0554 134.457 91.2234C134.513 91.3354 134.345 91.5034 134.177 91.5034Z" fill="#111827"/>
<path d="M192.92 91.5034H140.392C140.224 91.5034 140.112 91.3914 140.112 91.2234C140.112 91.0554 140.224 90.9434 140.392 90.9434H192.92C193.088 90.9434 193.2 91.0554 193.2 91.2234C193.2 91.3914 193.088 91.5034 192.92 91.5034Z" fill="#111827"/>
<path d="M192.92 94.9194H140.392C140.224 94.9194 140.112 94.8074 140.112 94.6394C140.112 94.4714 140.224 94.3594 140.392 94.3594H192.92C193.088 94.3594 193.2 94.4714 193.2 94.6394C193.2 94.8074 193.088 94.9194 192.92 94.9194Z" fill="#111827"/>
<path d="M134.177 100.799H118.497C118.329 100.799 118.217 100.687 118.217 100.519C118.217 100.351 118.329 100.239 118.497 100.239H134.177C134.345 100.239 134.457 100.351 134.457 100.519C134.457 100.687 134.345 100.799 134.177 100.799Z" fill="#111827"/>
<path d="M192.92 100.799H140.392C140.224 100.799 140.112 100.687 140.112 100.519C140.112 100.351 140.224 100.239 140.392 100.239H192.92C193.088 100.239 193.2 100.351 193.2 100.519C193.2 100.631 193.088 100.799 192.92 100.799Z" fill="#111827"/>
<path d="M192.92 104.215H140.392C140.224 104.215 140.112 104.103 140.112 103.935C140.112 103.767 140.224 103.655 140.392 103.655H192.92C193.088 103.655 193.2 103.767 193.2 103.935C193.2 104.103 193.088 104.215 192.92 104.215Z" fill="#111827"/>
<path d="M134.177 110.095H118.497C118.329 110.095 118.217 109.983 118.217 109.815C118.217 109.647 118.329 109.535 118.497 109.535H134.177C134.345 109.535 134.457 109.647 134.457 109.815C134.457 109.983 134.345 110.095 134.177 110.095Z" fill="#111827"/>
<path d="M192.92 110.095H140.392C140.224 110.095 140.112 109.983 140.112 109.815C140.112 109.647 140.224 109.535 140.392 109.535H192.92C193.088 109.535 193.2 109.647 193.2 109.815C193.2 109.927 193.088 110.095 192.92 110.095Z" fill="#111827"/>
<path d="M192.92 113.511H140.392C140.224 113.511 140.112 113.399 140.112 113.231C140.112 113.063 140.224 112.951 140.392 112.951H192.92C193.088 112.951 193.2 113.063 193.2 113.231C193.2 113.399 193.088 113.511 192.92 113.511Z" fill="#111827"/>
<path d="M134.177 119.335H118.497C118.329 119.335 118.217 119.223 118.217 119.055C118.217 118.887 118.329 118.775 118.497 118.775H134.177C134.345 118.775 134.457 118.887 134.457 119.055C134.513 119.223 134.345 119.335 134.177 119.335Z" fill="#111827"/>
<path d="M192.92 119.335H140.392C140.224 119.335 140.112 119.223 140.112 119.055C140.112 118.887 140.224 118.775 140.392 118.775H192.92C193.088 118.775 193.2 118.887 193.2 119.055C193.2 119.223 193.088 119.335 192.92 119.335Z" fill="#111827"/>
<path d="M192.92 122.808H140.392C140.224 122.808 140.112 122.696 140.112 122.528C140.112 122.36 140.224 122.248 140.392 122.248H192.92C193.088 122.248 193.2 122.36 193.2 122.528C193.2 122.696 193.088 122.808 192.92 122.808Z" fill="#111827"/>
<path d="M134.177 128.631H118.497C118.329 128.631 118.217 128.519 118.217 128.351C118.217 128.183 118.329 128.071 118.497 128.071H134.177C134.345 128.071 134.457 128.183 134.457 128.351C134.513 128.519 134.345 128.631 134.177 128.631Z" fill="#111827"/>
<path d="M192.92 128.631H140.392C140.224 128.631 140.112 128.519 140.112 128.351C140.112 128.183 140.224 128.071 140.392 128.071H192.92C193.088 128.071 193.2 128.183 193.2 128.351C193.2 128.519 193.088 128.631 192.92 128.631Z" fill="#111827"/>
<path d="M192.92 132.104H140.392C140.224 132.104 140.112 131.992 140.112 131.824C140.112 131.656 140.224 131.544 140.392 131.544H192.92C193.088 131.544 193.2 131.656 193.2 131.824C193.2 131.992 193.088 132.104 192.92 132.104Z" fill="#111827"/>
<path d="M134.176 85.6796H119.28C119.112 85.6796 119 85.5676 119 85.3996V79.2956C119 79.1276 119.112 79.0156 119.28 79.0156H134.232C134.4 79.0156 134.512 79.1276 134.512 79.2956V85.3996C134.456 85.5676 134.344 85.6796 134.176 85.6796ZM119.504 85.1196H133.896V79.6316H119.504V85.1196Z" fill="#111827"/>
<path d="M192.92 85.6796H140.392C140.224 85.6796 140.112 85.5676 140.112 85.3996V79.2956C140.112 79.1276 140.224 79.0156 140.392 79.0156H192.92C193.088 79.0156 193.2 79.1276 193.2 79.2956V85.3996C193.2 85.5676 193.088 85.6796 192.92 85.6796ZM140.672 85.1196H192.64V79.6316H140.672V85.1196Z" fill="#111827"/>
<path d="M232.513 43.4004H177.969V88.2564H232.513V43.4004Z" fill="white"/>
<path d="M232.456 88.5361H177.968C177.8 88.5361 177.688 88.4241 177.688 88.2561V43.4001C177.688 43.2321 177.8 43.1201 177.968 43.1201H232.456C232.624 43.1201 232.736 43.2321 232.736 43.4001V88.2561C232.736 88.4241 232.624 88.5361 232.456 88.5361ZM178.192 87.9761H232.12V43.6801H178.192V87.9761Z" fill="#111827"/>
<path d="M221.593 61.376H188.049V83.664H221.593V61.376Z" fill="white"/>
<path d="M221.593 83.9437H188.049C187.881 83.9437 187.769 83.8317 187.769 83.6637V61.3757C187.769 61.2077 187.881 61.0957 188.049 61.0957H221.593C221.761 61.0957 221.873 61.2077 221.873 61.3757V83.6637C221.873 83.7757 221.761 83.9437 221.593 83.9437ZM188.329 83.3277H221.313V61.5997H188.329V83.3277Z" fill="#111827"/>
<path d="M221.593 61.3757L217.393 64.1757L204.793 72.5197L192.249 64.1757L188.049 61.3757L192.249 57.7917L202.609 48.9997L204.793 47.0957L207.033 48.9997L217.393 57.7917L221.593 61.3757Z" fill="white"/>
<path d="M204.793 72.7997C204.737 72.7997 204.681 72.7997 204.625 72.7437L187.881 61.5997C187.825 61.5437 187.769 61.4877 187.769 61.3757C187.769 61.2637 187.825 61.2077 187.881 61.1517L204.625 46.9278C204.737 46.8158 204.905 46.8158 205.017 46.9278L221.761 61.1517C221.817 61.2077 221.873 61.3197 221.873 61.3757C221.873 61.4877 221.817 61.5437 221.761 61.5997L204.961 72.7437C204.905 72.7997 204.849 72.7997 204.793 72.7997ZM188.497 61.3197L204.793 72.1278L221.089 61.3197L204.793 47.4877L188.497 61.3197Z" fill="#111827"/>
<path d="M188.049 83.9444C187.993 83.9444 187.937 83.9444 187.881 83.8884C187.769 83.7764 187.713 83.6084 187.825 83.4964L199.417 68.9364C199.529 68.8244 199.697 68.7684 199.809 68.8804C199.921 68.9924 199.977 69.1604 199.865 69.2724L188.273 83.8324C188.217 83.8884 188.161 83.9444 188.049 83.9444Z" fill="#111827"/>
<path d="M221.592 83.9439C221.48 83.9439 221.424 83.8879 221.368 83.8319L209.776 69.2719C209.664 69.1599 209.664 68.9919 209.776 68.8799C209.888 68.7679 210.056 68.7679 210.168 68.8799L210.224 68.9359L221.816 83.4959C221.928 83.6079 221.872 83.7759 221.76 83.8879C221.704 83.8879 221.648 83.9439 221.592 83.9439Z" fill="#111827"/>
<path d="M217.392 49V64.176L204.792 72.52L192.248 64.176V49H217.392Z" fill="#F06434"/>
<path d="M204.793 72.7997C204.737 72.7997 204.681 72.7997 204.625 72.7437L192.081 64.3997C192.025 64.3437 191.969 64.2317 191.969 64.1757V48.9997C191.969 48.8317 192.081 48.7197 192.249 48.7197H217.337C217.505 48.7197 217.617 48.8317 217.617 48.9997V64.1757C217.617 64.2877 217.561 64.3437 217.505 64.3997L204.961 72.7437C204.905 72.7997 204.849 72.7997 204.793 72.7997ZM192.529 64.0077L204.793 72.1277L217.057 64.0077V49.2797H192.529V64.0077Z" fill="#111827"/>
<path d="M202.441 53.6479H195.217C195.049 53.6479 194.937 53.5359 194.937 53.3679C194.937 53.1999 195.049 53.0879 195.217 53.0879H202.441C202.609 53.0879 202.721 53.1999 202.721 53.3679C202.721 53.5359 202.609 53.6479 202.441 53.6479Z" fill="#111827"/>
<path d="M213.305 56.2797H195.217C195.049 56.2797 194.937 56.1677 194.937 55.9997C194.937 55.8317 195.049 55.7197 195.217 55.7197H213.305C213.473 55.7197 213.585 55.8317 213.585 55.9997C213.585 56.1117 213.417 56.2797 213.305 56.2797Z" fill="#111827"/>
<path d="M213.305 58.8559H195.217C195.049 58.8559 194.937 58.7439 194.937 58.5759C194.937 58.4079 195.049 58.2959 195.217 58.2959H213.305C213.473 58.2959 213.585 58.4079 213.585 58.5759C213.585 58.7439 213.417 58.8559 213.305 58.8559Z" fill="#111827"/>
<path d="M213.305 61.4877H195.217C195.049 61.4877 194.937 61.3757 194.937 61.2077C194.937 61.0397 195.049 60.9277 195.217 60.9277H213.305C213.473 60.9277 213.585 61.0397 213.585 61.2077C213.585 61.3757 213.417 61.4877 213.305 61.4877Z" fill="#111827"/>
<path d="M213.305 64.1205H195.217C195.049 64.1205 194.937 64.0085 194.937 63.8405C194.937 63.6725 195.049 63.5605 195.217 63.5605H213.305C213.473 63.5605 213.585 63.6725 213.585 63.8405C213.585 63.9525 213.417 64.1205 213.305 64.1205Z" fill="#111827"/>
<path d="M177.969 48.6084C180.845 48.6084 183.177 46.2767 183.177 43.4004C183.177 40.5241 180.845 38.1924 177.969 38.1924C175.092 38.1924 172.761 40.5241 172.761 43.4004C172.761 46.2767 175.092 48.6084 177.969 48.6084Z" fill="#F06434"/>
<path d="M177.968 48.8881C174.944 48.8881 172.48 46.4241 172.48 43.4001C172.48 40.3761 174.944 37.9121 177.968 37.9121C180.992 37.9121 183.456 40.3761 183.456 43.4001C183.4 46.4241 180.992 48.8881 177.968 48.8881ZM177.968 38.4721C175.28 38.4721 173.04 40.6561 173.04 43.4001C173.04 46.0881 175.224 48.3281 177.968 48.3281C180.656 48.3281 182.896 46.1441 182.896 43.4001C182.84 40.6561 180.656 38.4721 177.968 38.4721Z" fill="#111827"/>
<path d="M177.968 46.592C177.8 46.592 177.688 46.48 177.688 46.312V40.488C177.688 40.32 177.8 40.208 177.968 40.208C178.136 40.208 178.248 40.32 178.248 40.488V46.312C178.248 46.424 178.08 46.592 177.968 46.592Z" fill="#111827"/>
<path d="M180.825 43.6801H175.001C174.833 43.6801 174.721 43.5681 174.721 43.4001C174.721 43.2321 174.833 43.1201 175.001 43.1201H180.825C180.993 43.1201 181.105 43.2321 181.105 43.4001C181.161 43.5681 180.993 43.6801 180.825 43.6801Z" fill="#111827"/>
<path d="M175.897 45.6965C175.841 45.6965 175.729 45.6405 175.673 45.5845C175.561 45.4725 175.561 45.3045 175.673 45.1925L179.761 41.1045C179.873 40.9925 180.041 40.9925 180.153 41.1045C180.265 41.2165 180.265 41.3845 180.153 41.4965L176.065 45.5845C176.065 45.6965 175.953 45.6965 175.897 45.6965Z" fill="#111827"/>
<path d="M179.985 45.6965C179.929 45.6965 179.817 45.6405 179.761 45.5845L175.673 41.4965C175.561 41.3845 175.561 41.2165 175.673 41.1045C175.785 40.9925 175.953 40.9925 176.065 41.1045L180.153 45.1925C180.265 45.3045 180.265 45.4725 180.153 45.5845C180.153 45.6965 180.097 45.6965 179.985 45.6965Z" fill="#111827"/>
<path d="M221.593 76.9437C224.036 76.9437 226.017 74.963 226.017 72.5197C226.017 70.0764 224.036 68.0957 221.593 68.0957C219.15 68.0957 217.169 70.0764 217.169 72.5197C217.169 74.963 219.15 76.9437 221.593 76.9437Z" fill="#F06434"/>
<path d="M221.593 77.2244C218.961 77.2244 216.889 75.0964 216.889 72.5204C216.889 69.8884 219.017 67.8164 221.593 67.8164C224.225 67.8164 226.297 69.9444 226.297 72.5204C226.297 75.0964 224.169 77.2244 221.593 77.2244ZM221.593 68.3764C219.297 68.3764 217.449 70.2244 217.449 72.5204C217.449 74.8164 219.297 76.6644 221.593 76.6644C223.889 76.6644 225.737 74.8164 225.737 72.5204C225.737 70.2244 223.889 68.3764 221.593 68.3764Z" fill="#111827"/>
<path d="M221.424 70.8959L220.696 71.2879L220.584 70.8399L221.536 70.3359H222.04V74.6479H221.48L221.424 70.8959Z" fill="white"/>
</svg>
