<svg version="1.2" xmlns="http://www.w3.org/2000/svg" viewBox="0 0 120 31" width="120" height="31">
	<title>suretriggers</title>
	<defs>
		<clipPath clipPathUnits="userSpaceOnUse" id="cp1">
			<path d="m8.84 0.86h13.65c4.39 0 7.96 3.53 7.96 7.88v13.52c0 4.35-3.57 7.88-7.96 7.88h-13.65c-4.39 0-7.96-3.53-7.96-7.88v-13.52c0-4.35 3.57-7.88 7.96-7.88z"/>
		</clipPath>
		<linearGradient id="g1" x2="1" gradientUnits="userSpaceOnUse" gradientTransform="matrix(0,-20.833,26.153,0,15.663,25.917)">
			<stop offset="0" stop-color="#072f50" stop-opacity=".95"/>
			<stop offset="1" stop-color="#172a39" stop-opacity=".75"/>
		</linearGradient>
	</defs>
	<style>
		.s0 { fill: #d2f059 } 
		.s1 { fill: url(#g1) } 
		.s2 { fill: #172a39 } 
	</style>
	<g>
		<g id="Clip-Path" clip-path="url(#cp1)">
			<g>
				<path fill-rule="evenodd" class="s0" d="m8.8 0.9h13.7c4.4 0 7.9 3.5 7.9 7.8v13.6c0 4.3-3.5 7.8-7.9 7.8h-13.7c-4.4 0-7.9-3.5-7.9-7.8v-13.6c0-4.3 3.5-7.8 7.9-7.8z"/>
				<g>
					<path fill-rule="evenodd" class="s1" d="m5.4 17.8h-2.8v-4.6h2.8c1-4.6 5.2-8.1 10.3-8.1 5 0 9.2 3.5 10.2 8.1h2.8v4.6h-2.8c-1 4.6-5.2 8.1-10.2 8.1-5.1 0-9.3-3.5-10.3-8.1zm16.2-2.3c0-3.3-2.6-5.9-5.9-5.9-3.3 0-6 2.6-6 5.9 0 3.3 2.7 5.9 6 5.9 3.3 0 5.9-2.6 5.9-5.9z"/>
				</g>
			</g>
		</g>
	</g>
	<path fill-rule="evenodd" class="s2" d="m43.6 24c-4.6 0-8.2-3.6-8.2-8.1 0-4.5 3.6-8.1 8.2-8.1 4.5 0 8.2 3.6 8.2 8.1 0 4.5-3.7 8.1-8.2 8.1zm4.6-8.1c0-2.5-2-4.6-4.6-4.6-2.6 0-4.7 2.1-4.7 4.6 0 2.6 2.1 4.6 4.7 4.6 2.6 0 4.6-2 4.6-4.6zm5.5-2.1h-1.7v-3.2h1.7v-4.9h3.2v4.7 0.2h5.2v3.2h-5.2v4.3c0 1.5 1.3 2.8 2.8 2.8q0.2 0 0.5-0.1 0.2 0 0.4-0.1 0.2 0 0.4-0.1 0.2-0.1 0.3-0.2l1.7 2.7q-0.4 0.2-0.8 0.4-0.3 0.2-0.8 0.3-0.4 0.1-0.8 0.2-0.4 0-0.9 0c-3.3 0-6-2.6-6-5.9v0.1c0 0 0-4.4 0-4.4zm10.9 0h-1.8v-3.2h1.8v-4.9h3.2v4.9h5.1v3.2h-5.1v4.3c0 1.5 1.2 2.8 2.8 2.8q0.2 0 0.4-0.1 0.2 0 0.4-0.1 0.2 0 0.4-0.1 0.2-0.1 0.4-0.2l1.6 2.7q-0.3 0.2-0.7 0.4-0.4 0.2-0.8 0.3-0.4 0.1-0.9 0.2-0.4 0-0.8 0c-3.3 0-6-2.6-6-5.9v-0.9 1c0 0 0-4.4 0-4.4zm17.2 10.2c-4.5 0-8.2-3.6-8.2-8.1 0-4.5 3.7-8.1 8.2-8.1 4.6 0 8.2 3.6 8.2 8.1 0 4.5-3.6 8.1-8.2 8.1zm4.7-8.1c0-2.5-2.1-4.6-4.7-4.6-2.5 0-4.6 2.1-4.6 4.6 0 2.6 2.1 4.6 4.6 4.6 2.6 0 4.7-2 4.7-4.6z"/>
	<path class="s2" d="m91.2 24v-18.2h3.3v10.1q1.2-0.3 2.3-1 1-0.7 1.8-1.9c0.5-0.8 0.8-1.4 1-2.4h3.5c-0.2 1.1-0.5 1.8-1.1 2.7q-0.8 1.3-1.9 2.4-1.1 1-2.3 1.5 0.9 0.2 1.8 0.9 0.9 0.6 1.7 1.6 0.2 0.2 0.4 0.5 0.2 0.2 0.4 0.4 0.2 0.3 0.3 0.6 0.2 0.2 0.3 0.5 0.1 0.3 0.3 0.6 0.1 0.2 0.2 0.5 0.1 0.3 0.1 0.6 0.1 0.3 0.2 0.6h-3.6q-0.2-1.1-0.8-2-0.5-1-1.2-1.7-0.2-0.1-0.4-0.3-0.2-0.2-0.4-0.3-0.2-0.1-0.4-0.3-0.2-0.1-0.4-0.2-0.9-0.5-1.8-0.6v5.4zm13.3-18.3h3.4v0.3c0 1.9-1.5 3.4-3.4 3.4 0 0 0-3.7 0-3.7zm3.4 4.9h-3.4v13.4h3.4z"/>
	<path fill-rule="evenodd" class="s2" d="m110.5 18.2v-1 0.9c0 3.3 2.7 5.9 6 5.9h0.1q0.4 0 0.8 0 0.4-0.1 0.9-0.2 0.4-0.1 0.8-0.3 0.4-0.2 0.7-0.4l-1.6-2.7q-0.2 0.1-0.4 0.2-0.2 0.1-0.4 0.1-0.2 0.1-0.4 0.1-0.2 0.1-0.4 0.1c-1.6 0-2.9-1.3-2.9-2.8v-4.3h5.2v-3.2h-5.2v-0.2-4.7h-3.2v4.9h-1.7v3.2h1.7c0 0 0 4.4 0 4.4z"/>
</svg>