<svg width="24" height="24" viewBox="0 0 24 24" fill="none" xmlns="http://www.w3.org/2000/svg">
<rect width="24" height="24" rx="2" fill="#F06434"/>
<path fill-rule="evenodd" clip-rule="evenodd" d="M16.9795 5.76469C17.0428 5.54848 17.2411 5.3999 17.4664 5.3999H19.2926C19.5728 5.3999 19.7999 5.62702 19.7999 5.90719C19.7999 6.18736 19.5728 6.41448 19.2926 6.41448H17.8465L15.6795 13.8183C15.8743 13.8846 16.0547 13.9878 16.209 14.1375C16.5283 14.4473 16.6547 14.8774 16.6547 15.3428C16.6547 15.8072 16.5294 16.2467 16.2317 16.5753C15.9527 16.8832 15.5706 17.0405 15.1466 17.0644C15.2034 17.2239 15.2343 17.3958 15.2343 17.5748C15.2343 18.4154 14.5529 19.0967 13.7124 19.0967C12.8719 19.0967 12.1906 18.4154 12.1906 17.5748C12.1906 17.397 12.2211 17.2262 12.2772 17.0676H10.4806C10.5367 17.2262 10.5672 17.397 10.5672 17.5748C10.5672 18.4154 9.88587 19.0967 9.04537 19.0967C8.20486 19.0967 7.5235 18.4154 7.5235 17.5748C7.5235 16.7343 8.20486 16.053 9.04537 16.053H15.0314C15.2718 16.053 15.4033 15.9785 15.4798 15.8941C15.5625 15.8028 15.6401 15.6335 15.6401 15.3428C15.6401 15.053 15.5637 14.9251 15.5024 14.8656C15.4384 14.8035 15.3064 14.734 15.0314 14.734H7.92645C7.5237 14.734 7.16851 14.4702 7.05222 14.0846L5.44818 8.76588C5.23212 8.04949 5.76841 7.3276 6.51668 7.3276H16.5221L16.9795 5.76469ZM16.2251 8.34218H14.4775L14.3142 9.45822H15.8985L16.2251 8.34218ZM15.6015 10.4728H14.1657L14.0024 11.5888H15.2749L15.6015 10.4728ZM14.9779 12.6034H13.8539L13.6906 13.7194H14.6513L14.9779 12.6034ZM12.6652 13.7194L12.8285 12.6034H11.6833V13.7194H12.6652ZM10.6687 13.7194V12.6034H9.58616L9.85189 13.7194H10.6687ZM8.80895 13.7194L8.54322 12.6034H7.66524L8.00182 13.7194H8.80895ZM7.35926 11.5888H8.30166L8.03593 10.4728H7.02267L7.35926 11.5888ZM6.71669 9.45822H7.79437L7.52864 8.34218H6.51668C6.44865 8.34218 6.3999 8.40781 6.41954 8.47293L6.71669 9.45822ZM8.57158 8.34218L8.83731 9.45822H10.6687V8.34218H8.57158ZM11.6833 8.34218V9.45822H13.2888L13.4521 8.34218H11.6833ZM13.1403 10.4728H11.6833V11.5888H12.977L13.1403 10.4728ZM10.6687 11.5888V10.4728H9.07887L9.3446 11.5888H10.6687ZM9.04537 17.0676C8.7652 17.0676 8.53808 17.2947 8.53808 17.5748C8.53808 17.855 8.7652 18.0821 9.04537 18.0821C9.32554 18.0821 9.55266 17.855 9.55266 17.5748C9.55266 17.2947 9.32554 17.0676 9.04537 17.0676ZM13.7124 17.0676C13.4323 17.0676 13.2051 17.2947 13.2051 17.5748C13.2051 17.855 13.4323 18.0821 13.7124 18.0821C13.9926 18.0821 14.2197 17.855 14.2197 17.5748C14.2197 17.2947 13.9926 17.0676 13.7124 17.0676Z" fill="white"/>
</svg>
