<svg xmlns="http://www.w3.org/2000/svg" width="95" height="95" xml:space="preserve"><g fill="#f06335"><path d="M58.942 5.609c-3.444 3.354-5.587 8.036-5.587 13.22v30.718a8.19 8.19 0 0 1-8.188 8.188H24.574a8.19 8.19 0 0 1-8.188-8.188 8.19 8.19 0 0 1 8.188-8.188h22.583V24.974H24.574a24.62 24.62 0 0 0-4.099.34C8.86 27.26 0 37.377 0 49.547c0 10.7 6.843 19.803 16.386 23.176a24.61 24.61 0 0 0 8.189 1.399h20.592a24.62 24.62 0 0 0 8.189-1.399C62.897 69.35 69.74 60.247 69.74 49.547v-8.188c9.05 0 16.386-7.337 16.386-16.386H69.74v-6.145c0-1.13.915-2.044 2.045-2.044h4.098c4.996 0 9.525-1.982 12.843-5.212 2.987-2.905 4.996-6.807 5.471-11.174H71.786a18.377 18.377 0 0 0-12.844 5.211M24.575 78.218a8.191 8.191 0 1 0 0 16.383 8.191 8.191 0 0 0 0-16.383M49.149 78.218a8.192 8.192 0 1 0 0 16.383 8.192 8.192 0 0 0 0-16.383"/></g></svg>