<svg width="200" height="259" fill="none" xmlns="http://www.w3.org/2000/svg"><rect x=".5" y=".5" width="199" height="258" rx="9.5" fill="#fff" stroke="#EAEAEA"/><path d="M0 10C0 4.477 4.477 0 10 0h180c5.523 0 10 4.477 10 10v18H0V10Z" fill="#E6EAED"/><rect x="64" y="10" width="107" height="7" rx="1" fill="#fff"/><circle cx="14" cy="14" r="4" fill="#FF3B30"/><circle cx="27" cy="14" r="4" fill="#FC0"/><circle cx="40" cy="14" r="4" fill="#4CD964"/><rect x="23" y="219" width="154" height="20" rx="2" fill="#2271B1"/><path d="M81.686 232.5h1.383v-2.122h1.164c1.505 0 2.38-.898 2.38-2.205 0-1.301-.859-2.218-2.345-2.218h-2.582v6.545Zm1.383-3.231v-2.183h.934c.799 0 1.185.435 1.185 1.087 0 .648-.386 1.096-1.179 1.096h-.94Zm5.686 3.324c.726 0 1.196-.317 1.435-.774h.039v.681h1.29v-3.311c0-1.17-.99-1.662-2.083-1.662-1.176 0-1.95.562-2.138 1.457l1.259.103c.093-.326.384-.566.873-.566.463 0 .728.233.728.636v.019c0 .317-.335.358-1.189.441-.971.09-1.844.416-1.844 1.512 0 .971.694 1.464 1.63 1.464Zm.39-.94c-.419 0-.719-.195-.719-.569 0-.383.316-.572.796-.639.297-.042.783-.112.946-.221v.521c0 .515-.425.908-1.023.908Zm4.096 2.688c1.013 0 1.55-.518 1.828-1.31l1.908-5.434-1.441-.006-1.026 3.605h-.052l-1.016-3.605H92.01l1.761 5.05-.08.207c-.178.461-.52.483-1 .336l-.307 1.016c.195.083.512.141.857.141Zm12.016-8.386h-1.377v4.116h-.058l-2.825-4.116h-1.215v6.545h1.384v-4.12h.048l2.848 4.12h1.195v-6.545Zm3.336 6.641c1.489 0 2.416-1.02 2.416-2.531 0-1.522-.927-2.538-2.416-2.538-1.489 0-2.416 1.016-2.416 2.538 0 1.511.927 2.531 2.416 2.531Zm.006-1.055c-.687 0-1.038-.629-1.038-1.486 0-.856.351-1.489 1.038-1.489.675 0 1.026.633 1.026 1.489 0 .857-.351 1.486-1.026 1.486Zm4.141.959h1.438l.844-3.087h.06l.844 3.087h1.442l1.332-4.909h-1.374l-.748 3.279h-.041l-.806-3.279h-1.352l-.792 3.298h-.045l-.761-3.298h-1.377l1.336 4.909Z" fill="#fff"/><path d="M24.495 151.333a.5.5 0 0 1 .5-.5H176a.5.5 0 0 1 .5.5v6a.5.5 0 0 1-.5.5H24.995a.5.5 0 0 1-.5-.5v-6ZM24.495 168.667a.5.5 0 0 1 .5-.5H176a.5.5 0 0 1 .5.5v6a.5.5 0 0 1-.5.5H24.995a.5.5 0 0 1-.5-.5v-6ZM24.495 186a.5.5 0 0 1 .5-.5H68.25a.5.5 0 0 1 .5.5v6a.5.5 0 0 1-.5.5H24.995a.5.5 0 0 1-.5-.5v-6ZM78.37 186a.5.5 0 0 1 .5-.5h43.255a.5.5 0 0 1 .5.5v6a.5.5 0 0 1-.5.5H78.87a.5.5 0 0 1-.5-.5v-6ZM132.245 186a.5.5 0 0 1 .5-.5H176a.5.5 0 0 1 .5.5v6a.5.5 0 0 1-.5.5h-43.255a.5.5 0 0 1-.5-.5v-6Z" fill="#fff" stroke="#B7CFE2"/><rect x="23.5" y="202.5" width="6" height="6" rx=".5" fill="#fff" stroke="#CCDEED"/><rect x="43.39" y="204" width="133.61" height="2.667" rx="1" fill="#B7CFE2"/><g clip-path="url(#a)" fill="#2271B1" stroke="#fff" stroke-width="1.4"><path d="m99.005 82.368.495.496.495-.496 12.403-12.407a1.648 1.648 0 0 1 2.811 1.164c0 .437-.173.856-.482 1.164l-14.063 14.063a1.643 1.643 0 0 1-2.328 0l-7.032-7.031a1.649 1.649 0 0 1 0-2.33 1.644 1.644 0 0 1 2.33 0l5.37 5.377Z"/><path d="m70.226 52.206-.132-.531h-5.75a1.644 1.644 0 0 1 0-3.287H71.375a1.643 1.643 0 0 1 1.594 1.245l1.899 7.6.132.53H129.968a1.643 1.643 0 0 1 1.614 1.946l-7.031 37.5a1.645 1.645 0 0 1-1.614 1.341H80.751a1.644 1.644 0 0 1-1.615-1.341l-7.021-37.43-.004-.02-.005-.02-1.88-7.533Zm11.781 42.486.107.57h39.459l.107-.57 6.155-32.813.155-.829H75.697l.156.829 6.154 32.813Zm-2.704 7.799a8.675 8.675 0 1 1 12.269 12.267 8.675 8.675 0 0 1-12.269-12.267Zm32.813 0a8.674 8.674 0 1 1 12.268 12.266 8.674 8.674 0 0 1-12.268-12.266Zm-22.869 9.944a5.39 5.39 0 0 0-3.81-9.198 5.389 5.389 0 0 0-3.809 9.198 5.388 5.388 0 0 0 7.619 0Zm32.813 0a5.39 5.39 0 0 0-3.81-9.198 5.391 5.391 0 0 0-5.388 5.388 5.39 5.39 0 0 0 9.198 3.81Z"/></g><rect x="50" y="133" width="100" height="4" rx="1" fill="#2271B1"/><defs><clipPath id="a"><path fill="#fff" transform="translate(62 43)" d="M0 0h75v75H0z"/></clipPath></defs></svg>