<svg width="116" height="136" fill="none" xmlns="http://www.w3.org/2000/svg"><rect x=".5" y=".5" width="115" height="135" rx="9.5" fill="#fff" stroke="#EAEAEA"/><path d="M0 10C0 4.477 4.477 0 10 0h96c5.523 0 10 4.477 10 10v16H0V10Z" fill="#E6EAED"/><rect x="13" y="10" width="91" height="7" rx="1" fill="#fff"/><path d="M55.172 47.243a4 4 0 0 1 5.656 0l27.93 27.929a4 4 0 0 1 0 5.656l-27.93 27.929a4 4 0 0 1-5.656 0l-27.93-27.929a4 4 0 0 1 0-5.656l27.93-27.93Z" fill="#fff" stroke="#2271B1" stroke-width="2"/><path d="M67.514 80.25a3.745 3.745 0 0 0-3.617 2.813h-3.883a2.815 2.815 0 0 1-2.813-2.813V76.5a4.641 4.641 0 0 0-.961-2.813h7.657a3.75 3.75 0 1 0 0-1.874H52.381a3.75 3.75 0 1 0 0 1.874h.133a2.816 2.816 0 0 1 2.813 2.813v3.75a4.693 4.693 0 0 0 4.687 4.688h3.883a3.745 3.745 0 1 0 3.617-4.688Zm0-9.375a1.875 1.875 0 1 1 0 3.75 1.875 1.875 0 0 1 0-3.75Zm-18.75 3.75a1.875 1.875 0 1 1 0-3.75 1.875 1.875 0 0 1 0 3.75Zm18.75 11.25a1.875 1.875 0 1 1 0-3.751 1.875 1.875 0 0 1 0 3.751Z" fill="#2271B1"/></svg>