<svg width="200" height="259" fill="none" xmlns="http://www.w3.org/2000/svg"><rect x=".5" y=".5" width="199" height="258" rx="9.5" fill="#fff" stroke="#EFEFEF"/><path d="M0 10C0 4.477 4.477 0 10 0h180c5.523 0 10 4.477 10 10v18.147H0V10Z" fill="#E6EAED"/><ellipse cx="14" cy="14.021" rx="4" ry="4.021" fill="#FF3B30"/><ellipse cx="27" cy="14.021" rx="4" ry="4.021" fill="#FC0"/><ellipse cx="40" cy="14.021" rx="4" ry="4.021" fill="#4CD964"/><rect x="64" y="11" width="107" height="7" rx="1" fill="#fff"/><rect x="50" y="151" width="100" height="4" rx="1" fill="#2271B1"/><rect x="23" y="165" width="154" height="4" rx="1" fill="#EAEAEA"/><rect x="70" y="178" width="60" height="4" rx="1" fill="#EAEAEA"/><rect x="23" y="197" width="154" height="20" rx="2" fill="#2271B1"/><path d="m73.4 210 .486-1.493h2.362l.486 1.493h1.483l-2.256-6.545h-1.784L71.917 210h1.484Zm.838-2.573.805-2.477h.052l.805 2.477h-1.662Zm6.73 2.669c1.308 0 2.13-.767 2.193-1.895h-1.284c-.08.524-.425.818-.892.818-.636 0-1.048-.534-1.048-1.474 0-.926.415-1.457 1.048-1.457.498 0 .818.329.892.818h1.284c-.057-1.134-.917-1.879-2.198-1.879-1.49 0-2.41 1.032-2.41 2.538 0 1.492.904 2.531 2.416 2.531Zm5.283 0c1.307 0 2.129-.767 2.193-1.895h-1.285c-.08.524-.425.818-.892.818-.636 0-1.048-.534-1.048-1.474 0-.926.415-1.457 1.048-1.457.499 0 .818.329.892.818h1.285c-.058-1.134-.918-1.879-2.2-1.879-1.489 0-2.41 1.032-2.41 2.538 0 1.492.905 2.531 2.417 2.531Zm5.301 0c1.215 0 2.033-.591 2.225-1.502l-1.26-.083c-.137.374-.488.569-.942.569-.68 0-1.112-.451-1.112-1.183v-.003h3.343v-.374c0-1.668-1.01-2.493-2.308-2.493-1.444 0-2.38 1.026-2.38 2.541 0 1.556.923 2.528 2.434 2.528Zm-1.09-3.046a1.037 1.037 0 0 1 1.059-1.007c.59 0 1 .422 1.003 1.007h-2.061Zm4.232 4.791h1.362v-2.627h.041c.189.409.601.866 1.394.866 1.118 0 1.99-.885 1.99-2.528 0-1.688-.91-2.525-1.987-2.525-.822 0-1.215.489-1.397.888h-.06v-.824h-1.343v6.75Zm1.333-4.296c0-.875.37-1.435 1.032-1.435.675 0 1.033.585 1.033 1.435 0 .857-.365 1.451-1.033 1.451-.655 0-1.032-.575-1.032-1.451Zm6.974-2.454h-.924v-1.176h-1.361v1.176h-.672v1.023h.672v2.556c-.007.962.648 1.439 1.636 1.397.351-.013.601-.083.738-.128l-.214-1.013c-.067.013-.211.045-.339.045-.271 0-.46-.102-.46-.48v-2.377h.924v-1.023Zm9.01 1.636c0-2.141-1.329-3.362-3.065-3.362-1.745 0-3.065 1.221-3.065 3.362 0 2.132 1.32 3.362 3.065 3.362 1.736 0 3.065-1.22 3.065-3.362Zm-1.403 0c0 1.387-.658 2.138-1.662 2.138-1.007 0-1.662-.751-1.662-2.138s.655-2.138 1.662-2.138c1.004 0 1.662.751 1.662 2.138Zm5.043-1.636h-.975v-.329c0-.333.134-.528.533-.528.163 0 .33.036.438.071l.24-1.023a3.589 3.589 0 0 0-.962-.134c-.924 0-1.611.521-1.611 1.588v.355h-.693v1.023h.693V210h1.362v-3.886h.975v-1.023Zm3.471 0h-.975v-.329c0-.333.135-.528.534-.528.163 0 .329.036.438.071l.24-1.023a3.603 3.603 0 0 0-.962-.134c-.924 0-1.611.521-1.611 1.588v.355h-.694v1.023h.694V210h1.361v-3.886h.975v-1.023Zm2.893 5.005c1.215 0 2.033-.591 2.225-1.502l-1.259-.083c-.138.374-.489.569-.943.569-.681 0-1.112-.451-1.112-1.183v-.003h3.343v-.374c0-1.668-1.01-2.493-2.308-2.493-1.445 0-2.381 1.026-2.381 2.541 0 1.556.924 2.528 2.435 2.528Zm-1.089-3.046a1.036 1.036 0 0 1 1.057-1.007c.592 0 1.001.422 1.004 1.007h-2.061Zm4.231 2.95h1.362v-2.777c0-.604.441-1.02 1.042-1.02.188 0 .447.032.575.074v-1.208a2.033 2.033 0 0 0-.428-.048c-.55 0-1.001.319-1.18.926h-.051v-.856h-1.32V210Z" fill="#fff"/><path d="M79.921 233.5h1.076v-1.805h.786l.964 1.805h1.189l-1.082-1.979c.58-.248.9-.753.9-1.449 0-1.012-.669-1.663-1.825-1.663h-2.008v5.091Zm1.076-2.67v-1.541h.726c.622 0 .922.276.922.783 0 .505-.3.758-.917.758h-.73Zm5.176 2.745c.945 0 1.581-.46 1.73-1.169l-.979-.064c-.107.29-.38.442-.733.442-.53 0-.865-.35-.865-.92v-.002h2.6v-.291c0-1.298-.786-1.939-1.795-1.939-1.124 0-1.852.798-1.852 1.976 0 1.211.719 1.967 1.894 1.967Zm-.847-2.369a.806.806 0 0 1 .823-.783c.46 0 .778.328.78.783h-1.603Zm3.29-1.524v3.99c0 .288-.12.432-.461.432-.045 0-.085 0-.14-.005v.828c.077.002.14.005.214.005.9 0 1.447-.358 1.447-1.243v-4.007h-1.06Zm.528-.492c.316 0 .574-.241.574-.537 0-.294-.258-.535-.574-.535-.313 0-.572.241-.572.535 0 .296.259.537.572.537Zm3.12 4.385c.945 0 1.581-.46 1.73-1.169l-.98-.064c-.106.29-.38.442-.732.442-.53 0-.865-.35-.865-.92v-.002h2.6v-.291c0-1.298-.786-1.939-1.795-1.939-1.124 0-1.852.798-1.852 1.976 0 1.211.718 1.967 1.894 1.967Zm-.847-2.369a.806.806 0 0 1 .822-.783c.46 0 .778.328.78.783h-1.603Zm5.016 2.369c1.017 0 1.655-.597 1.705-1.475h-1c-.061.408-.33.637-.693.637-.494 0-.815-.415-.815-1.146 0-.721.323-1.134.815-1.134.388 0 .637.256.694.637h1c-.046-.883-.714-1.462-1.711-1.462-1.159 0-1.874.803-1.874 1.974 0 1.161.703 1.969 1.879 1.969Zm4.414-3.893h-.718v-.915h-1.06v.915h-.521v.795h.522v1.989c-.005.748.504 1.119 1.272 1.086.274-.01.468-.064.575-.099l-.167-.788c-.052.01-.164.035-.263.035-.212 0-.358-.08-.358-.373v-1.85h.718v-.795Zm7.008 1.273c0-1.666-1.034-2.616-2.384-2.616-1.357 0-2.384.95-2.384 2.616 0 1.658 1.027 2.615 2.384 2.615 1.35 0 2.384-.95 2.384-2.615Zm-1.091 0c0 1.078-.512 1.663-1.293 1.663-.783 0-1.292-.585-1.292-1.663 0-1.079.509-1.663 1.292-1.663.781 0 1.293.584 1.293 1.663Zm3.922-1.273h-.758v-.256c0-.259.104-.41.415-.41.127 0 .256.027.34.054l.187-.795a2.778 2.778 0 0 0-.748-.105c-.719 0-1.253.406-1.253 1.236v.276h-.54v.795h.54v3.023h1.059v-3.023h.758v-.795Zm2.7 0h-.758v-.256c0-.259.104-.41.415-.41.127 0 .256.027.341.054l.186-.795a2.778 2.778 0 0 0-.748-.105c-.719 0-1.253.406-1.253 1.236v.276h-.54v.795h.54v3.023h1.059v-3.023h.758v-.795Zm2.25 3.893c.945 0 1.581-.46 1.73-1.169l-.979-.064c-.107.29-.38.442-.733.442-.53 0-.865-.35-.865-.92v-.002h2.6v-.291c0-1.298-.786-1.939-1.795-1.939-1.124 0-1.852.798-1.852 1.976 0 1.211.718 1.967 1.894 1.967Zm-.847-2.369a.806.806 0 0 1 .822-.783c.46 0 .778.328.781.783h-1.603Zm3.291 2.294h1.059v-2.16c0-.47.343-.793.81-.793.147 0 .348.025.448.057v-.94a1.627 1.627 0 0 0-.334-.037c-.427 0-.778.249-.917.721h-.04v-.666h-1.026v3.818Z" fill="#A1A1A1"/><circle cx="104.542" cy="90.595" r="38.786" fill="#fff" stroke="#2271B1" stroke-miterlimit="1.862" stroke-dasharray="2 3"/><circle cx="104.541" cy="90.595" r="31.905" fill="#F6FAFF"/><g clip-path="url(#a)"><path d="m127.255 65.474-3.802 3.804V57.48a1.863 1.863 0 0 0-3.182-1.318c-.35.35-.547.823-.547 1.318v11.8l-3.802-3.805a1.865 1.865 0 1 0-2.639 2.639l6.986 6.985a1.865 1.865 0 0 0 2.64 0l6.985-6.985a1.866 1.866 0 1 0-2.639-2.639Zm12.263.155a17.93 17.93 0 0 1-35.859 0 17.927 17.927 0 0 1 17.93-17.929 17.93 17.93 0 0 1 17.929 17.93Z" fill="#fff" stroke="#2271B1" stroke-width="1.4"/></g><path d="M107.145 112.066v.001c0 .966.384 1.893 1.068 2.577l20.265 20.265a3.646 3.646 0 0 0 5.154 0l13.277-13.277a3.646 3.646 0 0 0 0-5.154l-20.265-20.265a3.647 3.647 0 0 0-2.577-1.068H110.79a3.642 3.642 0 0 0-3.645 3.645v13.276Zm14.475-6.038a3.592 3.592 0 1 1-7.185 0 3.592 3.592 0 0 1 7.185 0Z" fill="#fff" stroke="#2271B1" stroke-width="1.5"/><rect x="55" y="88.527" width="36.389" height="36.389" rx="18.194" fill="#fff"/><path d="M73.194 91.56a15.162 15.162 0 1 0 0 30.324 15.162 15.162 0 0 0 0-30.324Zm0 27.291a12.128 12.128 0 0 1-8.577-20.706 12.13 12.13 0 1 1 8.577 20.706Z" fill="#2271B1"/><path d="M73.194 105.206c-3.032 0-3.032-.956-3.032-1.517 0-.561 1.061-1.516 3.032-1.516s2.108.971 2.123 1.516h3.033a4.545 4.545 0 0 0-3.64-4.366v-1.698h-3.032v1.652c-3.032.5-4.548 2.456-4.548 4.412 0 1.698.788 4.549 6.064 4.549 3.033 0 3.033 1.031 3.033 1.516 0 .485-.94 1.516-3.033 1.516-2.79 0-3.032-1.304-3.032-1.516H67.13c0 1.395 1 3.866 4.548 4.427v1.638h3.033v-1.638c3.032-.515 4.548-2.471 4.548-4.427 0-1.698-.788-4.548-6.065-4.548Z" fill="#2271B1"/><defs><clipPath id="a"><path fill="#fff" transform="translate(102.959 47)" d="M0 0h37.259v37.259H0z"/></clipPath></defs></svg>