<svg width="313" height="264" fill="none" xmlns="http://www.w3.org/2000/svg"><g clip-path="url(#a)"><mask id="b" style="mask-type:luminance" maskUnits="userSpaceOnUse" x="0" y="0" width="313" height="264"><path d="M312.483 0H.52v264h311.963V0Z" fill="#fff"/></mask><g mask="url(#b)"><path d="M250.685 123.497c34.134 0 61.802-27.646 61.802-61.749C312.487 27.646 284.819 0 250.685 0s-61.806 27.646-61.806 61.748c0 34.103 27.672 61.749 61.806 61.749Z" fill="#F9C1AE"/><path d="M256.18 46.023H31.078v161.555H256.18V46.023Z" fill="#fff"/><path d="M256.179 208.592H31.077a1.017 1.017 0 0 1-1.015-1.014V46.022c0-.557.456-1.014 1.015-1.014H256.18c.559 0 1.015.456 1.015 1.014v161.556c0 .558-.456 1.014-1.015 1.014Zm-224.087-2.029h223.072V47.037H32.092v159.526Z" fill="#1A3142"/><path d="M49.304 63.41a5.862 5.862 0 0 1-5.863-5.86 5.862 5.862 0 0 1 5.863-5.859 5.862 5.862 0 0 1 5.863 5.86 5.862 5.862 0 0 1-5.863 5.859Zm0-9.677a3.825 3.825 0 0 0-3.821 3.83 3.825 3.825 0 0 0 3.821 3.83 3.825 3.825 0 0 0 3.821-3.83 3.825 3.825 0 0 0-3.82-3.83ZM66.504 62.408a4.845 4.845 0 1 0 0-9.69 4.847 4.847 0 0 0-4.848 4.845 4.847 4.847 0 0 0 4.848 4.845Z" fill="#1A3142"/><path d="M78.867 57.563a4.845 4.845 0 0 0 4.848 4.845 4.845 4.845 0 1 0 0-9.69 4.845 4.845 0 0 0-4.848 4.845Z" fill="#F9C1AE"/><path d="M222.874 71.947H40.152a1.017 1.017 0 0 1-1.015-1.015c0-.557.456-1.014 1.014-1.014h182.723a1.02 1.02 0 0 1 1.015 1.014 1.02 1.02 0 0 1-1.015 1.015Z" fill="#1A3142"/><path d="m66.472 76.652-17.663 34.749 169.352 85.913 17.66-34.749L66.472 76.652Z" fill="#FF7C48"/><path d="M86.555 108.699c-2.83 5.568-9.633 7.787-15.206 4.959-5.573-2.829-7.793-9.626-4.963-15.193 2.83-5.568 9.636-7.787 15.206-4.959 5.573 2.828 7.793 9.626 4.963 15.193Z" fill="#fff"/><path d="M211.269 172.983a.99.99 0 0 1-.46-.114L76.007 104.488a1.023 1.023 0 0 1-.444-1.37 1.015 1.015 0 0 1 1.371-.444l134.803 68.381c.495.254.697.863.444 1.37a1.005 1.005 0 0 1-.9.558h-.012ZM104.33 143.216c-1.157-11.871-1.689-18.021-6.005-17.844-3.314.14-3.54 6.354-3.401 9.854.04.964-1.027 1.585-1.84 1.053-8.276-15.992-9.228-18.693-13.077-17.21-2.497.964-3.286 3.221-1.562 8.243 0 0-.848-1.382-1.256-2.054-2.688-4.375-8.313-.824-5.863 3.272 2.906 4.845 10.04 14.191 10.04 14.191l-5.343 12.403 21.973 6.455s6.548-16.182 6.334-18.363Z" fill="#fff"/><path d="M97.999 162.596c-.092 0-.19-.013-.294-.038l-21.972-6.455a1.008 1.008 0 0 1-.634-.545 1.014 1.014 0 0 1-.012-.838l5.101-11.857c-1.498-1.978-7.182-9.537-9.747-13.811-1.562-2.599-.52-5.072 1.308-6.189a4.298 4.298 0 0 1 4.733.178c-.051-2.067.674-3.969 3.136-4.921 4.38-1.686 5.751 1.002 12.375 13.887l1.728 3.348c.076-.038.163-.089.163-.089-.266-7.013 1.245-10.779 4.38-10.906 5.256-.216 5.851 6.341 7.008 18.249l.048.507c.218 2.258-4.848 14.99-6.41 18.846a1 1 0 0 1-.94.634H98Zm-20.59-8.117 19.991 5.872c3.036-7.571 6.017-15.814 5.93-17.044l-.051-.507c-1.106-11.338-1.729-16.423-4.785-16.423h-.115c-2.045.088-2.604 4.603-2.438 8.801a2.174 2.174 0 0 1-1.118 2.003 2.2 2.2 0 0 1-2.295-.063 1.094 1.094 0 0 1-.357-.38l-1.966-3.805c-6.477-12.568-7.273-13.912-9.838-12.923-1.043.406-2.97 1.141-.98 6.962a1.014 1.014 0 0 1-1.827.85l-1.256-2.054c-1.027-1.662-2.502-1.789-3.504-1.18-.975.596-1.546 1.877-.623 3.412 2.858 4.743 9.914 14 9.978 14.089.23.292.27.685.126 1.015l-4.883 11.35.012.025Z" fill="#1A3142"/><path d="M83.211 141.128c-.404 0-.8-.254-.951-.66l-4.761-12.796a1.028 1.028 0 0 1 .599-1.306 1.028 1.028 0 0 1 1.308.596l4.756 12.796c.19.52-.075 1.104-.594 1.306a1.147 1.147 0 0 1-.357.064Z" fill="#1A3142"/><path d="M70.743 151.484c-8.547 17.806-15.044 31.02-15.044 31.02l14.278 48.382c9.815-3.754 13.862-8.915 34.083-69.395l-33.317-10.007Z" fill="#F9C1AE"/><path d="M69.978 231.903c-.15 0-.301-.038-.444-.101a1.009 1.009 0 0 1-.52-.621l-14.277-48.382a.968.968 0 0 1 .063-.735c.063-.127 6.588-13.431 15.04-31.02a1.016 1.016 0 0 1 1.204-.533l33.321 10.006c.266.076.484.266.611.507s.15.533.063.786c-19.891 59.453-24.053 65.934-34.692 70.017a.903.903 0 0 1-.37.064v.012ZM56.79 182.609l13.85 46.936c8.376-3.462 12.704-9.398 32.128-67.367l-31.494-9.46c-7.5 15.623-13.418 27.71-14.496 29.891h.012Z" fill="#1A3142"/><path d="M135.732 182.211a1.863 1.863 0 0 0 1.673 2.041 1.867 1.867 0 1 0 .369-3.715 1.864 1.864 0 0 0-2.042 1.674Z" fill="#FCFFFF"/><path d="M43.625 161.796c-2.03 0-3.996-.317-4.11-.33a1.007 1.007 0 0 1-.837-1.166 1.008 1.008 0 0 1 1.165-.838c.04 0 3.211.508 5.383.216a1.02 1.02 0 0 1 1.142.863 1.015 1.015 0 0 1-.864 1.141c-.595.076-1.229.114-1.863.114h-.016ZM121.004 31.705c-3.857 0-6.992-3.132-6.992-6.975 0-3.843 3.135-6.988 6.992-6.988 3.861 0 6.997 3.133 6.997 6.988 0 3.855-3.136 6.975-6.997 6.975Zm0-11.934c-2.727 0-4.963 2.22-4.963 4.959 0 2.74 2.224 4.946 4.963 4.946a4.946 4.946 0 0 0 4.951-4.946c0-2.727-2.22-4.959-4.951-4.959Z" fill="#1A3142"/><path d="M177.314 242.812c-6.247 0-9.331-4.109-12.3-8.079-2.795-3.728-5.447-7.266-10.675-7.266a1.018 1.018 0 0 1-1.015-1.015c0-.558.456-1.014 1.015-1.014 6.259 0 9.327 4.109 12.3 8.078 2.791 3.729 5.443 7.267 10.675 7.267 5.229 0 7.88-3.526 10.675-7.267 2.969-3.969 6.053-8.078 12.3-8.078 6.243 0 9.327 4.109 12.3 8.078 2.728 3.64 5.304 7.089 10.279 7.254.559.013 1.003.494.979 1.053-.012.558-.472.989-1.054.976-5.954-.203-8.935-4.198-11.841-8.066-2.794-3.728-5.446-7.266-10.675-7.266-5.232 0-7.884 3.525-10.679 7.266-2.969 3.97-6.053 8.079-12.296 8.079h.012Z" fill="#FF7C48"/><path d="M158.859 153.195c-1.423-2.942-5.498-1.623-6.386-1.458 0 0 5.534-2.917 3.211-6.189-1.51-2.131-5.482-.85-9.228 1.052 3.25-2.383 4.812-5.897 2.577-7.723-2.244-1.839-6.093-2.181-21.806 9.347-2.601 1.915-8.11-1.281-8.11-1.281l-8.888-4.654s-.785 7.964 3.251 15.814l-3.972 16.208 23.558 8.801 3.694-13.633c2.549-1.218 18.405-5.935 19.534-8.091.532-1.015.369-2.258-.214-3.272 3.247-2.283 3.402-3.678 2.791-4.946l-.012.025Z" fill="#fff"/><path d="M133.052 184.158a1.18 1.18 0 0 1-.357-.064l-23.558-8.801a1.025 1.025 0 0 1-.634-1.192l3.885-15.853c-3.936-7.913-3.211-15.713-3.175-16.042.039-.33.23-.634.535-.787a.975.975 0 0 1 .951 0l8.887 4.654c1.32.761 5.368 2.6 7.044 1.37 15.167-11.134 19.939-11.845 23.051-9.308.963.786 1.447 1.851 1.423 3.107-.028.875-.321 1.801-.84 2.727 3.02-.901 5.129-.559 6.247 1.027.686.964.911 2.041.646 3.119-.202.837-.674 1.598-1.233 2.232 1.475.115 2.997.698 3.833 2.448.928 1.94.206 3.678-2.449 5.707.42 1.167.38 2.397-.151 3.411-.825 1.586-5.458 3.412-14.901 6.684-1.994.685-3.746 1.293-4.673 1.674l-3.568 13.164a.997.997 0 0 1-.519.634.987.987 0 0 1-.468.114l.024-.025Zm-22.353-10.451 21.667 8.104 3.401-12.555c.08-.291.282-.52.547-.647.825-.393 2.807-1.077 5.304-1.94 4.202-1.458 12.95-4.477 13.775-5.707.317-.621.242-1.496-.202-2.282a.997.997 0 0 1 .289-1.332c3.163-2.232 2.719-3.171 2.462-3.678-.809-1.699-3.045-1.42-4.884-.976l-.38.088c-.508.102-.979-.19-1.158-.659-.162-.47.04-1.002.484-1.23.773-.406 2.842-1.788 3.199-3.247.115-.507.012-.976-.329-1.471-.892-1.243-3.77-.748-7.936 1.37a1.028 1.028 0 0 1-1.332-.368 1 1 0 0 1 .265-1.344c1.919-1.408 3.176-3.222 3.211-4.642.016-.609-.202-1.09-.67-1.484-1.827-1.483-5.7-1.534-20.565 9.372-3.06 2.245-8.605-.862-9.228-1.23l-7.424-3.88c0 2.637.368 8.23 3.187 13.709.111.215.138.469.087.71l-3.758 15.332-.012-.013Z" fill="#1A3142"/><path d="M141.646 159.02a.996.996 0 0 1-.876-.507 1.011 1.011 0 0 1 .368-1.383l10.826-6.252a1.014 1.014 0 0 1 1.383.368 1.01 1.01 0 0 1-.368 1.382l-10.826 6.252c-.166.089-.329.14-.507.14ZM136.897 153.288c-.341 0-.686-.177-.876-.494a1.028 1.028 0 0 1 .357-1.395l9.902-5.834a1.028 1.028 0 0 1 1.395.355 1.027 1.027 0 0 1-.357 1.395l-9.902 5.821a.964.964 0 0 1-.519.14v.012ZM144.375 163.635c-.405 0-.785-.254-.952-.647a1.009 1.009 0 0 1 .583-1.306l11.694-4.477a1.01 1.01 0 0 1 1.304.583 1.007 1.007 0 0 1-.583 1.307l-11.69 4.476a.896.896 0 0 1-.368.064h.012ZM53.273 134.135c.254 13.595-8.554 28.662-21.54 28.903-12.998.24-23.736-10.578-23.99-24.172-.254-13.596 10.076-24.806 23.074-25.047 12.998-.241 22.202 6.721 22.456 20.316Z" fill="#1A3142"/><path d="m22.66 172.549-.039-11.084s11.932-.596 14.611-16.246c0 0 3.148-2.13.987-13.95a1.396 1.396 0 0 1 1.273-1.636c3.337-.228 10.825-1.103 10.762-4.375l3.365 11.414 4.999.811c.472.076.8.495.765.977l-.559 7.013c1.078 5.58 2.624 13.43-13.481 15.206l.824 12.352-23.522-.482h.016Z" fill="#fff"/><path d="M46.178 174.046c-.531 0-.975-.406-1.015-.951l-.824-12.352a1.008 1.008 0 0 1 .9-1.078c6.017-.66 10-2.27 11.844-4.768 2.006-2.715 1.332-6.164.749-9.208a2.122 2.122 0 0 1-.028-.317l.56-7.013-4.912-.697a1.039 1.039 0 0 1-.813-.711l-3.365-11.413a1.01 1.01 0 0 1 .686-1.256 1.006 1.006 0 0 1 1.256.685l3.187 10.805 4.368.71a1.947 1.947 0 0 1 1.61 2.054l-.543 6.874c.634 3.298 1.367 7.318-1.13 10.704-2.12 2.866-6.144 4.654-12.3 5.466l.761 11.388c.036.558-.38 1.04-.94 1.078h-.075.024ZM22.656 173.563a1.02 1.02 0 0 1-1.019-1.015l-.035-12.479c0-.558.455-1.014 1.014-1.014.635.012 1.015.444 1.015 1.014l.04 12.479a1.02 1.02 0 0 1-1.015 1.015Z" fill="#1A3142"/><path d="M45.721 134.773c-.138 0-.293-.038-.432-.101a1.005 1.005 0 0 1-.483-1.345c.04-.076.904-1.877 2.933-2.511 1.55-.482 3.286-.164 5.177.926.484.279.65.901.369 1.383-.29.481-.912.646-1.384.367-1.371-.799-2.565-1.052-3.54-.748-1.18.355-1.728 1.446-1.728 1.446a1.021 1.021 0 0 1-.912.571v.012ZM48.436 137.432a5.45 5.45 0 0 1-.14-.989c0-.152 0-.304.064-.443.214-.432.964-.495 1.166-.077.127.267.206.558.241.837.076.444.266.863.012 1.307a.656.656 0 0 1-.444.329c-.455.089-.71-.304-.812-.621a3.953 3.953 0 0 1-.1-.355l.013.012Z" fill="#1A3142"/><path d="M42.968 144.874c-1.486 2.689-5.13 3.539-8.126 1.877-2.993-1.661-4.226-5.186-2.727-7.875 1.486-2.689 5.13-3.538 8.122-1.877 2.997 1.661 4.23 5.187 2.731 7.875Z" fill="#fff"/><path d="M38.019 145.357c-.341 0-.686-.177-.877-.494a1.017 1.017 0 0 1 .357-1.395l1.118-.66-2.794-2.638a1.005 1.005 0 0 1-.036-1.433 1.004 1.004 0 0 1 1.43-.038l3.786 3.564c.226.215.353.532.318.85-.04.317-.218.596-.496.76l-2.271 1.345a.989.989 0 0 1-.524.139h-.011ZM59.255 148.783H54.53a1.018 1.018 0 0 1-1.014-1.015c0-.558.456-1.014 1.014-1.014h4.725a1.02 1.02 0 0 1 1.015 1.014 1.02 1.02 0 0 1-1.015 1.015Z" fill="#1A3142"/><path d="M244.859 31.386s-43.921-2.815-58.544-2.029c-9.644.507-25.282 3.59-35.592 15.028-10.291 11.44-20.423 23.094-9.72 30.919 2.168 1.585 4.313 2.13 6.422 1.978.392 2.372 1.764 4.579 4.443 6.532 10.699 7.824 20.993-9.651 26.388-11.25 1.297-.38 3.072-.798 5.039-1.217.559 3.742 3.21 7.66 10.449 10.425 0 0-13.621 8.775-17.989 14.292-4.364 5.53-7.171 17.882 1.169 21.75 8.341 3.868 26.833-11.3 30.884-12.936 4.035-1.636 37.344-1.877 48.384-14.762l-11.321-58.73h-.012Z" fill="#fff"/><path d="M180.095 119.464c-1.309 0-2.526-.229-3.604-.723-2.882-1.332-4.812-3.754-5.585-6.975-1.336-5.605 1.09-12.593 4.035-16.335 3.568-4.514 12.871-10.944 16.641-13.468-5.066-2.308-8.11-5.465-9.089-9.422-1.649.368-2.981.697-3.948.989-1.419.418-3.54 2.397-5.776 4.502-5.648 5.288-13.39 12.517-21.5 6.594-2.462-1.8-4.036-3.918-4.658-6.315-2.172-.038-4.253-.774-6.208-2.194-2.957-2.169-4.622-4.781-4.927-7.774-.797-7.647 7.326-16.677 14.496-24.64 11.464-12.734 29.195-14.991 36.291-15.372 14.523-.773 58.226 2.004 58.67 2.03.456.025.848.367.94.824l11.321 58.73a.987.987 0 0 1-.226.85c-8.646 10.082-30.186 12.605-41.765 13.975-3.309.393-6.168.723-7.016 1.065-.916.368-2.858 1.636-5.105 3.12-6.624 4.337-16.094 10.526-22.976 10.526l-.011.013Zm3.199-49.143c.202 0 .408.064.582.178.23.165.381.406.42.685.611 4.134 3.909 7.38 9.799 9.625.357.14.611.457.646.837.04.38-.138.749-.455.964-.139.089-13.529 8.738-17.747 14.077-2.652 3.361-4.848 9.626-3.655 14.597.622 2.638 2.133 4.515 4.456 5.606 5.775 2.675 17.568-5.048 24.624-9.664 2.529-1.662 4.368-2.853 5.458-3.297 1.106-.444 3.671-.749 7.54-1.205 11.146-1.307 31.787-3.729 40.139-12.91l-11.084-57.475c-5.977-.368-44.325-2.689-57.64-1.991-6.841.368-23.926 2.524-34.894 14.698-6.878 7.648-14.687 16.322-13.985 23.069.254 2.435 1.597 4.514 4.11 6.34 1.84 1.345 3.735 1.928 5.752 1.789.519-.038.987.33 1.078.85.369 2.231 1.689 4.16 4.048 5.871 6.754 4.934 13.493-1.37 18.916-6.43 2.525-2.371 4.709-4.413 6.588-4.971 1.217-.355 2.929-.773 5.113-1.243.076-.012.139-.025.214-.025l-.023.025Z" fill="#1A3142"/><path d="M147.425 78.296c-.381 0-.749-.216-.916-.57a1.024 1.024 0 0 1 .472-1.358c.047-.025 5.66-2.764 11.563-9.41 6.398-7.19 23.264-6.201 23.978-6.15.543.038.951.481.951 1.026 0 .064-.075 6.43.785 9.208a1.018 1.018 0 0 1-.67 1.268 1.023 1.023 0 0 1-1.272-.672c-.746-2.41-.861-6.861-.872-8.852-3.631-.102-16.455-.026-21.378 5.516-6.208 6.975-11.971 9.778-12.209 9.892a1.088 1.088 0 0 1-.432.102Z" fill="#1A3142"/><path d="M193.739 82.787a1.02 1.02 0 0 1-.734-1.725c.076-.076 7.449-7.761 4.341-13.1-3.199-5.479-14.738-5.136-14.853-5.136a1.014 1.014 0 0 1-1.055-.977 1.022 1.022 0 0 1 .98-1.052c.507-.013 12.871-.381 16.68 6.138 3.885 6.658-4.293 15.167-4.646 15.535a1.041 1.041 0 0 1-.725.304l.012.013Z" fill="#1A3142"/><path d="M190.033 73.314c-.396 0-.777-.24-.939-.634a1 1 0 0 1 .559-1.319l8.744-3.589a1.005 1.005 0 0 1 1.32.558 1.005 1.005 0 0 1-.559 1.32l-8.744 3.588c-.127.05-.254.076-.381.076ZM162.795 64.836l-27.768 23.223 23.241 27.745 27.772-23.223-23.245-27.745Z" fill="#1A3142"/><path d="M166.5 97.46c-3.948 3.298-9.826 2.778-13.124-1.166-3.302-3.944-2.783-9.816 1.165-13.113 3.948-3.298 9.827-2.778 13.125 1.166 3.302 3.945 2.779 9.816-1.166 13.114Z" fill="#FF7C48"/><path d="m262.652 21.738-22.226 4.599 14.912 71.94 22.222-4.599-14.908-71.94Z" fill="#1A3142"/><path d="m18.93 171.777.04-7.952 28.572-.786 11.17 10.069-39.782-1.331Z" fill="#fff"/><path d="m58.711 174.121-39.818-1.319a1.003 1.003 0 0 1-.979-1.014l.052-7.952c0-.545.444-.989.99-1.014l28.573-.787c.23 0 .507.089.71.267l11.17 10.069c.317.279.42.736.266 1.129-.151.38-.531.634-.94.634l-.024-.013Zm-38.763-3.322 36.008 1.192-8.796-7.939-27.176.748-.036 5.986v.013Z" fill="#1A3142"/><path d="M108.319 167.008a4933.654 4933.654 0 0 1-12.59 32.098c-21.607-24.793-26.479-28.37-48.606-30.728-.606-.064-15.396-.152-24.775.558-17.504 1.319-27.216 21.584-15.97 73.796v20.266H81.7s-.773-21.344-.836-22.371c10.583 9.6 25.627 9.042 32.849 5.618 9.482-4.502 13.125-9.955 28.612-71.818l-34.007-7.406v-.013Z" fill="#F9C1AE"/><path d="M81.698 263.999c-.546 0-.99-.431-1.014-.976 0-.216-.79-21.344-.84-22.358a1.001 1.001 0 0 1 .586-.964 1.01 1.01 0 0 1 1.118.165c10.243 9.283 24.723 8.775 31.731 5.453 8.796-4.173 12.34-8.459 27.812-70.131l-32.128-7.001a5160.038 5160.038 0 0 1-12.273 31.287.982.982 0 0 1-.777.621 1.022 1.022 0 0 1-.94-.33c-21.234-24.362-25.753-28.027-47.94-30.386-.685-.051-15.13-.164-24.588.558-5.573.419-10.052 2.841-13.315 7.204-8.047 10.741-8.657 33.34-1.752 65.363.012.076.028.139.028.215v20.266a1.02 1.02 0 0 1-1.019 1.014 1.02 1.02 0 0 1-1.015-1.014V242.82c-7.095-33.023-6.382-55.521 2.121-66.909 3.631-4.845 8.606-7.546 14.79-8.003 9.264-.697 24.18-.634 24.953-.545 22.392 2.384 27.708 6.404 48.17 29.815a4326.233 4326.233 0 0 0 11.971-30.538 1.004 1.004 0 0 1 1.169-.621l34.003 7.406c.27.063.496.228.65.456.139.229.191.521.127.787-15.233 60.809-18.876 67.595-29.171 72.49-7.107 3.373-21.39 4.071-32.179-4.287.218 5.605.725 19.378.75 20.088a1.015 1.015 0 0 1-.976 1.053h-.04l-.011-.013Z" fill="#1A3142"/><path d="M90.279 213.768c-.127 0-.254-.026-.38-.077a1.02 1.02 0 0 1-.576-1.319l5.459-13.645c.206-.52.8-.774 1.32-.571.523.203.777.799.57 1.319l-5.454 13.646a1.02 1.02 0 0 1-.94.634v.013ZM80.856 241.628a.973.973 0 0 1-.618-.216l-25.16-19.428a1.012 1.012 0 1 1 1.245-1.598l25.156 19.428c.444.343.523.977.178 1.42a1.022 1.022 0 0 1-.8.394ZM43.4 161.823a16.53 16.53 0 0 1-2.652-.202c-.547-.102-.928-.622-.825-1.167a.998.998 0 0 1 1.166-.824c.011 0 2.017.342 4.138.05a1.02 1.02 0 0 1 1.142.863 1.012 1.012 0 0 1-.86 1.141c-.738.101-1.463.139-2.11.139ZM140.9 66.696c-.409 0-.789-.254-.952-.66a1.01 1.01 0 0 1 .583-1.306c.052-.013 4.836-1.915 8.202-8.42 1.573-3.057-2.058-7.546-2.097-7.585a1.027 1.027 0 0 1 .138-1.432c.432-.356 1.083-.292 1.423.14.191.227 4.531 5.566 2.335 9.815-3.742 7.229-9.061 9.295-9.275 9.384a1.175 1.175 0 0 1-.357.064ZM194.413 114.177c-.543 0-.987-.419-1.015-.964-.115-2.6-3.108-6.963-6.421-7.229-2.843-.228-7.873 3.577-9.558 5.06-.42.368-1.066.33-1.435-.088a1.018 1.018 0 0 1 .088-1.433c.685-.609 6.881-5.885 11.067-5.555 4.582.367 8.138 5.719 8.289 9.156a1.017 1.017 0 0 1-.964 1.065h-.051v-.012Z" fill="#1A3142"/></g></g><defs><clipPath id="a"><path fill="#fff" transform="translate(.52)" d="M0 0h311.964v264H0z"/></clipPath></defs></svg>