<svg width="200" height="259" fill="none" xmlns="http://www.w3.org/2000/svg"><rect x=".5" y=".5" width="199" height="258" rx="9.5" fill="#fff" stroke="#EAEAEA"/><path d="M0 10C0 4.477 4.477 0 10 0h180c5.523 0 10 4.477 10 10v18H0V10Z" fill="#E6EAED"/><circle cx="14" cy="14" r="4" fill="#FF3B30"/><circle cx="27" cy="14" r="4" fill="#FC0"/><circle cx="40" cy="14" r="4" fill="#4CD964"/><rect x="64" y="10" width="107" height="7" rx="1" fill="#fff"/><rect x="23" y="220" width="154" height="20" rx="2" fill="#2271B1"/><path d="M67.206 233.5h2.796c1.47 0 2.253-.767 2.253-1.809 0-.968-.693-1.553-1.438-1.588v-.064c.68-.154 1.183-.636 1.183-1.407 0-.981-.729-1.677-2.174-1.677h-2.62v6.545Zm1.383-1.131v-1.739h1.16c.665 0 1.078.383 1.078.924 0 .492-.336.815-1.11.815H68.59Zm0-2.675v-1.621h1.052c.614 0 .962.317.962.79 0 .517-.422.831-.988.831H68.59Zm7.69 1.716c.002.658-.448 1.003-.937 1.003-.515 0-.847-.361-.85-.939v-2.883H73.13v3.126c.003 1.147.675 1.847 1.662 1.847.739 0 1.269-.38 1.49-.956h.05v.892h1.308v-4.909h-1.362v2.819Zm3.29 3.931c1.014 0 1.55-.518 1.828-1.31l1.909-5.434-1.442-.006-1.026 3.605h-.05l-1.017-3.605h-1.432l1.761 5.05-.08.207c-.179.461-.52.483-1 .336l-.307 1.016c.195.083.511.141.856.141Zm12.017-8.386h-1.378v4.116h-.057l-2.826-4.116h-1.214v6.545h1.384v-4.12h.048l2.847 4.12h1.196v-6.545Zm3.335 6.641c1.49 0 2.417-1.02 2.417-2.531 0-1.522-.927-2.538-2.416-2.538-1.49 0-2.417 1.016-2.417 2.538 0 1.511.927 2.531 2.416 2.531Zm.007-1.055c-.687 0-1.039-.629-1.039-1.486 0-.856.352-1.489 1.039-1.489.674 0 1.026.633 1.026 1.489 0 .857-.352 1.486-1.026 1.486Zm4.14.959h1.439l.843-3.087h.061l.844 3.087h1.441l1.333-4.909h-1.374l-.748 3.279h-.042l-.805-3.279h-1.352l-.793 3.298h-.044l-.761-3.298h-1.378l1.336 4.909Zm9.071-2.624c0 1.588.418 2.908 1.291 4.046h1.301c-.668-.844-1.176-2.531-1.176-4.046 0-1.512.508-3.199 1.176-4.043h-1.301c-.873 1.138-1.291 2.455-1.291 4.043Zm9.183-1.63c-.183-1.512-1.327-2.381-2.842-2.381-1.729 0-3.049 1.221-3.049 3.362 0 2.135 1.298 3.362 3.049 3.362 1.678 0 2.691-1.115 2.842-2.32l-1.4-.006c-.131.7-.681 1.102-1.419 1.102-.994 0-1.669-.738-1.669-2.138 0-1.361.665-2.138 1.678-2.138.758 0 1.304.438 1.41 1.157h1.4Zm.743-1.15h2.004v5.404h1.368v-5.404h2.003v-1.141h-5.375v1.141Zm6.58 5.404.486-1.493h2.362l.486 1.493h1.483l-2.257-6.545h-1.783l-2.26 6.545h1.483Zm.838-2.573.805-2.477h.051l.806 2.477h-1.662Zm7.036-.7c0-1.588-.419-2.908-1.291-4.046h-1.301c.668.844 1.176 2.531 1.176 4.046 0 1.512-.508 3.199-1.176 4.043h1.301c.872-1.138 1.291-2.454 1.291-4.043Z" fill="#fff"/><rect x="65" y="164" width="70" height="4" rx="1" fill="#E6EAED"/><rect x="75" y="57" width="50" height="4" rx="1" fill="#E6EAED"/><rect x="50" y="43" width="100" height="4" rx="1" fill="#2271B1"/><rect x="23.75" y="76.75" width="152.5" height="61.5" rx="1.25" fill="#fff" stroke="#2271B1" stroke-width="1.5"/><path d="m95.877 113.483 19.113-19.384 28.349 32.151H58.876l24.53-23.351 11.427 10.607.533.495.51-.518Z" fill="#fff" stroke="#2271B1" stroke-width="1.5"/><path d="M101.25 95c0 2.962-2.187 5.25-4.75 5.25s-4.75-2.288-4.75-5.25 2.187-5.25 4.75-5.25 4.75 2.288 4.75 5.25Z" fill="#fff" stroke="#2271B1" stroke-width="1.5"/><path d="m166.727 111.06 3.053-3.06-3.053-3.06.94-.94 4 4-4 4-.94-.94ZM34.272 111.06 31.219 108l3.053-3.06-.94-.94-4 4 4 4 .94-.94Z" fill="#2271B1"/><circle cx="91.5" cy="147.5" r="1.5" fill="#2271B1"/><circle cx="99.5" cy="147.5" r="1.5" fill="#2271B1"/><circle cx="107.5" cy="147.5" r="1.5" fill="#2271B1"/><rect x="23" y="178" width="154" height="4" rx="1" fill="#E6EAED"/><rect x="23" y="192" width="154" height="4" rx="1" fill="#E6EAED"/><rect x="23" y="206" width="154" height="4" rx="1" fill="#E6EAED"/></svg>