<svg width="200" height="260" fill="none" xmlns="http://www.w3.org/2000/svg"><rect x=".5" y="1" width="199" height="258" rx="9.5" fill="#fff" stroke="#EAEAEA"/><path d="M0 10.5C0 4.977 4.477.5 10 .5h180c5.523 0 10 4.477 10 10v18H0v-18Z" fill="#E6EAED"/><circle cx="14" cy="14.5" r="4" fill="#FF3B30"/><circle cx="27" cy="14.5" r="4" fill="#FC0"/><circle cx="40" cy="14.5" r="4" fill="#4CD964"/><rect x="64" y="10.5" width="107" height="7" rx="1" fill="#fff"/><path fill="#F6FAFF" d="M113 49h64v92h-64z"/><rect x="125" y="64" width="40" height="4" rx="1" fill="#2271B1"/><path d="M120.5 79a.5.5 0 0 1 .5-.5h48a.5.5 0 0 1 .5.5v4a.5.5 0 0 1-.5.5h-48a.5.5 0 0 1-.5-.5v-4ZM120.5 90a.5.5 0 0 1 .5-.5h48a.5.5 0 0 1 .5.5v4a.5.5 0 0 1-.5.5h-48a.5.5 0 0 1-.5-.5v-4Z" fill="#fff" stroke="#B7CFE2"/><rect x="120.5" y="103.5" width="4" height="4" rx=".5" fill="#fff" stroke="#CCDEED"/><rect x="130" y="104" width="40" height="3" rx="1" fill="#CCDEED"/><rect x="120" y="118" width="50" height="7" rx="2" fill="#2271B1"/><rect x="23" y="60" width="80" height="4" rx="1" fill="#E6EAED"/><path fill="#fff" stroke="#E6EAED" stroke-width="1.5" d="M23.75 74.75h78.5v43.5h-78.5z"/><path d="M63 88.25a8.75 8.75 0 1 0 .001 17.501A8.75 8.75 0 0 0 63 88.25Zm0 16.016a7.267 7.267 0 0 1 0-14.532 7.267 7.267 0 0 1 0 14.532Z" fill="#2271B1"/><path d="m67.05 96.748-5.782-4.2a.31.31 0 0 0-.495.253v8.398c0 .256.29.401.495.252l5.783-4.199a.312.312 0 0 0 .095-.393.312.312 0 0 0-.095-.111Zm-5.03 2.617v-4.73L65.275 97l-3.256 2.365Z" fill="#2271B1"/><rect x="50" y="156" width="100" height="4" rx="1" fill="#E6EAED"/><circle cx="25" cy="175" r="2" fill="#2271B1"/><circle cx="25" cy="189" r="2" fill="#2271B1"/><circle cx="25" cy="203" r="2" fill="#2271B1"/><rect x="35" y="173" width="142" height="4" rx="1" fill="#E6EAED"/><rect x="35" y="187" width="100" height="4" rx="1" fill="#E6EAED"/><rect x="35" y="201" width="120" height="4" rx="1" fill="#E6EAED"/><rect x="23" y="219" width="154" height="20" rx="2" fill="#2271B1"/><path d="M94.442 229.227c0-2.141-1.33-3.362-3.065-3.362-1.745 0-3.065 1.221-3.065 3.362 0 2.132 1.32 3.362 3.065 3.362 1.735 0 3.065-1.22 3.065-3.362Zm-1.403 0c0 1.387-.659 2.138-1.662 2.138-1.007 0-1.662-.751-1.662-2.138s.655-2.138 1.662-2.138c1.003 0 1.662.751 1.662 2.138Zm2.402 5.114h1.362v-2.627h.041c.189.409.601.866 1.394.866 1.118 0 1.991-.885 1.991-2.528 0-1.688-.911-2.525-1.988-2.525-.821 0-1.215.489-1.397.888h-.06v-.824H95.44v6.75Zm1.333-4.296c0-.875.37-1.435 1.032-1.435.675 0 1.033.585 1.033 1.435 0 .857-.365 1.451-1.033 1.451-.655 0-1.032-.575-1.032-1.451Zm6.974-2.454h-.924v-1.176h-1.361v1.176h-.672v1.023h.672v2.556c-.007.962.648 1.439 1.636 1.397.352-.013.601-.083.738-.128l-.214-1.013c-.067.013-.211.045-.339.045-.271 0-.46-.102-.46-.48v-2.377h.924v-1.023Zm.887 4.909h1.361v-4.909h-1.361v4.909Zm.684-5.542c.405 0 .738-.31.738-.69 0-.377-.333-.687-.738-.687-.403 0-.736.31-.736.687 0 .38.333.69.736.69Zm3.129 2.704c.003-.633.381-1.004.93-1.004.547 0 .876.358.873.959v2.883h1.361v-3.126c0-1.144-.671-1.847-1.694-1.847-.728 0-1.256.358-1.476.93h-.058v-.866h-1.297v4.909h1.361v-2.838Z" fill="#fff"/></svg>