<svg width="200" height="259" fill="none" xmlns="http://www.w3.org/2000/svg"><rect x=".5" y=".5" width="199" height="258" rx="9.5" fill="#fff" stroke="#EAEAEA"/><path d="M0 10C0 4.477 4.477 0 10 0h180c5.523 0 10 4.477 10 10v18.147H0V10Z" fill="#E6EAED"/><ellipse cx="14" cy="14.021" rx="4" ry="4.021" fill="#FF3B30"/><ellipse cx="27" cy="14.021" rx="4" ry="4.021" fill="#FC0"/><ellipse cx="40" cy="14.021" rx="4" ry="4.021" fill="#4CD964"/><rect x="64" y="11" width="107" height="7" rx="1" fill="#fff"/><path d="M126.583 79.008V81.5a27.08 27.08 0 0 1-19.404 25.956 27.083 27.083 0 1 1 3.344-50.71" stroke="#2271B1" stroke-width="2" stroke-linecap="round" stroke-linejoin="round"/><path d="M126.583 59.833 99.5 86.943l-8.125-8.124" stroke="#2271B1" stroke-width="2" stroke-linecap="round" stroke-linejoin="round"/><rect x="83" y="143" width="35" height="4" rx="1" fill="#E6EAED"/><rect x="78" y="129" width="45" height="4" rx="1" fill="#2271B1"/><rect x="23" y="157" width="154" height="4" rx="1" fill="#E6EAED"/><rect x="23" y="171" width="154" height="4" rx="1" fill="#E6EAED"/><rect x="23" y="185" width="154" height="4" rx="1" fill="#E6EAED"/><rect x="23" y="199" width="92.4" height="4" rx="1" fill="#E6EAED"/><rect x="72" y="223" width="12" height="12" rx="1" fill="#EAEAEA"/><rect x="94" y="223" width="12" height="12" rx="1" fill="#EAEAEA"/><rect x="116" y="223" width="12" height="12" rx="1" fill="#EAEAEA"/></svg>